<?xml version="1.0" encoding="UTF-8"?>
<!DOCTYPE svg PUBLIC "-//W3C//DTD SVG 1.1//EN" "http://www.w3.org/Graphics/SVG/1.1/DTD/svg11.dtd">
<svg xmlns="http://www.w3.org/2000/svg" version="1.1" width="200px" height="172px" style="shape-rendering:geometricPrecision; text-rendering:geometricPrecision; image-rendering:optimizeQuality; fill-rule:evenodd; clip-rule:evenodd" xmlns:xlink="http://www.w3.org/1999/xlink">
<g><path style="opacity:1" fill="#3c3b38" d="M 143.5,50.5 C 147.126,52.4977 151.126,53.4977 155.5,53.5C 169.15,56.2875 182.65,59.6208 196,63.5C 196.667,76.5 196.667,89.5 196,102.5C 192.676,104.579 189.176,106.246 185.5,107.5C 185.5,106.5 185.5,105.5 185.5,104.5C 188.39,104.722 191.057,104.055 193.5,102.5C 194.499,89.8508 194.832,77.1842 194.5,64.5C 190.774,64.1774 187.107,64.5108 183.5,65.5C 184.167,66.1667 184.833,66.8333 185.5,67.5C 163.75,78.0818 141.75,88.0818 119.5,97.5C 118.5,97.5 117.5,97.5 116.5,97.5C 101.659,93.2205 86.6592,89.5538 71.5,86.5C 55.3955,82.0578 39.0622,78.0578 22.5,74.5C 17.0771,72.3897 11.4104,70.723 5.5,69.5C 4.50331,76.1335 4.16998,82.8002 4.5,89.5C 4.16667,89.5 3.83333,89.5 3.5,89.5C 3.18678,82.2454 3.52011,75.0787 4.5,68C 28.586,56.9533 52.586,45.9533 76.5,35C 78.5,34.3333 80.5,34.3333 82.5,35C 103.002,40.0417 123.336,45.2084 143.5,50.5 Z"/></g>
<g><path style="opacity:0.553" fill="#6e6d6a" d="M 143.5,50.5 C 147.761,50.8984 151.761,51.8984 155.5,53.5C 151.126,53.4977 147.126,52.4977 143.5,50.5 Z"/></g>
<g><path style="opacity:1" fill="#24272a" d="M 185.5,107.5 C 182.948,108.693 180.448,110.027 178,111.5C 177.667,114.5 177.333,117.5 177,120.5C 175.644,121.38 174.144,121.714 172.5,121.5C 173.035,124.238 172.035,126.072 169.5,127C 164.648,127.815 159.981,127.648 155.5,126.5C 164.927,127.932 168.593,123.932 166.5,114.5C 163.482,114.665 160.482,114.498 157.5,114C 154.833,112.667 154.833,111.333 157.5,110C 161.926,109.209 166.259,109.543 170.5,111C 171.966,114.039 171.633,116.872 169.5,119.5C 171.396,120.466 173.396,120.799 175.5,120.5C 175.5,117.167 175.5,113.833 175.5,110.5C 167.775,108.647 160.108,106.48 152.5,104C 162.761,94.9503 172.928,85.7837 183,76.5C 183.749,75.365 183.583,74.365 182.5,73.5C 173.842,83.3231 164.342,92.3231 154,100.5C 152.736,100.36 151.569,100.36 150.5,100.5C 151.313,99.1861 152.313,98.0195 153.5,97C 151.799,96.6554 150.466,97.3221 149.5,99C 148.167,99.6667 146.833,99.6667 145.5,99C 149.239,95.3833 153.072,91.8833 157,88.5C 156.968,84.4976 156.301,84.4976 155,88.5C 150.867,91.6311 147.034,95.1311 143.5,99C 142.167,99.6667 140.833,99.6667 139.5,99C 141,97.5 142.5,96 144,94.5C 144.749,93.365 144.583,92.365 143.5,91.5C 141.27,96.5643 137.437,99.5643 132,100.5C 131.751,99.376 131.251,98.376 130.5,97.5C 129.416,100.088 127.749,102.255 125.5,104C 126.167,104.333 126.833,104.667 127.5,105C 126.109,106.02 124.609,106.853 123,107.5C 122.133,104.016 120.966,100.683 119.5,97.5C 141.75,88.0818 163.75,78.0818 185.5,67.5C 184.833,66.8333 184.167,66.1667 183.5,65.5C 187.107,64.5108 190.774,64.1774 194.5,64.5C 194.832,77.1842 194.499,89.8508 193.5,102.5C 191.057,104.055 188.39,104.722 185.5,104.5C 185.5,105.5 185.5,106.5 185.5,107.5 Z"/></g>
<g><path style="opacity:1" fill="#181717" d="M 22.5,74.5 C 17.175,73.5041 11.8417,72.5041 6.5,71.5C 6.33349,82.505 6.50015,93.505 7,104.5C 8.91623,106.022 11.0829,107.022 13.5,107.5C 10.6558,108.551 7.65584,108.551 4.5,107.5C 4.5,101.5 4.5,95.5 4.5,89.5C 4.16998,82.8002 4.50331,76.1335 5.5,69.5C 11.4104,70.723 17.0771,72.3897 22.5,74.5 Z"/></g>
<g><path style="opacity:1" fill="#2e2737" d="M 22.5,74.5 C 38.4681,79.5749 54.8014,83.5749 71.5,86.5C 86.6592,89.5538 101.659,93.2205 116.5,97.5C 118.446,108.914 119.112,120.581 118.5,132.5C 83.5938,124.05 48.5938,115.716 13.5,107.5C 11.0829,107.022 8.91623,106.022 7,104.5C 6.50015,93.505 6.33349,82.505 6.5,71.5C 11.8417,72.5041 17.175,73.5041 22.5,74.5 Z"/></g>
<g><path style="opacity:1" fill="#828789" d="M 78.5,71.5 C 81.8988,72.0164 85.2321,72.8497 88.5,74C 88.0418,76.3977 86.7085,78.0644 84.5,79C 78.5205,80.1093 72.8538,79.276 67.5,76.5C 70.8865,73.9691 74.5531,72.3025 78.5,71.5 Z"/></g>
<g><path style="opacity:1" fill="#201d22" d="M 22.5,74.5 C 39.0622,78.0578 55.3955,82.0578 71.5,86.5C 54.8014,83.5749 38.4681,79.5749 22.5,74.5 Z"/></g>
<g><path style="opacity:1" fill="#4e4f4e" d="M 72.5,74.5 C 75.3563,74.9283 78.3563,75.095 81.5,75C 81.8333,75.3333 82.1667,75.6667 82.5,76C 78.5,76.6667 78.5,77.3333 82.5,78C 79.167,78.1141 75.8337,77.7808 72.5,77C 71.4019,76.2303 71.4019,75.397 72.5,74.5 Z"/></g>
<g><path style="opacity:1" fill="#0f1011" d="M 180.5,89.5 C 179.061,91.588 178.394,93.9214 178.5,96.5C 178.274,99.2492 178.607,101.916 179.5,104.5C 178.833,105.833 178.167,105.833 177.5,104.5C 174.309,97.7507 175.309,91.584 180.5,86C 181.5,85.3333 182.5,85.3333 183.5,86C 182.29,87.0391 181.29,88.2058 180.5,89.5 Z"/></g>
<g><path style="opacity:1" fill="#393c3f" d="M 178.5,96.5 C 178.394,93.9214 179.061,91.588 180.5,89.5C 186.233,87.2223 188.9,89.2223 188.5,95.5C 186.095,95.8664 183.762,96.5331 181.5,97.5C 180.416,97.315 179.416,96.9817 178.5,96.5 Z"/></g>
<g><path style="opacity:1" fill="#1e2021" d="M 155.5,126.5 C 154.761,126.631 154.094,126.464 153.5,126C 152.915,124.698 152.249,123.531 151.5,122.5C 149.473,122.338 147.473,122.505 145.5,123C 146.696,123.654 146.696,124.154 145.5,124.5C 144.086,123.376 142.586,122.376 141,121.5C 140.818,124.226 140.318,126.893 139.5,129.5C 135.93,130.709 132.597,132.042 129.5,133.5C 129.167,133.5 128.833,133.5 128.5,133.5C 124.339,135.063 120.005,135.729 115.5,135.5C 78.0947,126.815 40.7614,117.815 3.5,108.5C 3.5,102.167 3.5,95.8333 3.5,89.5C 3.83333,89.5 4.16667,89.5 4.5,89.5C 4.5,95.5 4.5,101.5 4.5,107.5C 7.65584,108.551 10.6558,108.551 13.5,107.5C 48.5938,115.716 83.5938,124.05 118.5,132.5C 119.112,120.581 118.446,108.914 116.5,97.5C 117.5,97.5 118.5,97.5 119.5,97.5C 120.966,100.683 122.133,104.016 123,107.5C 124.609,106.853 126.109,106.02 127.5,105C 126.833,104.667 126.167,104.333 125.5,104C 127.749,102.255 129.416,100.088 130.5,97.5C 131.251,98.376 131.751,99.376 132,100.5C 137.437,99.5643 141.27,96.5643 143.5,91.5C 144.583,92.365 144.749,93.365 144,94.5C 142.5,96 141,97.5 139.5,99C 140.833,99.6667 142.167,99.6667 143.5,99C 147.034,95.1311 150.867,91.6311 155,88.5C 156.301,84.4976 156.968,84.4976 157,88.5C 153.072,91.8833 149.239,95.3833 145.5,99C 146.833,99.6667 148.167,99.6667 149.5,99C 150.466,97.3221 151.799,96.6554 153.5,97C 152.313,98.0195 151.313,99.1861 150.5,100.5C 151.569,100.36 152.736,100.36 154,100.5C 164.342,92.3231 173.842,83.3231 182.5,73.5C 183.583,74.365 183.749,75.365 183,76.5C 172.928,85.7837 162.761,94.9503 152.5,104C 160.108,106.48 167.775,108.647 175.5,110.5C 175.5,113.833 175.5,117.167 175.5,120.5C 173.396,120.799 171.396,120.466 169.5,119.5C 171.633,116.872 171.966,114.039 170.5,111C 166.259,109.543 161.926,109.209 157.5,110C 154.833,111.333 154.833,112.667 157.5,114C 160.482,114.498 163.482,114.665 166.5,114.5C 168.593,123.932 164.927,127.932 155.5,126.5 Z"/></g>
<g><path style="opacity:1" fill="#0e0e0e" d="M 152.5,112.5 C 155.698,115.011 159.364,116.345 163.5,116.5C 163.5,118.833 163.5,121.167 163.5,123.5C 157.866,122.573 152.199,121.907 146.5,121.5C 146.768,118.881 146.435,116.381 145.5,114C 148.036,113.814 150.369,113.314 152.5,112.5 Z"/></g>
<g><path style="opacity:1" fill="#373a3b" d="M 151.5,122.5 C 149.682,124.567 147.349,125.9 144.5,126.5C 143.755,128.747 142.422,130.58 140.5,132C 136.748,132.24 133.081,132.74 129.5,133.5C 132.597,132.042 135.93,130.709 139.5,129.5C 140.318,126.893 140.818,124.226 141,121.5C 142.586,122.376 144.086,123.376 145.5,124.5C 146.696,124.154 146.696,123.654 145.5,123C 147.473,122.505 149.473,122.338 151.5,122.5 Z"/></g>
<g><path style="opacity:0.643" fill="#5d5e5e" d="M 128.5,133.5 C 124.566,137.607 120.232,138.274 115.5,135.5C 120.005,135.729 124.339,135.063 128.5,133.5 Z"/></g>
</svg>
