<?xml version="1.0" encoding="UTF-8"?>
<!DOCTYPE svg PUBLIC "-//W3C//DTD SVG 1.1//EN" "http://www.w3.org/Graphics/SVG/1.1/DTD/svg11.dtd">
<svg xmlns="http://www.w3.org/2000/svg" version="1.1" width="200px" height="200px" style="shape-rendering:geometricPrecision; text-rendering:geometricPrecision; image-rendering:optimizeQuality; fill-rule:evenodd; clip-rule:evenodd" xmlns:xlink="http://www.w3.org/1999/xlink">
<g><path style="opacity:0.827" fill="#adbbbe" d="M 156.5,37.5 C 154.167,37.5 151.833,37.5 149.5,37.5C 148.791,36.596 147.791,36.2627 146.5,36.5C 114.336,35.3359 82.0026,35.1693 49.5,36C 48.2625,36.2321 47.2625,36.7321 46.5,37.5C 45.8333,37.5 45.1667,37.5 44.5,37.5C 46.3854,35.6885 48.7187,34.5218 51.5,34C 83.8333,33.3333 116.167,33.3333 148.5,34C 151.599,34.3874 154.266,35.5541 156.5,37.5 Z"/></g>
<g><path style="opacity:1" fill="#9ca1a1" d="M 146.5,36.5 C 131.833,36.5 117.167,36.5 102.5,36.5C 101.167,36.5 99.8333,36.5 98.5,36.5C 82.3246,36.1703 66.3246,36.5036 50.5,37.5C 49.1667,37.5 47.8333,37.5 46.5,37.5C 47.2625,36.7321 48.2625,36.2321 49.5,36C 82.0026,35.1693 114.336,35.3359 146.5,36.5 Z"/></g>
<g><path style="opacity:1" fill="#919191" d="M 50.5,37.5 C 66.3246,36.5036 82.3246,36.1703 98.5,36.5C 97.8333,37.5 97.1667,38.5 96.5,39.5C 96.0826,44.0685 98.0826,45.5685 102.5,44C 103.056,43.6174 103.389,43.1174 103.5,42.5C 104.808,40.3619 104.475,38.3619 102.5,36.5C 117.167,36.5 131.833,36.5 146.5,36.5C 147.791,36.2627 148.791,36.596 149.5,37.5C 135.833,37.5 122.167,37.5 108.5,37.5C 108.216,39.4147 108.549,41.0813 109.5,42.5C 109.155,45.1979 107.822,47.1979 105.5,48.5C 102.269,48.9123 98.9358,48.4123 95.5,47C 92.9712,44.3583 91.9712,41.1916 92.5,37.5C 78.5,37.5 64.5,37.5 50.5,37.5 Z"/></g>
<g><path style="opacity:1" fill="#808080" d="M 44.5,37.5 C 45.1667,37.5 45.8333,37.5 46.5,37.5C 47.8333,37.5 49.1667,37.5 50.5,37.5C 64.5,37.5 78.5,37.5 92.5,37.5C 91.9712,41.1916 92.9712,44.3583 95.5,47C 98.9358,48.4123 102.269,48.9123 105.5,48.5C 96.7373,51.7336 91.7373,48.7336 90.5,39.5C 74.8333,39.5 59.1667,39.5 43.5,39.5C 43.8333,38.8333 44.1667,38.1667 44.5,37.5 Z"/></g>
<g><path style="opacity:1" fill="#838383" d="M 149.5,37.5 C 151.833,37.5 154.167,37.5 156.5,37.5C 159.833,37.5 161.5,39.1667 161.5,42.5C 161.5,44.1667 161.5,45.8333 161.5,47.5C 160.856,59.216 161.522,70.5493 163.5,81.5C 163.5,85.5 163.5,89.5 163.5,93.5C 163.5,95.1667 163.5,96.8333 163.5,98.5C 161.681,111.797 160.848,125.463 161,139.5C 160.167,140.333 159.333,141.167 158.5,142C 149.173,142.5 139.839,142.666 130.5,142.5C 139.5,141.833 148.5,141.167 157.5,140.5C 158.117,140.389 158.617,140.056 159,139.5C 159.5,128.172 159.667,116.838 159.5,105.5C 159.689,100.699 160.356,96.0327 161.5,91.5C 160.507,84.5381 159.84,77.5381 159.5,70.5C 159.5,61.8333 159.5,53.1667 159.5,44.5C 159.768,42.901 159.434,41.5676 158.5,40.5C 142.342,39.5036 126.009,39.1702 109.5,39.5C 109.5,40.5 109.5,41.5 109.5,42.5C 108.549,41.0813 108.216,39.4147 108.5,37.5C 122.167,37.5 135.833,37.5 149.5,37.5 Z"/></g>
<g><path style="opacity:1" fill="#dadada" d="M 158.5,40.5 C 141.927,39.8712 125.594,40.5379 109.5,42.5C 109.5,41.5 109.5,40.5 109.5,39.5C 126.009,39.1702 142.342,39.5036 158.5,40.5 Z"/></g>
<g><path style="opacity:1" fill="#e8e8e8" d="M 43.5,39.5 C 59.1667,39.5 74.8333,39.5 90.5,39.5C 91.7373,48.7336 96.7373,51.7336 105.5,48.5C 107.822,47.1979 109.155,45.1979 109.5,42.5C 125.594,40.5379 141.927,39.8712 158.5,40.5C 159.434,41.5676 159.768,42.901 159.5,44.5C 158.675,48.6472 158.175,52.9805 158,57.5C 129.342,57.3859 101.009,57.0526 73,56.5C 72.6667,57.1667 72.3333,57.8333 72,58.5C 71.7216,57.5842 71.2216,56.9175 70.5,56.5C 68.9111,50.7734 65.0778,47.7734 59,47.5C 56.6013,47.6132 54.7679,48.6132 53.5,50.5C 50.9138,51.6385 49.2471,53.6385 48.5,56.5C 46.7576,56.6518 44.9243,56.6518 43,56.5C 42.8171,59.3647 42.3171,62.0314 41.5,64.5C 41.5,56.8333 41.5,49.1667 41.5,41.5C 41.8333,40.5 42.5,39.8333 43.5,39.5 Z"/></g>
<g><path style="opacity:1" fill="#686768" d="M 98.5,36.5 C 99.8333,36.5 101.167,36.5 102.5,36.5C 104.475,38.3619 104.808,40.3619 103.5,42.5C 103.5,41.5 103.5,40.5 103.5,39.5C 101.167,39.5 98.8333,39.5 96.5,39.5C 97.1667,38.5 97.8333,37.5 98.5,36.5 Z"/></g>
<g><path style="opacity:0.999" fill="#747474" d="M 44.5,37.5 C 44.1667,38.1667 43.8333,38.8333 43.5,39.5C 42.5,39.8333 41.8333,40.5 41.5,41.5C 40.8333,55.1667 40.1667,68.8333 39.5,82.5C 38.8362,84.8097 38.5029,87.3097 38.5,90C 38.6115,93.1051 39.2781,95.9384 40.5,98.5C 40.3334,112.171 40.5001,125.837 41,139.5C 41.3826,140.056 41.8826,140.389 42.5,140.5C 42.5,141.167 42.1667,141.5 41.5,141.5C 40.0937,141.027 39.427,140.027 39.5,138.5C 40.1481,124.791 39.4814,111.458 37.5,98.5C 38.2362,86.5136 38.9028,74.5136 39.5,62.5C 39.4996,55.991 39.1662,49.6576 38.5,43.5C 38.3029,39.1937 40.3029,37.1937 44.5,37.5 Z"/></g>
<g><path style="opacity:1" fill="#444444" d="M 96.5,39.5 C 98.8333,39.5 101.167,39.5 103.5,39.5C 103.5,40.5 103.5,41.5 103.5,42.5C 103.389,43.1174 103.056,43.6174 102.5,44C 98.0826,45.5685 96.0826,44.0685 96.5,39.5 Z"/></g>
<g><path style="opacity:1" fill="#e3e3e3" d="M 159.5,44.5 C 159.5,53.1667 159.5,61.8333 159.5,70.5C 158.681,73.3054 158.181,76.3054 158,79.5C 119.637,78.5317 81.1366,78.1984 42.5,78.5C 41.3704,76.6046 41.0371,71.938 41.5,64.5C 42.3171,62.0314 42.8171,59.3647 43,56.5C 44.9243,56.6518 46.7576,56.6518 48.5,56.5C 47.8827,60.4952 49.0494,63.8285 52,66.5C 51.0693,64.2571 50.5693,61.7571 50.5,59C 50.2508,55.6765 51.2508,52.8432 53.5,50.5C 67.2212,48.3183 71.7212,53.6517 67,66.5C 69.9506,63.8285 71.1173,60.4952 70.5,56.5C 71.2216,56.9175 71.7216,57.5842 72,58.5C 72.3333,57.8333 72.6667,57.1667 73,56.5C 101.009,57.0526 129.342,57.3859 158,57.5C 158.175,52.9805 158.675,48.6472 159.5,44.5 Z"/></g>
<g><path style="opacity:0.711" fill="#999999" d="M 38.5,43.5 C 39.1662,49.6576 39.4996,55.991 39.5,62.5C 38.9028,74.5136 38.2362,86.5136 37.5,98.5C 36.6733,93.3491 36.1733,88.0158 36,82.5C 35.7216,83.4158 35.2216,84.0825 34.5,84.5C 34.3335,73.495 34.5002,62.495 35,51.5C 35.3874,48.4006 36.5541,45.734 38.5,43.5 Z"/></g>
<g><path style="opacity:1" fill="#afafaf" d="M 70.5,56.5 C 71.1173,60.4952 69.9506,63.8285 67,66.5C 71.7212,53.6517 67.2212,48.3183 53.5,50.5C 54.7679,48.6132 56.6013,47.6132 59,47.5C 65.0778,47.7734 68.9111,50.7734 70.5,56.5 Z"/></g>
<g><path style="opacity:1" fill="#b1bdbf" d="M 161.5,42.5 C 163.915,45.3399 165.248,48.6733 165.5,52.5C 164.833,66.1667 164.167,79.8333 163.5,93.5C 163.5,89.5 163.5,85.5 163.5,81.5C 163.667,70.8281 163.5,60.1615 163,49.5C 162.722,48.5842 162.222,47.9175 161.5,47.5C 161.5,45.8333 161.5,44.1667 161.5,42.5 Z"/></g>
<g><path style="opacity:1" fill="#bfbfbf" d="M 53.5,50.5 C 51.2508,52.8432 50.2508,55.6765 50.5,59C 50.5693,61.7571 51.0693,64.2571 52,66.5C 49.0494,63.8285 47.8827,60.4952 48.5,56.5C 49.2471,53.6385 50.9138,51.6385 53.5,50.5 Z"/></g>
<g><path style="opacity:1" fill="#9c9d9d" d="M 161.5,47.5 C 162.222,47.9175 162.722,48.5842 163,49.5C 163.5,60.1615 163.667,70.8281 163.5,81.5C 161.522,70.5493 160.856,59.216 161.5,47.5 Z"/></g>
<g><path style="opacity:1" fill="#dcdcdc" d="M 41.5,41.5 C 41.5,49.1667 41.5,56.8333 41.5,64.5C 41.0371,71.938 41.3704,76.6046 42.5,78.5C 81.1366,78.1984 119.637,78.5317 158,79.5C 158.181,76.3054 158.681,73.3054 159.5,70.5C 159.84,77.5381 160.507,84.5381 161.5,91.5C 160.566,92.5676 160.232,93.901 160.5,95.5C 120.261,95.1701 80.0942,95.5034 40,96.5C 39.5008,91.8452 39.3342,87.1785 39.5,82.5C 40.1667,68.8333 40.8333,55.1667 41.5,41.5 Z"/></g>
<g><path style="opacity:0.463" fill="#c0cfd2" d="M 165.5,52.5 C 165.5,66.8333 165.5,81.1667 165.5,95.5C 164.833,101.167 164.167,106.833 163.5,112.5C 163.5,107.833 163.5,103.167 163.5,98.5C 163.5,96.8333 163.5,95.1667 163.5,93.5C 164.167,79.8333 164.833,66.1667 165.5,52.5 Z"/></g>
<g><path style="opacity:1" fill="#d7d7d7" d="M 39.5,82.5 C 39.3342,87.1785 39.5008,91.8452 40,96.5C 80.0942,95.5034 120.261,95.1701 160.5,95.5C 160.232,93.901 160.566,92.5676 161.5,91.5C 160.356,96.0327 159.689,100.699 159.5,105.5C 158.527,107.948 158.194,110.615 158.5,113.5C 120.124,112.93 81.4569,112.93 42.5,113.5C 42.6602,115.199 42.4935,116.866 42,118.5C 41.8283,111.654 41.3283,104.987 40.5,98.5C 39.2781,95.9384 38.6115,93.1051 38.5,90C 38.5029,87.3097 38.8362,84.8097 39.5,82.5 Z"/></g>
<g><path style="opacity:0.695" fill="#a9a9a9" d="M 37.5,98.5 C 39.4814,111.458 40.1481,124.791 39.5,138.5C 38.6701,129.342 38.1701,120.009 38,110.5C 37.296,112.727 36.1294,113.06 34.5,111.5C 34.5,102.5 34.5,93.5 34.5,84.5C 35.2216,84.0825 35.7216,83.4158 36,82.5C 36.1733,88.0158 36.6733,93.3491 37.5,98.5 Z"/></g>
<g><path style="opacity:1" fill="#b7babd" d="M 69.5,104.5 C 76.5,104.5 83.5,104.5 90.5,104.5C 90.5,105.5 90.5,106.5 90.5,107.5C 85.5,107.5 80.5,107.5 75.5,107.5C 75.6107,106.883 75.944,106.383 76.5,106C 73.9644,105.814 71.631,105.314 69.5,104.5 Z"/></g>
<g><path style="opacity:1" fill="#d0d0d0" d="M 40.5,98.5 C 41.3283,104.987 41.8283,111.654 42,118.5C 42.4935,116.866 42.6602,115.199 42.5,113.5C 81.4569,112.93 120.124,112.93 158.5,113.5C 158.194,110.615 158.527,107.948 159.5,105.5C 159.667,116.838 159.5,128.172 159,139.5C 158.617,140.056 158.117,140.389 157.5,140.5C 148.143,140.832 138.81,140.498 129.5,139.5C 128.076,137.282 126.076,135.782 123.5,135C 107.328,134.172 91.328,134.339 75.5,135.5C 73.7041,136.793 72.0375,138.293 70.5,140C 61.1726,140.5 51.8393,140.666 42.5,140.5C 41.8826,140.389 41.3826,140.056 41,139.5C 40.5001,125.837 40.3334,112.171 40.5,98.5 Z"/></g>
<g><path style="opacity:1" fill="#b6c1ce" d="M 69.5,104.5 C 71.631,105.314 73.9644,105.814 76.5,106C 75.944,106.383 75.6107,106.883 75.5,107.5C 66.8333,107.5 58.1667,107.5 49.5,107.5C 49.5,106.5 49.5,105.5 49.5,104.5C 56.1667,104.5 62.8333,104.5 69.5,104.5 Z"/></g>
<g><path style="opacity:1" fill="#afbdce" d="M 49.5,109.5 C 55.5,109.5 61.5,109.5 67.5,109.5C 67.5,110.5 67.5,111.5 67.5,112.5C 61.5,112.5 55.5,112.5 49.5,112.5C 49.5,111.5 49.5,110.5 49.5,109.5 Z"/></g>
<g><path style="opacity:1" fill="#b4b9bf" d="M 68.5,109.5 C 73.5,109.5 78.5,109.5 83.5,109.5C 83.5,110.5 83.5,111.5 83.5,112.5C 78.5,112.5 73.5,112.5 68.5,112.5C 68.5,111.5 68.5,110.5 68.5,109.5 Z"/></g>
<g><path style="opacity:1" fill="#aab8c9" d="M 49.5,114.5 C 58.5246,114.168 67.5246,114.502 76.5,115.5C 72,115.833 67.5,116.167 63,116.5C 58.1139,116.493 53.6139,115.826 49.5,114.5 Z"/></g>
<g><path style="opacity:1" fill="#d2e1e4" d="M 165.5,95.5 C 165.667,113.503 165.5,131.503 165,149.5C 164.246,152.684 162.746,155.351 160.5,157.5C 160.755,154.984 161.589,152.65 163,150.5C 163.5,137.838 163.667,125.171 163.5,112.5C 164.167,106.833 164.833,101.167 165.5,95.5 Z"/></g>
<g><path style="opacity:1" fill="#959595" d="M 75.5,135.5 C 91.328,134.339 107.328,134.172 123.5,135C 126.076,135.782 128.076,137.282 129.5,139.5C 138.81,140.498 148.143,140.832 157.5,140.5C 148.5,141.167 139.5,141.833 130.5,142.5C 130.5,149.833 130.5,157.167 130.5,164.5C 128.5,164.5 126.5,164.5 124.5,164.5C 124.666,156.16 124.5,147.827 124,139.5C 121.804,136.875 118.97,135.875 115.5,136.5C 113.5,136.5 111.5,136.5 109.5,136.5C 109.5,138.5 109.5,140.5 109.5,142.5C 103.792,140.614 97.7921,139.947 91.5,140.5C 91.5,138.833 91.5,137.167 91.5,135.5C 89.1667,135.5 86.8333,135.5 84.5,135.5C 81.5,135.5 78.5,135.5 75.5,135.5 Z"/></g>
<g><path style="opacity:1" fill="#919191" d="M 75.5,135.5 C 78.5,135.5 81.5,135.5 84.5,135.5C 84.5,135.833 84.5,136.167 84.5,136.5C 81.7276,136.22 79.2276,136.887 77,138.5C 76.5002,147.16 76.3336,155.827 76.5,164.5C 74.5,164.5 72.5,164.5 70.5,164.5C 70.5,157.167 70.5,149.833 70.5,142.5C 60.6522,142.827 50.9856,142.494 41.5,141.5C 42.1667,141.5 42.5,141.167 42.5,140.5C 51.8393,140.666 61.1726,140.5 70.5,140C 72.0375,138.293 73.7041,136.793 75.5,135.5 Z"/></g>
<g><path style="opacity:1" fill="#777777" d="M 115.5,136.5 C 115.5,140.5 115.5,144.5 115.5,148.5C 113.169,149.995 111.169,149.662 109.5,147.5C 109.5,145.833 109.5,144.167 109.5,142.5C 109.5,140.5 109.5,138.5 109.5,136.5C 111.5,136.5 113.5,136.5 115.5,136.5 Z"/></g>
<g><path style="opacity:1" fill="#7d7d7d" d="M 84.5,135.5 C 86.8333,135.5 89.1667,135.5 91.5,135.5C 91.5,137.167 91.5,138.833 91.5,140.5C 90.793,148.146 90.4597,155.813 90.5,163.5C 88.8333,163.5 87.1667,163.5 85.5,163.5C 85.8195,158.637 85.4861,153.97 84.5,149.5C 84.5,145.167 84.5,140.833 84.5,136.5C 84.5,136.167 84.5,135.833 84.5,135.5 Z"/></g>
<g><path style="opacity:0.941" fill="#bbbbbb" d="M 39.5,138.5 C 39.427,140.027 40.0937,141.027 41.5,141.5C 50.9856,142.494 60.6522,142.827 70.5,142.5C 70.5,149.833 70.5,157.167 70.5,164.5C 63.4921,164.666 56.4921,164.5 49.5,164C 46.7613,162.974 44.428,161.474 42.5,159.5C 47.5011,160.329 49.6678,158.329 49,153.5C 43.504,150.249 41.004,151.916 41.5,158.5C 37.5617,155.565 35.3951,151.565 35,146.5C 34.5001,134.838 34.3335,123.171 34.5,111.5C 36.1294,113.06 37.296,112.727 38,110.5C 38.1701,120.009 38.6701,129.342 39.5,138.5 Z"/></g>
<g><path style="opacity:1" fill="#9d9d9d" d="M 91.5,140.5 C 97.7921,139.947 103.792,140.614 109.5,142.5C 109.5,144.167 109.5,145.833 109.5,147.5C 109.5,147.833 109.5,148.167 109.5,148.5C 103.824,148.334 98.1569,148.501 92.5,149C 91.565,151.381 91.2317,153.881 91.5,156.5C 91.5,159.167 91.5,161.833 91.5,164.5C 89.1667,164.5 86.8333,164.5 84.5,164.5C 84.5,159.5 84.5,154.5 84.5,149.5C 85.4861,153.97 85.8195,158.637 85.5,163.5C 87.1667,163.5 88.8333,163.5 90.5,163.5C 90.4597,155.813 90.793,148.146 91.5,140.5 Z"/></g>
<g><path style="opacity:0.955" fill="#bbbbbb" d="M 163.5,98.5 C 163.5,103.167 163.5,107.833 163.5,112.5C 163.667,125.171 163.5,137.838 163,150.5C 161.589,152.65 160.755,154.984 160.5,157.5C 160.5,158.167 160.167,158.5 159.5,158.5C 159.862,151.996 157.362,150.329 152,153.5C 151.235,155.066 151.402,156.399 152.5,157.5C 153.99,159.28 155.99,159.946 158.5,159.5C 156.351,161.746 153.684,163.246 150.5,164C 143.842,164.5 137.175,164.666 130.5,164.5C 130.5,157.167 130.5,149.833 130.5,142.5C 139.839,142.666 149.173,142.5 158.5,142C 159.333,141.167 160.167,140.333 161,139.5C 160.848,125.463 161.681,111.797 163.5,98.5 Z"/></g>
<g><path style="opacity:0.958" fill="#aeaeae" d="M 115.5,136.5 C 118.97,135.875 121.804,136.875 124,139.5C 124.5,147.827 124.666,156.16 124.5,164.5C 121.5,164.5 118.5,164.5 115.5,164.5C 115.5,159.167 115.5,153.833 115.5,148.5C 115.5,144.5 115.5,140.5 115.5,136.5 Z"/></g>
<g><path style="opacity:0.959" fill="#afafaf" d="M 84.5,136.5 C 84.5,140.833 84.5,145.167 84.5,149.5C 84.5,154.5 84.5,159.5 84.5,164.5C 81.8333,164.5 79.1667,164.5 76.5,164.5C 76.3336,155.827 76.5002,147.16 77,138.5C 79.2276,136.887 81.7276,136.22 84.5,136.5 Z"/></g>
<g><path style="opacity:1" fill="#b2b3b3" d="M 109.5,148.5 C 109.5,152.5 109.5,156.5 109.5,160.5C 108.566,159.432 108.232,158.099 108.5,156.5C 102.833,156.5 97.1667,156.5 91.5,156.5C 91.2317,153.881 91.565,151.381 92.5,149C 98.1569,148.501 103.824,148.334 109.5,148.5 Z"/></g>
<g><path style="opacity:1" fill="#797a7a" d="M 159.5,158.5 C 159.5,159.167 159.167,159.5 158.5,159.5C 158.5,157.833 158.5,156.167 158.5,154.5C 156.5,154.5 154.5,154.5 152.5,154.5C 152.5,155.5 152.5,156.5 152.5,157.5C 151.402,156.399 151.235,155.066 152,153.5C 157.362,150.329 159.862,151.996 159.5,158.5 Z"/></g>
<g><path style="opacity:1" fill="#848585" d="M 109.5,147.5 C 111.169,149.662 113.169,149.995 115.5,148.5C 115.5,153.833 115.5,159.167 115.5,164.5C 113.5,164.5 111.5,164.5 109.5,164.5C 109.5,163.167 109.5,161.833 109.5,160.5C 109.5,156.5 109.5,152.5 109.5,148.5C 109.5,148.167 109.5,147.833 109.5,147.5 Z"/></g>
<g><path style="opacity:0.977" fill="#6b6b6c" d="M 42.5,159.5 C 41.8333,159.5 41.5,159.167 41.5,158.5C 41.004,151.916 43.504,150.249 49,153.5C 49.6678,158.329 47.5011,160.329 42.5,159.5 Z"/></g>
<g><path style="opacity:0.997" fill="#5b5c5c" d="M 158.5,159.5 C 155.99,159.946 153.99,159.28 152.5,157.5C 152.5,156.5 152.5,155.5 152.5,154.5C 154.5,154.5 156.5,154.5 158.5,154.5C 158.5,156.167 158.5,157.833 158.5,159.5 Z"/></g>
<g><path style="opacity:1" fill="#c2c2c2" d="M 91.5,156.5 C 97.1667,156.5 102.833,156.5 108.5,156.5C 108.232,158.099 108.566,159.432 109.5,160.5C 109.5,161.833 109.5,163.167 109.5,164.5C 103.5,164.5 97.5,164.5 91.5,164.5C 91.5,161.833 91.5,159.167 91.5,156.5 Z"/></g>
</svg>
