<?xml version="1.0" encoding="UTF-8"?>
<!DOCTYPE svg PUBLIC "-//W3C//DTD SVG 1.1//EN" "http://www.w3.org/Graphics/SVG/1.1/DTD/svg11.dtd">
<svg xmlns="http://www.w3.org/2000/svg" version="1.1" width="200px" height="202px" style="shape-rendering:geometricPrecision; text-rendering:geometricPrecision; image-rendering:optimizeQuality; fill-rule:evenodd; clip-rule:evenodd" xmlns:xlink="http://www.w3.org/1999/xlink">
<g><path style="opacity:0.093" fill="#020202" d="M 31.5,9.5 C 63.5414,9.03696 95.5414,9.53696 127.5,11C 137.437,15.7594 142.771,23.5927 143.5,34.5C 150.375,35.2177 157.042,36.7177 163.5,39C 174.079,51.5034 178.245,66.0034 176,82.5C 176.754,113.501 177.088,144.501 177,175.5C 173.712,177.522 170.878,180.022 168.5,183C 131.829,183.833 95.1621,183.667 58.5,182.5C 56.585,180.929 55.585,178.929 55.5,176.5C 53.6916,176.509 52.0249,176.009 50.5,175C 42.5,168.667 34.5,162.333 26.5,156C 22.8618,152.223 20.6951,147.723 20,142.5C 19.3333,102.833 19.3333,63.1667 20,23.5C 20.4765,15.8732 24.3098,11.2065 31.5,9.5 Z"/></g>
<g><path style="opacity:0.997" fill="#0c491a" d="M 127.5,19.5 C 130.13,21.6281 132.63,23.9614 135,26.5C 135.5,32.8246 135.666,39.1579 135.5,45.5C 143.167,45.5 150.833,45.5 158.5,45.5C 149.682,46.4933 140.682,46.8266 131.5,46.5C 131.5,45.1667 131.5,43.8333 131.5,42.5C 128.5,42.5 125.5,42.5 122.5,42.5C 122.5,43.8333 122.5,45.1667 122.5,46.5C 120.167,46.5 117.833,46.5 115.5,46.5C 114.37,42.6871 112.037,39.6871 108.5,37.5C 107.516,40.4281 107.183,43.4281 107.5,46.5C 106.5,46.5 105.5,46.5 104.5,46.5C 104.5,43.5 104.5,40.5 104.5,37.5C 101.833,37.5 99.1667,37.5 96.5,37.5C 96.5,40.5 96.5,43.5 96.5,46.5C 95.5,46.5 94.5,46.5 93.5,46.5C 93.81,43.2869 93.4767,40.2869 92.5,37.5C 90.1667,37.5 87.8333,37.5 85.5,37.5C 84.5233,40.2869 84.19,43.2869 84.5,46.5C 83.8333,46.5 83.1667,46.5 82.5,46.5C 82.5,46.1667 82.5,45.8333 82.5,45.5C 82.5,42.8333 82.5,40.1667 82.5,37.5C 79.8333,37.5 77.1667,37.5 74.5,37.5C 73.5386,39.2646 73.2053,41.2646 73.5,43.5C 72.8333,43.8333 72.1667,44.1667 71.5,44.5C 71.5,42.1667 71.5,39.8333 71.5,37.5C 68.8333,37.5 66.1667,37.5 63.5,37.5C 63.5,40.5 63.5,43.5 63.5,46.5C 62.7784,46.0825 62.2784,45.4158 62,44.5C 61.7216,45.4158 61.2216,46.0825 60.5,46.5C 60.5,43.5 60.5,40.5 60.5,37.5C 57.8333,37.5 55.1667,37.5 52.5,37.5C 52.5,40.5 52.5,43.5 52.5,46.5C 50.3085,47.8686 47.9752,48.8686 45.5,49.5C 42.5,49.5 39.5,49.5 36.5,49.5C 35.4341,48.3079 34.6008,48.6412 34,50.5C 33.5002,40.172 33.3335,29.8387 33.5,19.5C 64.8333,19.5 96.1667,19.5 127.5,19.5 Z"/></g>
<g><path style="opacity:1" fill="#ac7929" d="M 55.5,22.5 C 57.1667,22.5 58.8333,22.5 60.5,22.5C 60.5,25.1667 60.5,27.8333 60.5,30.5C 58.8561,30.7135 57.3561,30.3802 56,29.5C 55.5034,27.1902 55.3367,24.8568 55.5,22.5 Z"/></g>
<g><path style="opacity:1" fill="#ac7929" d="M 62.5,22.5 C 64.1667,22.5 65.8333,22.5 67.5,22.5C 67.5,25.1667 67.5,27.8333 67.5,30.5C 65.8561,30.7135 64.3561,30.3802 63,29.5C 62.5034,27.1902 62.3367,24.8568 62.5,22.5 Z"/></g>
<g><path style="opacity:1" fill="#bf7f2b" d="M 69.5,22.5 C 70.8333,22.5 72.1667,22.5 73.5,22.5C 73.5,25.1667 73.5,27.8333 73.5,30.5C 72.1667,30.5 70.8333,30.5 69.5,30.5C 69.5,27.8333 69.5,25.1667 69.5,22.5 Z"/></g>
<g><path style="opacity:1" fill="#a87829" d="M 76.5,22.5 C 77.8333,22.5 79.1667,22.5 80.5,22.5C 80.5,25.1667 80.5,27.8333 80.5,30.5C 78.8561,30.7135 77.3561,30.3802 76,29.5C 75.2967,27.0709 75.4634,24.7375 76.5,22.5 Z"/></g>
<g><path style="opacity:1" fill="#b27b2a" d="M 89.5,22.5 C 90.8333,22.5 92.1667,22.5 93.5,22.5C 93.5,25.1667 93.5,27.8333 93.5,30.5C 92.1667,30.5 90.8333,30.5 89.5,30.5C 89.5,27.8333 89.5,25.1667 89.5,22.5 Z"/></g>
<g><path style="opacity:1" fill="#be7f2b" d="M 102.5,22.5 C 103.833,22.5 105.167,22.5 106.5,22.5C 106.5,25.1667 106.5,27.8333 106.5,30.5C 105.167,30.5 103.833,30.5 102.5,30.5C 102.5,27.8333 102.5,25.1667 102.5,22.5 Z"/></g>
<g><path style="opacity:1" fill="#a77828" d="M 109.5,22.5 C 110.833,22.5 112.167,22.5 113.5,22.5C 113.5,25.1667 113.5,27.8333 113.5,30.5C 111.856,30.7135 110.356,30.3802 109,29.5C 108.297,27.0709 108.463,24.7375 109.5,22.5 Z"/></g>
<g><path style="opacity:1" fill="#be7f2b" d="M 115.5,22.5 C 116.833,22.5 118.167,22.5 119.5,22.5C 119.5,25.1667 119.5,27.8333 119.5,30.5C 118.167,30.5 116.833,30.5 115.5,30.5C 115.5,27.8333 115.5,25.1667 115.5,22.5 Z"/></g>
<g><path style="opacity:1" fill="#a37628" d="M 82.5,22.5 C 85.9304,21.7553 87.597,23.0886 87.5,26.5C 87.597,29.9114 85.9304,31.2447 82.5,30.5C 82.5,27.8333 82.5,25.1667 82.5,22.5 Z"/></g>
<g><path style="opacity:1" fill="#a47728" d="M 121.5,22.5 C 124.93,21.7553 126.597,23.0886 126.5,26.5C 126.597,29.9114 124.93,31.2447 121.5,30.5C 121.5,27.8333 121.5,25.1667 121.5,22.5 Z"/></g>
<g><path style="opacity:1" fill="#8e7026" d="M 42.5,29.5 C 41.5318,27.3926 41.1984,25.0593 41.5,22.5C 43.1667,22.5 44.8333,22.5 46.5,22.5C 46.5,25.1667 46.5,27.8333 46.5,30.5C 44.901,30.7678 43.5676,30.4345 42.5,29.5 Z"/></g>
<g><path style="opacity:1" fill="#cb822c" d="M 42.5,29.5 C 42.5,27.5 42.5,25.5 42.5,23.5C 43.5,23.5 44.5,23.5 45.5,23.5C 45.5,25.5 45.5,27.5 45.5,29.5C 44.5,29.5 43.5,29.5 42.5,29.5 Z"/></g>
<g><path style="opacity:1" fill="#8d7026" d="M 49.5,29.5 C 48.5318,27.3926 48.1984,25.0593 48.5,22.5C 50.1667,22.5 51.8333,22.5 53.5,22.5C 53.5,25.1667 53.5,27.8333 53.5,30.5C 51.901,30.7678 50.5676,30.4345 49.5,29.5 Z"/></g>
<g><path style="opacity:1" fill="#ca822c" d="M 49.5,29.5 C 49.5,27.5 49.5,25.5 49.5,23.5C 50.5,23.5 51.5,23.5 52.5,23.5C 52.5,25.5 52.5,27.5 52.5,29.5C 51.5,29.5 50.5,29.5 49.5,29.5 Z"/></g>
<g><path style="opacity:1" fill="#8e7026" d="M 96.5,29.5 C 95.5318,27.3926 95.1984,25.0593 95.5,22.5C 97.1667,22.5 98.8333,22.5 100.5,22.5C 100.5,25.1667 100.5,27.8333 100.5,30.5C 98.901,30.7678 97.5676,30.4345 96.5,29.5 Z"/></g>
<g><path style="opacity:1" fill="#ca822c" d="M 96.5,29.5 C 96.5,27.5 96.5,25.5 96.5,23.5C 97.5,23.5 98.5,23.5 99.5,23.5C 99.5,25.5 99.5,27.5 99.5,29.5C 98.5,29.5 97.5,29.5 96.5,29.5 Z"/></g>
<g><path style="opacity:1" fill="#b47b2a" d="M 37.5,35.5 C 40.1667,35.5 42.8333,35.5 45.5,35.5C 45.5,37.1667 45.5,38.8333 45.5,40.5C 42.5,40.5 39.5,40.5 36.5,40.5C 36.366,38.7085 36.6993,37.0418 37.5,35.5 Z"/></g>
<g><path style="opacity:1" fill="#b37a29" d="M 122.5,35.5 C 125.5,35.5 128.5,35.5 131.5,35.5C 131.5,37.1667 131.5,38.8333 131.5,40.5C 128.5,40.5 125.5,40.5 122.5,40.5C 122.5,38.8333 122.5,37.1667 122.5,35.5 Z"/></g>
<g><path style="opacity:1" fill="#cb8c3c" d="M 60.5,46.5 C 57.8333,46.5 55.1667,46.5 52.5,46.5C 52.5,43.5 52.5,40.5 52.5,37.5C 55.1667,37.5 57.8333,37.5 60.5,37.5C 60.5,40.5 60.5,43.5 60.5,46.5 Z"/></g>
<g><path style="opacity:1" fill="#b77f36" d="M 71.5,44.5 C 69.3647,46.369 66.6981,47.0356 63.5,46.5C 63.5,43.5 63.5,40.5 63.5,37.5C 66.1667,37.5 68.8333,37.5 71.5,37.5C 71.5,39.8333 71.5,42.1667 71.5,44.5 Z"/></g>
<g><path style="opacity:1" fill="#7b6a2d" d="M 85.5,37.5 C 85.5,40.1667 85.5,42.8333 85.5,45.5C 87.8333,45.5 90.1667,45.5 92.5,45.5C 92.5,42.8333 92.5,40.1667 92.5,37.5C 93.4767,40.2869 93.81,43.2869 93.5,46.5C 90.5,46.5 87.5,46.5 84.5,46.5C 84.19,43.2869 84.5233,40.2869 85.5,37.5 Z"/></g>
<g><path style="opacity:1" fill="#c08438" d="M 85.5,37.5 C 87.8333,37.5 90.1667,37.5 92.5,37.5C 92.5,40.1667 92.5,42.8333 92.5,45.5C 90.1667,45.5 87.8333,45.5 85.5,45.5C 85.5,42.8333 85.5,40.1667 85.5,37.5 Z"/></g>
<g><path style="opacity:1" fill="#af7a34" d="M 104.5,46.5 C 101.833,46.5 99.1667,46.5 96.5,46.5C 96.5,43.5 96.5,40.5 96.5,37.5C 99.1667,37.5 101.833,37.5 104.5,37.5C 104.5,40.5 104.5,43.5 104.5,46.5 Z"/></g>
<g><path style="opacity:1" fill="#aa7a34" d="M 115.5,46.5 C 112.833,46.5 110.167,46.5 107.5,46.5C 107.183,43.4281 107.516,40.4281 108.5,37.5C 112.037,39.6871 114.37,42.6871 115.5,46.5 Z"/></g>
<g><path style="opacity:1" fill="#b27b34" d="M 74.5,37.5 C 77.1667,37.5 79.8333,37.5 82.5,37.5C 82.5,40.1667 82.5,42.8333 82.5,45.5C 79.8333,45.5 77.1667,45.5 74.5,45.5C 74.5,42.8333 74.5,40.1667 74.5,37.5 Z"/></g>
<g><path style="opacity:1" fill="#916523" d="M 131.5,46.5 C 128.5,46.5 125.5,46.5 122.5,46.5C 122.5,45.1667 122.5,43.8333 122.5,42.5C 125.5,42.5 128.5,42.5 131.5,42.5C 131.5,43.8333 131.5,45.1667 131.5,46.5 Z"/></g>
<g><path style="opacity:1" fill="#6b6229" d="M 74.5,37.5 C 74.5,40.1667 74.5,42.8333 74.5,45.5C 77.1667,45.5 79.8333,45.5 82.5,45.5C 82.5,45.8333 82.5,46.1667 82.5,46.5C 79.5,46.5 76.5,46.5 73.5,46.5C 73.5,45.5 73.5,44.5 73.5,43.5C 73.2053,41.2646 73.5386,39.2646 74.5,37.5 Z"/></g>
<g><path style="opacity:1" fill="#af7829" d="M 36.5,42.5 C 39.5,42.5 42.5,42.5 45.5,42.5C 45.5,44.1667 45.5,45.8333 45.5,47.5C 42.5,47.5 39.5,47.5 36.5,47.5C 36.5,45.8333 36.5,44.1667 36.5,42.5 Z"/></g>
<g><path style="opacity:0.985" fill="#065722" d="M 158.5,45.5 C 161.167,45.5 163.833,45.5 166.5,45.5C 166.5,88.8333 166.5,132.167 166.5,175.5C 164.5,175.5 162.5,175.5 160.5,175.5C 160.389,174.883 160.056,174.383 159.5,174C 161.037,172.89 161.703,171.39 161.5,169.5C 161.5,139.833 161.5,110.167 161.5,80.5C 161.808,70.7801 161.474,61.1135 160.5,51.5C 130.336,50.1703 100.336,50.1703 70.5,51.5C 69.8333,51.8333 69.1667,52.1667 68.5,52.5C 68.1667,52.5 67.8333,52.5 67.5,52.5C 67.8333,51.8333 68.1667,51.1667 68.5,50.5C 70.1667,49.1667 71.8333,47.8333 73.5,46.5C 76.5,46.5 79.5,46.5 82.5,46.5C 83.1667,46.5 83.8333,46.5 84.5,46.5C 87.5,46.5 90.5,46.5 93.5,46.5C 94.5,46.5 95.5,46.5 96.5,46.5C 99.1667,46.5 101.833,46.5 104.5,46.5C 105.5,46.5 106.5,46.5 107.5,46.5C 110.167,46.5 112.833,46.5 115.5,46.5C 117.833,46.5 120.167,46.5 122.5,46.5C 125.5,46.5 128.5,46.5 131.5,46.5C 140.682,46.8266 149.682,46.4933 158.5,45.5 Z"/></g>
<g><path style="opacity:1" fill="#60481f" d="M 68.5,50.5 C 68.1667,51.1667 67.8333,51.8333 67.5,52.5C 66.8333,52.5 66.5,52.8333 66.5,53.5C 65.8333,53.8333 65.1667,54.1667 64.5,54.5C 63.5489,53.0813 63.2155,51.4147 63.5,49.5C 65.4147,49.2155 67.0813,49.5489 68.5,50.5 Z"/></g>
<g><path style="opacity:0.999" fill="#0b3a14" d="M 127.5,19.5 C 96.1667,19.5 64.8333,19.5 33.5,19.5C 33.3335,29.8387 33.5002,40.172 34,50.5C 34.6008,48.6412 35.4341,48.3079 36.5,49.5C 36.5,51.1667 36.5,52.8333 36.5,54.5C 39.5,54.5 42.5,54.5 45.5,54.5C 45.5,52.8333 45.5,51.1667 45.5,49.5C 47.9752,48.8686 50.3085,47.8686 52.5,46.5C 55.1667,46.5 57.8333,46.5 60.5,46.5C 61.2216,46.0825 61.7216,45.4158 62,44.5C 62.2784,45.4158 62.7784,46.0825 63.5,46.5C 66.6981,47.0356 69.3647,46.369 71.5,44.5C 72.1667,44.1667 72.8333,43.8333 73.5,43.5C 73.5,44.5 73.5,45.5 73.5,46.5C 71.8333,47.8333 70.1667,49.1667 68.5,50.5C 67.0813,49.5489 65.4147,49.2155 63.5,49.5C 63.2155,51.4147 63.5489,53.0813 64.5,54.5C 64.5,54.8333 64.5,55.1667 64.5,55.5C 63.596,56.209 63.2627,57.209 63.5,58.5C 62.71,57.3915 62.21,56.0581 62,54.5C 61.79,56.0581 61.29,57.3915 60.5,58.5C 60.5,55.5 60.5,52.5 60.5,49.5C 57.8333,49.5 55.1667,49.5 52.5,49.5C 52.5,52.5 52.5,55.5 52.5,58.5C 54.2191,59.0221 55.5525,60.0221 56.5,61.5C 55.1667,61.5 53.8333,61.5 52.5,61.5C 52.5,64.5 52.5,67.5 52.5,70.5C 53.8333,70.5 55.1667,70.5 56.5,70.5C 56.6107,71.1174 56.944,71.6174 57.5,72C 55.6183,72.1981 53.9516,72.6981 52.5,73.5C 51.9455,77.0122 52.6122,80.0122 54.5,82.5C 53.8333,83.5 53.1667,84.5 52.5,85.5C 51.9455,89.0122 52.6122,92.0122 54.5,94.5C 54.5,95.1667 54.5,95.8333 54.5,96.5C 52.6122,98.9878 51.9455,101.988 52.5,105.5C 53.1667,106.167 53.8333,106.833 54.5,107.5C 53.5084,107.328 52.8417,107.662 52.5,108.5C 52.5,111.167 52.5,113.833 52.5,116.5C 52.8417,117.338 53.5084,117.672 54.5,117.5C 54.8333,118.167 55.1667,118.833 55.5,119.5C 54.5,119.5 53.5,119.5 52.5,119.5C 52.5,122.5 52.5,125.5 52.5,128.5C 53.8333,128.5 55.1667,128.5 56.5,128.5C 56.8333,128.5 57.1667,128.5 57.5,128.5C 56.6644,131.539 56.9978,134.539 58.5,137.5C 57.5318,139.607 57.1984,141.941 57.5,144.5C 58.8333,144.5 60.1667,144.5 61.5,144.5C 60.147,145.526 59.147,146.859 58.5,148.5C 49.8333,148.5 41.1667,148.5 32.5,148.5C 32.5,105.167 32.5,61.8333 32.5,18.5C 64.3377,18.1685 96.0044,18.5018 127.5,19.5 Z"/></g>
<g><path style="opacity:1" fill="#aa7126" d="M 36.5,49.5 C 39.5,49.5 42.5,49.5 45.5,49.5C 45.5,51.1667 45.5,52.8333 45.5,54.5C 42.5,54.5 39.5,54.5 36.5,54.5C 36.5,52.8333 36.5,51.1667 36.5,49.5 Z"/></g>
<g><path style="opacity:1" fill="#93672c" d="M 60.5,58.5 C 57.8333,58.5 55.1667,58.5 52.5,58.5C 52.5,55.5 52.5,52.5 52.5,49.5C 55.1667,49.5 57.8333,49.5 60.5,49.5C 60.5,52.5 60.5,55.5 60.5,58.5 Z"/></g>
<g><path style="opacity:1" fill="#0e210d" d="M 63.5,58.5 C 63.5,88.5 63.5,118.5 63.5,148.5C 61.8333,148.5 60.1667,148.5 58.5,148.5C 59.147,146.859 60.147,145.526 61.5,144.5C 61.5,142.167 61.5,139.833 61.5,137.5C 60.5,137.5 59.5,137.5 58.5,137.5C 56.9978,134.539 56.6644,131.539 57.5,128.5C 58.5,128.5 59.5,128.5 60.5,128.5C 60.5,125.5 60.5,122.5 60.5,119.5C 58.8333,119.5 57.1667,119.5 55.5,119.5C 55.1667,118.833 54.8333,118.167 54.5,117.5C 56.5,117.5 58.5,117.5 60.5,117.5C 60.5,114.167 60.5,110.833 60.5,107.5C 58.5,107.5 56.5,107.5 54.5,107.5C 53.8333,106.833 53.1667,106.167 52.5,105.5C 55.1667,105.5 57.8333,105.5 60.5,105.5C 60.5,102.5 60.5,99.5 60.5,96.5C 58.5,96.5 56.5,96.5 54.5,96.5C 54.5,95.8333 54.5,95.1667 54.5,94.5C 56.5,94.5 58.5,94.5 60.5,94.5C 60.5,91.5 60.5,88.5 60.5,85.5C 57.8333,85.5 55.1667,85.5 52.5,85.5C 53.1667,84.5 53.8333,83.5 54.5,82.5C 56.5,82.5 58.5,82.5 60.5,82.5C 60.5,79.5 60.5,76.5 60.5,73.5C 57.8333,73.5 55.1667,73.5 52.5,73.5C 53.9516,72.6981 55.6183,72.1981 57.5,72C 56.944,71.6174 56.6107,71.1174 56.5,70.5C 57.8333,70.5 59.1667,70.5 60.5,70.5C 60.5,67.5 60.5,64.5 60.5,61.5C 59.1667,61.5 57.8333,61.5 56.5,61.5C 55.5525,60.0221 54.2191,59.0221 52.5,58.5C 55.1667,58.5 57.8333,58.5 60.5,58.5C 61.29,57.3915 61.79,56.0581 62,54.5C 62.21,56.0581 62.71,57.3915 63.5,58.5 Z"/></g>
<g><path style="opacity:1" fill="#00571f" d="M 66.5,53.5 C 66.1681,92.0036 66.5015,130.337 67.5,168.5C 67.8417,169.338 68.5084,169.672 69.5,169.5C 69.5,170.167 69.5,170.833 69.5,171.5C 69.4142,172.496 69.7476,173.329 70.5,174C 68.5273,174.495 66.5273,174.662 64.5,174.5C 64.5,134.833 64.5,95.1667 64.5,55.5C 64.5,55.1667 64.5,54.8333 64.5,54.5C 65.1667,54.1667 65.8333,53.8333 66.5,53.5 Z"/></g>
<g><path style="opacity:1" fill="#9b6923" d="M 36.5,56.5 C 39.5,56.5 42.5,56.5 45.5,56.5C 45.5,58.1667 45.5,59.8333 45.5,61.5C 42.5,61.5 39.5,61.5 36.5,61.5C 36.5,59.8333 36.5,58.1667 36.5,56.5 Z"/></g>
<g><path style="opacity:1" fill="#d3d3d8" d="M 70.5,51.5 C 74.8333,51.5 79.1667,51.5 83.5,51.5C 90.989,52.329 98.6557,52.829 106.5,53C 105.167,53.3333 103.833,53.6667 102.5,54C 104.473,54.4955 106.473,54.6621 108.5,54.5C 108.5,55.8333 108.5,57.1667 108.5,58.5C 110.857,58.3367 113.19,58.5034 115.5,59C 114.167,59.3333 112.833,59.6667 111.5,60C 116.033,61.6514 120.699,62.8181 125.5,63.5C 123.234,64.3142 120.9,64.8142 118.5,65C 119.167,65.3333 119.833,65.6667 120.5,66C 119.263,66.2321 118.263,66.7321 117.5,67.5C 116.957,67.56 116.624,67.8933 116.5,68.5C 118.223,70.8676 118.89,73.5342 118.5,76.5C 117.841,73.7172 116.675,71.0505 115,68.5C 114.814,71.0356 114.314,73.369 113.5,75.5C 112.375,73.1795 112.208,70.8462 113,68.5C 111.186,67.2404 109.353,67.2404 107.5,68.5C 108.376,69.2508 109.376,69.7508 110.5,70C 107.972,71.0174 107.972,72.1841 110.5,73.5C 109.007,74.1411 108.007,75.1411 107.5,76.5C 106.292,75.7659 104.959,75.4326 103.5,75.5C 104.059,73.3208 104.726,71.1542 105.5,69C 105.15,67.7425 104.483,67.4092 103.5,68C 102.929,69.2051 102.262,70.3717 101.5,71.5C 100.852,69.8508 99.8524,68.5175 98.5,67.5C 98.1667,68 97.8333,68.5 97.5,69C 98.4788,71.4333 99.1455,73.9333 99.5,76.5C 92.0377,77.7796 84.7044,77.7796 77.5,76.5C 76.5655,75.4324 76.2322,74.099 76.5,72.5C 73.8333,72.5 71.1667,72.5 68.5,72.5C 68.5,66.1667 68.5,59.8333 68.5,53.5C 68.5,53.1667 68.5,52.8333 68.5,52.5C 69.1667,52.1667 69.8333,51.8333 70.5,51.5 Z"/></g>
<g><path style="opacity:1" fill="#9ba3a5" d="M 70.5,51.5 C 100.336,50.1703 130.336,50.1703 160.5,51.5C 161.474,61.1135 161.808,70.7801 161.5,80.5C 160.518,77.0381 160.185,73.3714 160.5,69.5C 158.143,69.6633 155.81,69.4966 153.5,69C 154.938,68.7811 156.271,68.2811 157.5,67.5C 157,67.1667 156.5,66.8333 156,66.5C 151.983,64.8201 147.816,63.6534 143.5,63C 149.876,61.7141 149.542,60.7141 142.5,60C 143.833,59.6667 145.167,59.3333 146.5,59C 142.167,58.6667 137.833,58.3333 133.5,58C 137.5,57.3333 137.5,56.6667 133.5,56C 134.337,54.9887 134.67,53.8221 134.5,52.5C 117.524,51.573 100.524,51.2397 83.5,51.5C 79.1667,51.5 74.8333,51.5 70.5,51.5 Z"/></g>
<g><path style="opacity:1" fill="#c4c5ca" d="M 83.5,51.5 C 100.524,51.2397 117.524,51.573 134.5,52.5C 134.67,53.8221 134.337,54.9887 133.5,56C 137.5,56.6667 137.5,57.3333 133.5,58C 137.833,58.3333 142.167,58.6667 146.5,59C 145.167,59.3333 143.833,59.6667 142.5,60C 149.542,60.7141 149.876,61.7141 143.5,63C 147.816,63.6534 151.983,64.8201 156,66.5C 156.5,66.8333 157,67.1667 157.5,67.5C 156.271,68.2811 154.938,68.7811 153.5,69C 155.81,69.4966 158.143,69.6633 160.5,69.5C 160.185,73.3714 160.518,77.0381 161.5,80.5C 161.5,110.167 161.5,139.833 161.5,169.5C 161.167,169.5 160.833,169.5 160.5,169.5C 160.5,166.833 160.5,164.167 160.5,161.5C 160.5,152.833 160.5,144.167 160.5,135.5C 160.5,124.833 160.5,114.167 160.5,103.5C 160.828,98.1254 160.495,92.7921 159.5,87.5C 152.553,86.4049 145.553,85.5716 138.5,85C 142.5,84.6667 146.5,84.3333 150.5,84C 145.239,82.6145 139.906,81.6145 134.5,81C 136.167,80.6667 137.833,80.3333 139.5,80C 138.366,78.984 138.699,78.3173 140.5,78C 137.964,77.8138 135.631,77.3138 133.5,76.5C 135.144,76.7135 136.644,76.3802 138,75.5C 138.667,73.1667 138.667,70.8333 138,68.5C 136,67.1667 134,67.1667 132,68.5C 131.278,71.2605 131.445,73.9272 132.5,76.5C 131.833,76.5 131.167,76.5 130.5,76.5C 126.5,77.8333 122.5,77.8333 118.5,76.5C 120.388,74.0122 121.055,71.0122 120.5,67.5C 119.5,67.5 118.5,67.5 117.5,67.5C 118.263,66.7321 119.263,66.2321 120.5,66C 119.833,65.6667 119.167,65.3333 118.5,65C 120.9,64.8142 123.234,64.3142 125.5,63.5C 120.699,62.8181 116.033,61.6514 111.5,60C 112.833,59.6667 114.167,59.3333 115.5,59C 113.19,58.5034 110.857,58.3367 108.5,58.5C 108.5,57.1667 108.5,55.8333 108.5,54.5C 106.473,54.6621 104.473,54.4955 102.5,54C 103.833,53.6667 105.167,53.3333 106.5,53C 98.6557,52.829 90.989,52.329 83.5,51.5 Z"/></g>
<g><path style="opacity:1" fill="#946321" d="M 36.5,63.5 C 39.5,63.5 42.5,63.5 45.5,63.5C 45.5,65.1667 45.5,66.8333 45.5,68.5C 42.5,68.5 39.5,68.5 36.5,68.5C 36.5,66.8333 36.5,65.1667 36.5,63.5 Z"/></g>
<g><path style="opacity:1" fill="#65461d" d="M 56.5,61.5 C 57.8333,61.5 59.1667,61.5 60.5,61.5C 60.5,64.5 60.5,67.5 60.5,70.5C 59.1667,70.5 57.8333,70.5 56.5,70.5C 55.1667,70.5 53.8333,70.5 52.5,70.5C 52.5,67.5 52.5,64.5 52.5,61.5C 53.8333,61.5 55.1667,61.5 56.5,61.5 Z"/></g>
<g><path style="opacity:1" fill="#6c6c6c" d="M 77.5,76.5 C 77.5,73.5 77.5,70.5 77.5,67.5C 80.8595,66.7904 82.6929,68.1238 83,71.5C 83.49,70.2068 83.6567,68.8734 83.5,67.5C 84.5,67.5 85.5,67.5 86.5,67.5C 86.5,70.5 86.5,73.5 86.5,76.5C 84.0194,76.6766 82.1861,75.6766 81,73.5C 80.5172,74.448 80.3505,75.448 80.5,76.5C 79.5,76.5 78.5,76.5 77.5,76.5 Z"/></g>
<g><path style="opacity:1" fill="#676767" d="M 103.5,75.5 C 102.432,76.4345 101.099,76.7678 99.5,76.5C 99.1455,73.9333 98.4788,71.4333 97.5,69C 97.8333,68.5 98.1667,68 98.5,67.5C 99.8524,68.5175 100.852,69.8508 101.5,71.5C 102.262,70.3717 102.929,69.2051 103.5,68C 104.483,67.4092 105.15,67.7425 105.5,69C 104.726,71.1542 104.059,73.3208 103.5,75.5 Z"/></g>
<g><path style="opacity:1" fill="#606060" d="M 117.5,67.5 C 118.5,67.5 119.5,67.5 120.5,67.5C 121.055,71.0122 120.388,74.0122 118.5,76.5C 118.89,73.5342 118.223,70.8676 116.5,68.5C 116.624,67.8933 116.957,67.56 117.5,67.5 Z"/></g>
<g><path style="opacity:1" fill="#646464" d="M 133.5,76.5 C 133.167,76.5 132.833,76.5 132.5,76.5C 131.445,73.9272 131.278,71.2605 132,68.5C 134,67.1667 136,67.1667 138,68.5C 138.667,70.8333 138.667,73.1667 138,75.5C 136.644,76.3802 135.144,76.7135 133.5,76.5 Z"/></g>
<g><path style="opacity:1" fill="#6a6a6a" d="M 89.5,67.5 C 94.2357,67.2442 96.5691,69.5776 96.5,74.5C 96.1667,75.1667 95.8333,75.8333 95.5,76.5C 93.2012,73.9858 90.8679,73.9858 88.5,76.5C 88.1667,76 87.8333,75.5 87.5,75C 88.4788,72.5667 89.1455,70.0667 89.5,67.5 Z"/></g>
<g><path style="opacity:1" fill="#a3a4a7" d="M 133.5,69.5 C 134.5,69.5 135.5,69.5 136.5,69.5C 136.5,71.1667 136.5,72.8333 136.5,74.5C 135.5,74.5 134.5,74.5 133.5,74.5C 133.5,72.8333 133.5,71.1667 133.5,69.5 Z"/></g>
<g><path style="opacity:1" fill="#69696a" d="M 113.5,75.5 C 111.735,76.4614 109.735,76.7947 107.5,76.5C 108.007,75.1411 109.007,74.1411 110.5,73.5C 107.972,72.1841 107.972,71.0174 110.5,70C 109.376,69.7508 108.376,69.2508 107.5,68.5C 109.353,67.2404 111.186,67.2404 113,68.5C 112.208,70.8462 112.375,73.1795 113.5,75.5 Z"/></g>
<g><path style="opacity:1" fill="#686868" d="M 130.5,76.5 C 128.076,76.8076 125.743,76.4742 123.5,75.5C 124.833,73.8333 126.167,72.1667 127.5,70.5C 126.5,69.8333 125.5,69.1667 124.5,68.5C 131.004,67.163 132.004,68.9964 127.5,74C 129.119,74.2355 130.119,75.0689 130.5,76.5 Z"/></g>
<g><path style="opacity:1" fill="#8b6020" d="M 36.5,70.5 C 39.5,70.5 42.5,70.5 45.5,70.5C 45.5,72.1667 45.5,73.8333 45.5,75.5C 42.5,75.5 39.5,75.5 36.5,75.5C 36.5,73.8333 36.5,72.1667 36.5,70.5 Z"/></g>
<g><path style="opacity:1" fill="#64451d" d="M 52.5,73.5 C 55.1667,73.5 57.8333,73.5 60.5,73.5C 60.5,76.5 60.5,79.5 60.5,82.5C 58.5,82.5 56.5,82.5 54.5,82.5C 52.6122,80.0122 51.9455,77.0122 52.5,73.5 Z"/></g>
<g><path style="opacity:1" fill="#21673b" d="M 67.5,52.5 C 67.8333,52.5 68.1667,52.5 68.5,52.5C 68.5,52.8333 68.5,53.1667 68.5,53.5C 67.5015,91.663 67.1681,129.996 67.5,168.5C 66.5015,130.337 66.1681,92.0036 66.5,53.5C 66.5,52.8333 66.8333,52.5 67.5,52.5 Z"/></g>
<g><path style="opacity:1" fill="#8f6121" d="M 37.5,77.5 C 40.1667,77.5 42.8333,77.5 45.5,77.5C 45.5,79.1667 45.5,80.8333 45.5,82.5C 42.5,82.5 39.5,82.5 36.5,82.5C 36.366,80.7085 36.6993,79.0418 37.5,77.5 Z"/></g>
<g><path style="opacity:1" fill="#b4c1bc" d="M 68.5,53.5 C 68.5,59.8333 68.5,66.1667 68.5,72.5C 68.5,97.8333 68.5,123.167 68.5,148.5C 68.2045,155.588 68.5379,162.588 69.5,169.5C 68.5084,169.672 67.8417,169.338 67.5,168.5C 67.1681,129.996 67.5015,91.663 68.5,53.5 Z"/></g>
<g><path style="opacity:1" fill="#8f6121" d="M 36.5,84.5 C 39.5,84.5 42.5,84.5 45.5,84.5C 45.5,86.1667 45.5,87.8333 45.5,89.5C 42.5,89.5 39.5,89.5 36.5,89.5C 36.5,87.8333 36.5,86.1667 36.5,84.5 Z"/></g>
<g><path style="opacity:1" fill="#714e21" d="M 52.5,85.5 C 55.1667,85.5 57.8333,85.5 60.5,85.5C 60.5,88.5 60.5,91.5 60.5,94.5C 58.5,94.5 56.5,94.5 54.5,94.5C 52.6122,92.0122 51.9455,89.0122 52.5,85.5 Z"/></g>
<g><path style="opacity:1" fill="#946321" d="M 37.5,91.5 C 40.1667,91.5 42.8333,91.5 45.5,91.5C 45.5,93.1667 45.5,94.8333 45.5,96.5C 42.5,96.5 39.5,96.5 36.5,96.5C 36.366,94.7085 36.6993,93.0418 37.5,91.5 Z"/></g>
<g><path style="opacity:1" fill="#65461d" d="M 54.5,96.5 C 56.5,96.5 58.5,96.5 60.5,96.5C 60.5,99.5 60.5,102.5 60.5,105.5C 57.8333,105.5 55.1667,105.5 52.5,105.5C 51.9455,101.988 52.6122,98.9878 54.5,96.5 Z"/></g>
<g><path style="opacity:1" fill="#946321" d="M 36.5,99.5 C 39.5,99.5 42.5,99.5 45.5,99.5C 45.5,101.167 45.5,102.833 45.5,104.5C 42.8127,104.664 40.146,104.497 37.5,104C 36.6198,102.644 36.2865,101.144 36.5,99.5 Z"/></g>
<g><path style="opacity:1" fill="#cac9cd" d="M 84.5,99.5 C 87.5219,99.804 90.5219,100.304 93.5,101C 95.9302,101.643 97.5968,103.143 98.5,105.5C 99.8333,102.833 101.167,102.833 102.5,105.5C 103.251,104.624 103.751,103.624 104,102.5C 104.833,103.5 105.667,104.5 106.5,105.5C 107.386,104.675 107.719,103.675 107.5,102.5C 108.552,102.351 109.552,102.517 110.5,103C 109.748,103.671 109.414,104.504 109.5,105.5C 104.257,106.394 99.0902,106.727 94,106.5C 92.2462,104.886 90.2462,103.553 88,102.5C 87.6258,103.416 87.1258,104.25 86.5,105C 87.3081,105.308 87.9747,105.808 88.5,106.5C 87.3112,107.429 85.9778,107.762 84.5,107.5C 82.1294,106.658 79.7961,106.324 77.5,106.5C 78.0253,105.808 78.6919,105.308 79.5,105C 78.0439,104.577 77.5439,103.744 78,102.5C 80.4152,101.868 82.5819,100.868 84.5,99.5 Z"/></g>
<g><path style="opacity:1" fill="#e4e3e7" d="M 160.5,103.5 C 160.5,114.167 160.5,124.833 160.5,135.5C 146.148,135.98 131.815,136.48 117.5,137C 118.167,136.667 118.833,136.333 119.5,136C 115.167,135.667 110.833,135.333 106.5,135C 117.267,134.929 127.934,133.929 138.5,132C 134.721,131.094 130.888,130.594 127,130.5C 115.311,132.885 103.477,133.718 91.5,133C 99.5085,132.435 107.509,131.769 115.5,131C 114.833,130.667 114.167,130.333 113.5,130C 116.877,129.548 120.211,128.882 123.5,128C 116.425,126.584 109.092,125.417 101.5,124.5C 100.914,124.709 100.414,125.043 100,125.5C 98.6012,124.773 97.1012,124.273 95.5,124C 97.8333,123.667 100.167,123.333 102.5,123C 92.8083,122.247 83.1416,121.247 73.5,120C 77.5,119.667 81.5,119.333 85.5,119C 85.1667,118.667 84.8333,118.333 84.5,118C 87.9431,117.779 88.2764,116.779 85.5,115C 93.2875,114.812 100.954,113.812 108.5,112C 101.754,111.879 95.087,111.212 88.5,110C 89.5,109.667 90.5,109.333 91.5,109C 88.9644,108.814 86.631,108.314 84.5,107.5C 85.9778,107.762 87.3112,107.429 88.5,106.5C 87.9747,105.808 87.3081,105.308 86.5,105C 87.1258,104.25 87.6258,103.416 88,102.5C 90.2462,103.553 92.2462,104.886 94,106.5C 99.0902,106.727 104.257,106.394 109.5,105.5C 109.414,104.504 109.748,103.671 110.5,103C 109.552,102.517 108.552,102.351 107.5,102.5C 107.719,103.675 107.386,104.675 106.5,105.5C 105.667,104.5 104.833,103.5 104,102.5C 103.751,103.624 103.251,104.624 102.5,105.5C 101.167,102.833 99.8333,102.833 98.5,105.5C 97.5968,103.143 95.9302,101.643 93.5,101C 90.5219,100.304 87.5219,99.804 84.5,99.5C 82.1432,99.6633 79.8098,99.4966 77.5,99C 77.8333,98.6667 78.1667,98.3333 78.5,98C 76.8333,97.6667 75.1667,97.3333 73.5,97C 76.8333,96.6667 80.1667,96.3333 83.5,96C 83.1667,95.6667 82.8333,95.3333 82.5,95C 84.3817,94.8019 86.0484,94.3019 87.5,93.5C 88.0059,91.8946 88.6726,91.5613 89.5,92.5C 91.0478,93.7943 93.0478,94.4609 95.5,94.5C 97.6965,94.4954 99.6965,94.162 101.5,93.5C 99.5252,91.6381 99.1919,89.6381 100.5,87.5C 101.404,86.791 101.737,85.791 101.5,84.5C 111.213,83.5183 120.88,83.685 130.5,85C 123.167,85.3333 115.833,85.6667 108.5,86C 113.833,86.3333 119.167,86.6667 124.5,87C 125.328,87.9147 126.328,88.5814 127.5,89C 126.5,89.3333 125.5,89.6667 124.5,90C 131.861,90.6134 139.195,91.4467 146.5,92.5C 145.91,93.7989 144.91,94.6322 143.5,95C 146.167,95.3333 148.833,95.6667 151.5,96C 149.167,96.3333 146.833,96.6667 144.5,97C 146.883,97.065 147.55,97.8983 146.5,99.5C 149.747,100.65 153.08,101.483 156.5,102C 150.833,102.333 145.167,102.667 139.5,103C 146.492,103.5 153.492,103.666 160.5,103.5 Z"/></g>
<g><path style="opacity:1" fill="#bab9bc" d="M 109.5,105.5 C 111.048,105.179 111.715,104.179 111.5,102.5C 112.552,102.351 113.552,102.517 114.5,103C 113.346,103.914 113.513,104.747 115,105.5C 115.249,104.376 115.749,103.376 116.5,102.5C 118.742,101.913 120.909,101.579 123,101.5C 125.803,102.109 126.803,103.775 126,106.5C 124,106.5 122,106.5 120,106.5C 118.905,101.61 118.238,101.61 118,106.5C 115.062,106.222 112.228,105.888 109.5,105.5 Z"/></g>
<g><path style="opacity:1" fill="#976321" d="M 36.5,106.5 C 39.5,106.5 42.5,106.5 45.5,106.5C 45.5,107.833 45.5,109.167 45.5,110.5C 42.5,110.5 39.5,110.5 36.5,110.5C 36.5,109.167 36.5,107.833 36.5,106.5 Z"/></g>
<g><path style="opacity:1" fill="#4a3816" d="M 52.5,108.5 C 52.8417,107.662 53.5084,107.328 54.5,107.5C 56.5,107.5 58.5,107.5 60.5,107.5C 60.5,110.833 60.5,114.167 60.5,117.5C 58.5,117.5 56.5,117.5 54.5,117.5C 53.5084,117.672 52.8417,117.338 52.5,116.5C 53.8333,116.5 55.1667,116.5 56.5,116.5C 56.5,113.833 56.5,111.167 56.5,108.5C 55.1667,108.5 53.8333,108.5 52.5,108.5 Z"/></g>
<g><path style="opacity:1" fill="#845c29" d="M 52.5,108.5 C 53.8333,108.5 55.1667,108.5 56.5,108.5C 56.5,111.167 56.5,113.833 56.5,116.5C 55.1667,116.5 53.8333,116.5 52.5,116.5C 52.5,113.833 52.5,111.167 52.5,108.5 Z"/></g>
<g><path style="opacity:1" fill="#8e6121" d="M 36.5,113.5 C 39.5,113.5 42.5,113.5 45.5,113.5C 45.5,115.167 45.5,116.833 45.5,118.5C 42.5,118.5 39.5,118.5 36.5,118.5C 36.5,116.833 36.5,115.167 36.5,113.5 Z"/></g>
<g><path style="opacity:1" fill="#dedde2" d="M 118.5,76.5 C 122.5,77.8333 126.5,77.8333 130.5,76.5C 131.167,76.5 131.833,76.5 132.5,76.5C 132.833,76.5 133.167,76.5 133.5,76.5C 135.631,77.3138 137.964,77.8138 140.5,78C 138.699,78.3173 138.366,78.984 139.5,80C 137.833,80.3333 136.167,80.6667 134.5,81C 139.906,81.6145 145.239,82.6145 150.5,84C 146.5,84.3333 142.5,84.6667 138.5,85C 145.553,85.5716 152.553,86.4049 159.5,87.5C 160.495,92.7921 160.828,98.1254 160.5,103.5C 153.492,103.666 146.492,103.5 139.5,103C 145.167,102.667 150.833,102.333 156.5,102C 153.08,101.483 149.747,100.65 146.5,99.5C 147.55,97.8983 146.883,97.065 144.5,97C 146.833,96.6667 149.167,96.3333 151.5,96C 148.833,95.6667 146.167,95.3333 143.5,95C 144.91,94.6322 145.91,93.7989 146.5,92.5C 139.195,91.4467 131.861,90.6134 124.5,90C 125.5,89.6667 126.5,89.3333 127.5,89C 126.328,88.5814 125.328,87.9147 124.5,87C 119.167,86.6667 113.833,86.3333 108.5,86C 115.833,85.6667 123.167,85.3333 130.5,85C 120.88,83.685 111.213,83.5183 101.5,84.5C 101.737,85.791 101.404,86.791 100.5,87.5C 100.631,86.6236 100.298,85.9569 99.5,85.5C 97.5741,86.0606 95.5741,86.2273 93.5,86C 96.0443,88.2221 96.0443,90.3888 93.5,92.5C 95.0072,93.7388 96.1739,93.4054 97,91.5C 98.1096,93.0368 99.6096,93.7035 101.5,93.5C 99.6965,94.162 97.6965,94.4954 95.5,94.5C 93.0478,94.4609 91.0478,93.7943 89.5,92.5C 90.5754,93.5624 91.5754,93.5624 92.5,92.5C 91.7498,90.0698 91.4165,87.7365 91.5,85.5C 90.5224,85.9767 89.6891,86.6433 89,87.5C 85.8357,84.8246 85.0024,85.4912 86.5,89.5C 85.5382,93.281 84.2048,93.281 82.5,89.5C 85.3658,85.3432 84.6992,84.6765 80.5,87.5C 79.8333,86.8333 79.1667,86.1667 78.5,85.5C 78.2448,87.3435 78.0781,89.3435 78,91.5C 77.5,92 77,92.5 76.5,93C 78.1346,93.5396 79.4679,93.0396 80.5,91.5C 82.5225,93.1733 84.8559,93.8399 87.5,93.5C 86.0484,94.3019 84.3817,94.8019 82.5,95C 82.8333,95.3333 83.1667,95.6667 83.5,96C 80.1667,96.3333 76.8333,96.6667 73.5,97C 75.1667,97.3333 76.8333,97.6667 78.5,98C 78.1667,98.3333 77.8333,98.6667 77.5,99C 79.8098,99.4966 82.1432,99.6633 84.5,99.5C 82.5819,100.868 80.4152,101.868 78,102.5C 77.5439,103.744 78.0439,104.577 79.5,105C 78.6919,105.308 78.0253,105.808 77.5,106.5C 79.7961,106.324 82.1294,106.658 84.5,107.5C 86.631,108.314 88.9644,108.814 91.5,109C 90.5,109.333 89.5,109.667 88.5,110C 95.087,111.212 101.754,111.879 108.5,112C 100.954,113.812 93.2875,114.812 85.5,115C 88.2764,116.779 87.9431,117.779 84.5,118C 84.8333,118.333 85.1667,118.667 85.5,119C 81.5,119.333 77.5,119.667 73.5,120C 83.1416,121.247 92.8083,122.247 102.5,123C 100.167,123.333 97.8333,123.667 95.5,124C 97.1012,124.273 98.6012,124.773 100,125.5C 100.414,125.043 100.914,124.709 101.5,124.5C 109.092,125.417 116.425,126.584 123.5,128C 120.211,128.882 116.877,129.548 113.5,130C 114.167,130.333 114.833,130.667 115.5,131C 107.509,131.769 99.5085,132.435 91.5,133C 103.477,133.718 115.311,132.885 127,130.5C 130.888,130.594 134.721,131.094 138.5,132C 127.934,133.929 117.267,134.929 106.5,135C 110.833,135.333 115.167,135.667 119.5,136C 118.833,136.333 118.167,136.667 117.5,137C 131.815,136.48 146.148,135.98 160.5,135.5C 160.5,144.167 160.5,152.833 160.5,161.5C 146.834,161.637 133.501,162.804 120.5,165C 114.833,165.667 109.167,165.667 103.5,165C 105.5,164.667 107.5,164.333 109.5,164C 99.8333,163 90.1667,162 80.5,161C 80.1667,160.667 79.8333,160.333 79.5,160C 81.8333,159.667 84.1667,159.333 86.5,159C 82.0086,157.204 77.342,155.87 72.5,155C 76.5,154.333 76.5,153.667 72.5,153C 74.9368,151.625 77.6035,151.125 80.5,151.5C 80.5,150.5 80.5,149.5 80.5,148.5C 76.5,148.5 72.5,148.5 68.5,148.5C 68.5,123.167 68.5,97.8333 68.5,72.5C 71.1667,72.5 73.8333,72.5 76.5,72.5C 76.2322,74.099 76.5655,75.4324 77.5,76.5C 84.7044,77.7796 92.0377,77.7796 99.5,76.5C 101.099,76.7678 102.432,76.4345 103.5,75.5C 104.959,75.4326 106.292,75.7659 107.5,76.5C 109.735,76.7947 111.735,76.4614 113.5,75.5C 114.314,73.369 114.814,71.0356 115,68.5C 116.675,71.0505 117.841,73.7172 118.5,76.5 Z"/></g>
<g><path style="opacity:1" fill="#6e6e6e" d="M 100.5,87.5 C 99.1919,89.6381 99.5252,91.6381 101.5,93.5C 99.6096,93.7035 98.1096,93.0368 97,91.5C 96.1739,93.4054 95.0072,93.7388 93.5,92.5C 96.0443,90.3888 96.0443,88.2221 93.5,86C 95.5741,86.2273 97.5741,86.0606 99.5,85.5C 100.298,85.9569 100.631,86.6236 100.5,87.5 Z"/></g>
<g><path style="opacity:1" fill="#6d6d6e" d="M 89.5,92.5 C 88.6726,91.5613 88.0059,91.8946 87.5,93.5C 84.8559,93.8399 82.5225,93.1733 80.5,91.5C 79.4679,93.0396 78.1346,93.5396 76.5,93C 77,92.5 77.5,92 78,91.5C 78.0781,89.3435 78.2448,87.3435 78.5,85.5C 79.1667,86.1667 79.8333,86.8333 80.5,87.5C 84.6992,84.6765 85.3658,85.3432 82.5,89.5C 84.2048,93.281 85.5382,93.281 86.5,89.5C 85.0024,85.4912 85.8357,84.8246 89,87.5C 89.6891,86.6433 90.5224,85.9767 91.5,85.5C 91.4165,87.7365 91.7498,90.0698 92.5,92.5C 91.5754,93.5624 90.5754,93.5624 89.5,92.5 Z"/></g>
<g><path style="opacity:1" fill="#553a17" d="M 55.5,119.5 C 57.1667,119.5 58.8333,119.5 60.5,119.5C 60.5,122.5 60.5,125.5 60.5,128.5C 59.5,128.5 58.5,128.5 57.5,128.5C 57.1667,128.5 56.8333,128.5 56.5,128.5C 55.1667,128.5 53.8333,128.5 52.5,128.5C 52.5,125.5 52.5,122.5 52.5,119.5C 53.5,119.5 54.5,119.5 55.5,119.5 Z"/></g>
<g><path style="opacity:1" fill="#906221" d="M 36.5,121.5 C 39.5,121.5 42.5,121.5 45.5,121.5C 45.5,123.167 45.5,124.833 45.5,126.5C 42.5,126.5 39.5,126.5 36.5,126.5C 36.5,124.833 36.5,123.167 36.5,121.5 Z"/></g>
<g><path style="opacity:1" fill="#7d5827" d="M 55.5,119.5 C 56.4025,122.391 56.7359,125.391 56.5,128.5C 56.7359,125.391 56.4025,122.391 55.5,119.5 Z"/></g>
<g><path style="opacity:1" fill="#926321" d="M 37.5,128.5 C 40.1667,128.5 42.8333,128.5 45.5,128.5C 45.5,130.167 45.5,131.833 45.5,133.5C 42.5,133.5 39.5,133.5 36.5,133.5C 36.366,131.708 36.6993,130.042 37.5,128.5 Z"/></g>
<g><path style="opacity:1" fill="#664217" d="M 58.5,137.5 C 59.5,137.5 60.5,137.5 61.5,137.5C 61.5,139.833 61.5,142.167 61.5,144.5C 60.1667,144.5 58.8333,144.5 57.5,144.5C 57.1984,141.941 57.5318,139.607 58.5,137.5 Z"/></g>
<g><path style="opacity:1" fill="#986422" d="M 43.5,137.5 C 44.8333,137.5 46.1667,137.5 47.5,137.5C 47.5,139.833 47.5,142.167 47.5,144.5C 46.1667,144.5 44.8333,144.5 43.5,144.5C 43.5,142.167 43.5,139.833 43.5,137.5 Z"/></g>
<g><path style="opacity:1" fill="#835b1f" d="M 50.5,137.5 C 51.8333,137.5 53.1667,137.5 54.5,137.5C 54.5,140.167 54.5,142.833 54.5,145.5C 53.1667,145.5 51.8333,145.5 50.5,145.5C 50.5,142.833 50.5,140.167 50.5,137.5 Z"/></g>
<g><path style="opacity:1" fill="#c1c0c4" d="M 136.5,142.5 C 140.519,137.674 145.185,137.174 150.5,141C 156.341,148.128 155.341,154.128 147.5,159C 136.502,160.333 132.002,155.5 134,144.5C 134.708,143.619 135.542,142.953 136.5,142.5 Z"/></g>
<g><path style="opacity:1" fill="#dedde2" d="M 136.5,142.5 C 138.094,142.08 139.594,141.414 141,140.5C 144.817,144.12 147.651,148.453 149.5,153.5C 145.5,154.833 141.5,154.833 137.5,153.5C 138.64,151.922 139.14,150.256 139,148.5C 137.748,150.001 136.748,151.668 136,153.5C 134.954,152.228 134.454,150.728 134.5,149C 134.482,146.558 135.149,144.392 136.5,142.5 Z"/></g>
<g><path style="opacity:1" fill="#c7c9cd" d="M 68.5,148.5 C 72.5,148.5 76.5,148.5 80.5,148.5C 80.5,149.5 80.5,150.5 80.5,151.5C 77.6035,151.125 74.9368,151.625 72.5,153C 76.5,153.667 76.5,154.333 72.5,155C 77.342,155.87 82.0086,157.204 86.5,159C 84.1667,159.333 81.8333,159.667 79.5,160C 79.8333,160.333 80.1667,160.667 80.5,161C 90.1667,162 99.8333,163 109.5,164C 107.5,164.333 105.5,164.667 103.5,165C 109.167,165.667 114.833,165.667 120.5,165C 133.501,162.804 146.834,161.637 160.5,161.5C 160.5,164.167 160.5,166.833 160.5,169.5C 160.672,170.492 160.338,171.158 159.5,171.5C 129.833,171.5 100.167,171.5 70.5,171.5C 70.1667,171.5 69.8333,171.5 69.5,171.5C 69.5,170.833 69.5,170.167 69.5,169.5C 68.5379,162.588 68.2045,155.588 68.5,148.5 Z"/></g>
<g><path style="opacity:0.886" fill="#034a1b" d="M 64.5,55.5 C 64.5,95.1667 64.5,134.833 64.5,174.5C 66.5273,174.662 68.5273,174.495 70.5,174C 69.7476,173.329 69.4142,172.496 69.5,171.5C 69.8333,171.5 70.1667,171.5 70.5,171.5C 70.6107,172.117 70.944,172.617 71.5,173C 100.5,173.667 129.5,173.667 158.5,173C 159.056,172.617 159.389,172.117 159.5,171.5C 160.338,171.158 160.672,170.492 160.5,169.5C 160.833,169.5 161.167,169.5 161.5,169.5C 161.703,171.39 161.037,172.89 159.5,174C 160.056,174.383 160.389,174.883 160.5,175.5C 128.167,175.5 95.8333,175.5 63.5,175.5C 63.5,166.5 63.5,157.5 63.5,148.5C 63.5,118.5 63.5,88.5 63.5,58.5C 63.2627,57.209 63.596,56.209 64.5,55.5 Z"/></g>
<g><path style="opacity:1" fill="#003814" d="M 70.5,171.5 C 100.167,171.5 129.833,171.5 159.5,171.5C 159.389,172.117 159.056,172.617 158.5,173C 129.5,173.667 100.5,173.667 71.5,173C 70.944,172.617 70.6107,172.117 70.5,171.5 Z"/></g>
<g><path style="opacity:0.078" fill="#404042" d="M 60.5,177.5 C 64.0187,176.192 67.6853,176.192 71.5,177.5C 67.7897,178.758 64.123,178.758 60.5,177.5 Z"/></g>
<g><path style="opacity:0.101" fill="#444446" d="M 81.5,176.5 C 109.835,176.333 138.169,176.5 166.5,177C 152.316,178.16 137.983,178.66 123.5,178.5C 109.15,178.499 95.1504,177.833 81.5,176.5 Z"/></g>
</svg>
