<?xml version="1.0" encoding="UTF-8"?>
<!DOCTYPE svg PUBLIC "-//W3C//DTD SVG 1.1//EN" "http://www.w3.org/Graphics/SVG/1.1/DTD/svg11.dtd">
<svg xmlns="http://www.w3.org/2000/svg" version="1.1" width="850px" height="567px" style="shape-rendering:geometricPrecision; text-rendering:geometricPrecision; image-rendering:optimizeQuality; fill-rule:evenodd; clip-rule:evenodd" xmlns:xlink="http://www.w3.org/1999/xlink">
<g><path style="opacity:0.906" fill="#a8a7a6" d="M 360.5,117.5 C 357.833,117.5 355.167,117.5 352.5,117.5C 355.049,115.395 357.715,115.395 360.5,117.5 Z"/></g>
<g><path style="opacity:1" fill="#3b3a37" d="M 352.5,117.5 C 355.167,117.5 357.833,117.5 360.5,117.5C 362.099,117.232 363.432,117.566 364.5,118.5C 366.905,119.768 369.572,120.435 372.5,120.5C 374.905,121.768 377.572,122.435 380.5,122.5C 396.542,127.26 412.875,131.26 429.5,134.5C 432.428,134.565 435.095,135.232 437.5,136.5C 439.905,137.768 442.572,138.435 445.5,138.5C 461.542,143.26 477.875,147.26 494.5,150.5C 500.094,151.232 505.427,152.565 510.5,154.5C 513.219,155.913 516.219,156.58 519.5,156.5C 521.292,156.366 522.958,156.699 524.5,157.5C 533.105,160.902 542.105,163.236 551.5,164.5C 551.833,164.5 552.167,164.5 552.5,164.5C 554.515,165.924 556.848,166.59 559.5,166.5C 562.428,166.565 565.095,167.232 567.5,168.5C 569.905,169.768 572.572,170.435 575.5,170.5C 591.542,175.26 607.875,179.26 624.5,182.5C 626.905,183.768 629.572,184.435 632.5,184.5C 637.573,186.435 642.906,187.768 648.5,188.5C 651.781,188.42 654.781,189.087 657.5,190.5C 665.164,193.416 673.164,195.416 681.5,196.5C 692.427,198.565 703.093,201.232 713.5,204.5C 715.905,205.768 718.572,206.435 721.5,206.5C 726.573,208.435 731.906,209.768 737.5,210.5C 737.5,210.833 737.5,211.167 737.5,211.5C 729.522,212.703 721.522,212.703 713.5,211.5C 709.78,211.616 706.113,212.116 702.5,213C 698.618,218.955 700.618,221.788 708.5,221.5C 708.611,222.117 708.944,222.617 709.5,223C 638.459,256.149 567.126,289.149 495.5,322C 493.866,322.494 492.199,322.66 490.5,322.5C 363.738,291.81 237.072,260.81 110.5,229.5C 110.5,229.167 110.5,228.833 110.5,228.5C 114.165,228.498 117.165,227.165 119.5,224.5C 123.836,224.163 127.503,222.496 130.5,219.5C 135.506,218.829 139.839,216.829 143.5,213.5C 148.506,212.829 152.839,210.829 156.5,207.5C 160.836,207.163 164.503,205.496 167.5,202.5C 172.506,201.829 176.839,199.829 180.5,196.5C 184.836,196.163 188.503,194.496 191.5,191.5C 196.506,190.829 200.839,188.829 204.5,185.5C 209.506,184.829 213.839,182.829 217.5,179.5C 222.506,178.829 226.839,176.829 230.5,173.5C 235.576,172.791 239.91,170.791 243.5,167.5C 248.506,166.829 252.839,164.829 256.5,161.5C 260.836,161.163 264.503,159.496 267.5,156.5C 271.836,156.163 275.503,154.496 278.5,151.5C 283.506,150.829 287.839,148.829 291.5,145.5C 296.506,144.829 300.839,142.829 304.5,139.5C 309.506,138.829 313.839,136.829 317.5,133.5C 321.105,133.201 324.439,132.035 327.5,130C 330.482,129.502 333.482,129.335 336.5,129.5C 343.803,132.207 351.136,131.874 358.5,128.5C 359.578,126.525 359.245,124.692 357.5,123C 354.69,122.218 352.023,121.384 349.5,120.5C 349.833,119.833 350.167,119.167 350.5,118.5C 350.842,117.662 351.508,117.328 352.5,117.5 Z"/></g>
<g><path style="opacity:0.016" fill="#c7c6c4" d="M 364.5,118.5 C 367.495,118.294 370.162,118.96 372.5,120.5C 369.572,120.435 366.905,119.768 364.5,118.5 Z"/></g>
<g><path style="opacity:0.016" fill="#c4c4c3" d="M 372.5,120.5 C 375.495,120.294 378.162,120.96 380.5,122.5C 377.572,122.435 374.905,121.768 372.5,120.5 Z"/></g>
<g><path style="opacity:0.294" fill="#a5a5a4" d="M 350.5,118.5 C 350.167,119.167 349.833,119.833 349.5,120.5C 347.262,123.364 344.262,124.697 340.5,124.5C 344.155,123.007 347.488,121.007 350.5,118.5 Z"/></g>
<g><path style="opacity:0.02" fill="#b6b5b4" d="M 380.5,122.5 C 397.125,125.74 413.458,129.74 429.5,134.5C 412.875,131.26 396.542,127.26 380.5,122.5 Z"/></g>
<g><path style="opacity:0.953" fill="#848382" d="M 340.5,124.5 C 340.027,125.906 339.027,126.573 337.5,126.5C 337.973,125.094 338.973,124.427 340.5,124.5 Z"/></g>
<g><path style="opacity:1" fill="#272725" d="M 349.5,120.5 C 352.023,121.384 354.69,122.218 357.5,123C 359.245,124.692 359.578,126.525 358.5,128.5C 351.136,131.874 343.803,132.207 336.5,129.5C 337.11,128.609 337.443,127.609 337.5,126.5C 339.027,126.573 340.027,125.906 340.5,124.5C 344.262,124.697 347.262,123.364 349.5,120.5 Z"/></g>
<g><path style="opacity:1" fill="#0c0d0c" d="M 343.5,125.5 C 346.157,125.162 348.49,125.829 350.5,127.5C 348.05,129.867 345.05,130.867 341.5,130.5C 341.365,128.446 342.032,126.779 343.5,125.5 Z"/></g>
<g><path style="opacity:0.988" fill="#929190" d="M 337.5,126.5 C 337.443,127.609 337.11,128.609 336.5,129.5C 333.482,129.335 330.482,129.502 327.5,130C 324.439,132.035 321.105,133.201 317.5,133.5C 319.273,132.108 321.273,130.941 323.5,130C 328.374,129.232 333.041,128.065 337.5,126.5 Z"/></g>
<g><path style="opacity:0.02" fill="#c5c4c2" d="M 437.5,136.5 C 440.495,136.294 443.162,136.96 445.5,138.5C 442.572,138.435 439.905,137.768 437.5,136.5 Z"/></g>
<g><path style="opacity:0.992" fill="#7d7c7a" d="M 317.5,133.5 C 313.839,136.829 309.506,138.829 304.5,139.5C 308.405,136.716 312.738,134.716 317.5,133.5 Z"/></g>
<g><path style="opacity:0.016" fill="#b6b6b5" d="M 445.5,138.5 C 462.125,141.74 478.458,145.74 494.5,150.5C 477.875,147.26 461.542,143.26 445.5,138.5 Z"/></g>
<g><path style="opacity:0.992" fill="#7a7977" d="M 304.5,139.5 C 300.839,142.829 296.506,144.829 291.5,145.5C 295.405,142.716 299.738,140.716 304.5,139.5 Z"/></g>
<g><path style="opacity:0.992" fill="#797876" d="M 291.5,145.5 C 287.839,148.829 283.506,150.829 278.5,151.5C 282.405,148.716 286.738,146.716 291.5,145.5 Z"/></g>
<g><path style="opacity:0.016" fill="#c7c7c5" d="M 510.5,154.5 C 513.781,154.42 516.781,155.087 519.5,156.5C 516.219,156.58 513.219,155.913 510.5,154.5 Z"/></g>
<g><path style="opacity:0.992" fill="#777775" d="M 278.5,151.5 C 275.503,154.496 271.836,156.163 267.5,156.5C 270.74,154.049 274.407,152.382 278.5,151.5 Z"/></g>
<g><path style="opacity:0.533" fill="#b3b3b2" d="M 524.5,157.5 C 533.726,159.389 542.726,161.722 551.5,164.5C 542.105,163.236 533.105,160.902 524.5,157.5 Z"/></g>
<g><path style="opacity:0.992" fill="#7d7c7a" d="M 267.5,156.5 C 264.503,159.496 260.836,161.163 256.5,161.5C 259.74,159.049 263.407,157.382 267.5,156.5 Z"/></g>
<g><path style="opacity:0.988" fill="#80807e" d="M 256.5,161.5 C 252.839,164.829 248.506,166.829 243.5,167.5C 247.405,164.716 251.738,162.716 256.5,161.5 Z"/></g>
<g><path style="opacity:0.008" fill="#d5d5d3" d="M 552.5,164.5 C 555.152,164.41 557.485,165.076 559.5,166.5C 556.848,166.59 554.515,165.924 552.5,164.5 Z"/></g>
<g><path style="opacity:0.012" fill="#c6c4c5" d="M 567.5,168.5 C 570.495,168.294 573.162,168.96 575.5,170.5C 572.572,170.435 569.905,169.768 567.5,168.5 Z"/></g>
<g><path style="opacity:0.012" fill="#bab9b8" d="M 575.5,170.5 C 592.13,173.741 608.463,177.741 624.5,182.5C 607.875,179.26 591.542,175.26 575.5,170.5 Z"/></g>
<g><path style="opacity:0.996" fill="#777674" d="M 243.5,167.5 C 239.91,170.791 235.576,172.791 230.5,173.5C 234.416,170.743 238.75,168.743 243.5,167.5 Z"/></g>
<g><path style="opacity:0.992" fill="#7a7978" d="M 230.5,173.5 C 226.839,176.829 222.506,178.829 217.5,179.5C 221.405,176.716 225.738,174.716 230.5,173.5 Z"/></g>
<g><path style="opacity:0.008" fill="#cccccb" d="M 624.5,182.5 C 627.495,182.294 630.162,182.96 632.5,184.5C 629.572,184.435 626.905,183.768 624.5,182.5 Z"/></g>
<g><path style="opacity:0.992" fill="#797876" d="M 217.5,179.5 C 213.839,182.829 209.506,184.829 204.5,185.5C 208.405,182.716 212.738,180.716 217.5,179.5 Z"/></g>
<g><path style="opacity:0.016" fill="#c5c5c3" d="M 632.5,184.5 C 638.17,184.917 643.503,186.251 648.5,188.5C 642.906,187.768 637.573,186.435 632.5,184.5 Z"/></g>
<g><path style="opacity:0.992" fill="#757472" d="M 204.5,185.5 C 200.839,188.829 196.506,190.829 191.5,191.5C 195.405,188.716 199.738,186.716 204.5,185.5 Z"/></g>
<g><path style="opacity:0.004" fill="#bbbbba" d="M 657.5,190.5 C 665.76,191.898 673.76,193.898 681.5,196.5C 673.164,195.416 665.164,193.416 657.5,190.5 Z"/></g>
<g><path style="opacity:0.992" fill="#757473" d="M 191.5,191.5 C 188.503,194.496 184.836,196.163 180.5,196.5C 183.74,194.049 187.407,192.382 191.5,191.5 Z"/></g>
<g><path style="opacity:0.992" fill="#797876" d="M 180.5,196.5 C 176.839,199.829 172.506,201.829 167.5,202.5C 171.405,199.716 175.738,197.716 180.5,196.5 Z"/></g>
<g><path style="opacity:0.016" fill="#c3c3c2" d="M 713.5,204.5 C 716.495,204.294 719.162,204.96 721.5,206.5C 718.572,206.435 715.905,205.768 713.5,204.5 Z"/></g>
<g><path style="opacity:0.996" fill="#787774" d="M 167.5,202.5 C 164.503,205.496 160.836,207.163 156.5,207.5C 159.74,205.049 163.407,203.382 167.5,202.5 Z"/></g>
<g><path style="opacity:0.02" fill="#bab9b9" d="M 721.5,206.5 C 727.17,206.917 732.503,208.251 737.5,210.5C 731.906,209.768 726.573,208.435 721.5,206.5 Z"/></g>
<g><path style="opacity:0.992" fill="#7a7a78" d="M 156.5,207.5 C 152.839,210.829 148.506,212.829 143.5,213.5C 147.405,210.716 151.738,208.716 156.5,207.5 Z"/></g>
<g><path style="opacity:1" fill="#1c1d1c" d="M 737.5,211.5 C 737.5,211.833 737.5,212.167 737.5,212.5C 737.5,213.167 737.5,213.833 737.5,214.5C 735.631,216.635 734.964,219.302 735.5,222.5C 734.127,222.343 732.793,222.51 731.5,223C 730.252,224.959 728.585,226.459 726.5,227.5C 724.57,224.128 723.404,220.461 723,216.5C 721.152,213.959 718.652,212.959 715.5,213.5C 716.348,215.481 716.848,217.481 717,219.5C 714.379,220.991 711.545,221.658 708.5,221.5C 700.618,221.788 698.618,218.955 702.5,213C 706.113,212.116 709.78,211.616 713.5,211.5C 721.522,212.703 729.522,212.703 737.5,211.5 Z"/></g>
<g><path style="opacity:0.996" fill="#797876" d="M 143.5,213.5 C 139.839,216.829 135.506,218.829 130.5,219.5C 134.405,216.716 138.738,214.716 143.5,213.5 Z"/></g>
<g><path style="opacity:0.992" fill="#787876" d="M 130.5,219.5 C 127.503,222.496 123.836,224.163 119.5,224.5C 122.74,222.049 126.407,220.382 130.5,219.5 Z"/></g>
<g><path style="opacity:0.988" fill="#868583" d="M 119.5,224.5 C 117.165,227.165 114.165,228.498 110.5,228.5C 113.088,226.408 116.088,225.075 119.5,224.5 Z"/></g>
<g><path style="opacity:1" fill="#646b6e" d="M 358.5,239.5 C 360.564,239.687 362.564,240.187 364.5,241C 363.906,241.464 363.239,241.631 362.5,241.5C 358.167,241.5 353.833,241.5 349.5,241.5C 352.5,240.833 355.5,240.167 358.5,239.5 Z"/></g>
<g><path style="opacity:1" fill="#9da5a7" d="M 380.5,246.5 C 377.716,244.736 374.716,243.903 371.5,244C 372.416,244.278 373.082,244.778 373.5,245.5C 372.234,246.09 370.901,246.59 369.5,247C 372.311,247.911 375.144,248.744 378,249.5C 378.765,249.43 379.265,249.097 379.5,248.5C 378.167,250.167 378.167,251.833 379.5,253.5C 379.158,252.662 378.492,252.328 377.5,252.5C 377.158,251.662 376.492,251.328 375.5,251.5C 367.804,248.571 359.804,246.238 351.5,244.5C 350.228,244.57 349.062,244.903 348,245.5C 346.153,249.193 344.32,252.86 342.5,256.5C 341.833,256.5 341.167,256.5 340.5,256.5C 342.722,252.723 344.389,248.723 345.5,244.5C 344.5,244.5 343.5,244.5 342.5,244.5C 349.167,243.5 355.833,242.5 362.5,241.5C 363.239,241.631 363.906,241.464 364.5,241C 362.564,240.187 360.564,239.687 358.5,239.5C 356.173,239.753 354.173,239.086 352.5,237.5C 353.688,236.16 355.188,235.493 357,235.5C 362.79,237.694 368.79,239.36 375,240.5C 375.945,240.905 376.612,241.572 377,242.5C 379.064,241.409 381.231,241.242 383.5,242C 388.167,243.333 392.833,244.667 397.5,246C 394.414,248.063 391.581,247.897 389,245.5C 386.048,246.097 383.215,246.43 380.5,246.5 Z"/></g>
<g><path style="opacity:1" fill="#90979a" d="M 327.5,248.5 C 327.5,249.833 327.5,251.167 327.5,252.5C 324.482,254.463 321.149,254.963 317.5,254C 316.167,253 316.167,252 317.5,251C 321.157,250.95 324.49,250.117 327.5,248.5 Z"/></g>
<g><path style="opacity:1" fill="#b5bdbf" d="M 349.5,241.5 C 353.833,241.5 358.167,241.5 362.5,241.5C 355.833,242.5 349.167,243.5 342.5,244.5C 339.353,244.737 336.353,245.57 333.5,247C 329.5,249.667 329.5,252.333 333.5,255C 335.896,256.554 338.229,257.054 340.5,256.5C 341.167,256.5 341.833,256.5 342.5,256.5C 353.528,254.94 364.528,253.273 375.5,251.5C 376.492,251.328 377.158,251.662 377.5,252.5C 366.479,254.115 355.479,255.948 344.5,258C 356.746,260.464 368.413,258.964 379.5,253.5C 378.167,251.833 378.167,250.167 379.5,248.5C 377.483,247.471 375.483,246.471 373.5,245.5C 373.082,244.778 372.416,244.278 371.5,244C 374.716,243.903 377.716,244.736 380.5,246.5C 384.784,248.513 385.45,251.346 382.5,255C 369.483,261.334 355.817,263.001 341.5,260C 335.761,259.3 331.094,256.8 327.5,252.5C 327.5,251.167 327.5,249.833 327.5,248.5C 329.253,246.777 331.253,245.277 333.5,244C 338.656,242.038 343.989,241.205 349.5,241.5 Z"/></g>
<g><path style="opacity:1" fill="#464848" d="M 377.5,252.5 C 378.492,252.328 379.158,252.662 379.5,253.5C 368.413,258.964 356.746,260.464 344.5,258C 355.479,255.948 366.479,254.115 377.5,252.5 Z"/></g>
<g><path style="opacity:1" fill="#4c4c4c" d="M 373.5,245.5 C 375.483,246.471 377.483,247.471 379.5,248.5C 379.265,249.097 378.765,249.43 378,249.5C 375.144,248.744 372.311,247.911 369.5,247C 370.901,246.59 372.234,246.09 373.5,245.5 Z"/></g>
<g><path style="opacity:1" fill="#41403e" d="M 342.5,244.5 C 343.5,244.5 344.5,244.5 345.5,244.5C 344.389,248.723 342.722,252.723 340.5,256.5C 338.229,257.054 335.896,256.554 333.5,255C 329.5,252.333 329.5,249.667 333.5,247C 336.353,245.57 339.353,244.737 342.5,244.5 Z"/></g>
<g><path style="opacity:1" fill="#3e3e3c" d="M 375.5,251.5 C 364.528,253.273 353.528,254.94 342.5,256.5C 344.32,252.86 346.153,249.193 348,245.5C 349.062,244.903 350.228,244.57 351.5,244.5C 359.804,246.238 367.804,248.571 375.5,251.5 Z"/></g>
<g><path style="opacity:1" fill="#404546" d="M 356.5,244.5 C 359.024,243.2 361.691,243.2 364.5,244.5C 361.911,245.205 359.244,245.205 356.5,244.5 Z"/></g>
<g><path style="opacity:0.999" fill="#25292c" d="M 737.5,212.5 C 738.499,253.663 738.832,294.997 738.5,336.5C 737.341,338.25 735.674,339.25 733.5,339.5C 731.447,339.402 729.78,340.069 728.5,341.5C 726.151,343.341 723.485,344.674 720.5,345.5C 718.447,345.402 716.78,346.069 715.5,347.5C 709.357,350.737 703.024,353.737 696.5,356.5C 694.447,356.402 692.78,357.069 691.5,358.5C 689.819,360.008 687.819,361.008 685.5,361.5C 683.447,361.402 681.78,362.069 680.5,363.5C 680.158,364.338 679.492,364.672 678.5,364.5C 677.167,364.5 676.5,365.167 676.5,366.5C 672.099,363.472 667.099,361.806 661.5,361.5C 662.014,359.132 663.18,357.132 665,355.5C 665.604,357.686 666.77,357.852 668.5,356C 667.939,354.434 668.606,353.101 670.5,352C 672.797,351.982 675.131,352.149 677.5,352.5C 677.12,350.302 677.787,348.635 679.5,347.5C 682.179,347.673 684.513,348.673 686.5,350.5C 688.135,349.67 689.802,349.503 691.5,350C 690.359,349.259 690.359,348.425 691.5,347.5C 689.785,345.785 688.119,344.119 686.5,342.5C 683.703,337.92 682.87,332.92 684,327.5C 685.001,333.658 687.834,338.824 692.5,343C 696.334,345.037 700.001,344.704 703.5,342C 713.005,334.157 718.172,323.991 719,311.5C 720.684,302.8 718.517,295.3 712.5,289C 709.634,287.543 706.634,287.21 703.5,288C 706.106,288.792 708.106,290.292 709.5,292.5C 705.385,290.652 702.218,291.652 700,295.5C 699.617,294.944 699.117,294.611 698.5,294.5C 695.962,294.118 694.129,295.451 693,298.5C 692.392,296.934 691.558,295.6 690.5,294.5C 692.833,291.167 695.167,287.833 697.5,284.5C 699.312,284.229 700.978,283.562 702.5,282.5C 701.975,281.808 701.308,281.308 700.5,281C 694.708,281.093 689.208,280.259 684,278.5C 682.719,278.381 681.552,278.881 680.5,280C 682.119,280.236 683.119,281.069 683.5,282.5C 682.292,281.766 680.959,281.433 679.5,281.5C 679.719,282.675 679.386,283.675 678.5,284.5C 677.033,284.277 675.533,283.944 674,283.5C 673.311,284.357 672.478,285.023 671.5,285.5C 670.811,283.662 670.478,281.995 670.5,280.5C 669.585,282.98 668.085,283.647 666,282.5C 664.582,284.363 662.749,284.863 660.5,284C 674.878,271.891 688.545,259.391 701.5,246.5C 701.513,249.361 702.679,250.361 705,249.5C 706.651,252.221 708.318,252.554 710,250.5C 710.718,251.451 711.551,251.617 712.5,251C 709.342,248.691 709.176,246.524 712,244.5C 715.674,248.435 718.507,248.435 720.5,244.5C 723.309,244.852 725.642,246.018 727.5,248C 726.833,248.333 726.167,248.667 725.5,249C 728.464,249.84 728.797,250.84 726.5,252C 729.833,252.667 733.167,252.667 736.5,252C 734.403,250.354 732.736,248.354 731.5,246C 732.549,245.508 733.549,245.674 734.5,246.5C 734.998,247.603 735.331,248.603 735.5,249.5C 736.192,248.975 736.692,248.308 737,247.5C 737.5,236.505 737.667,225.505 737.5,214.5C 737.5,213.833 737.5,213.167 737.5,212.5 Z"/></g>
<g><path style="opacity:0.909" fill="#737170" d="M 110.5,228.5 C 110.5,228.833 110.5,229.167 110.5,229.5C 110.5,244.833 110.5,260.167 110.5,275.5C 110.167,275.5 109.833,275.5 109.5,275.5C 108.633,259.732 108.967,244.065 110.5,228.5 Z"/></g>
<g><path style="opacity:0.054" fill="#c5c6c8" d="M 737.5,210.5 C 738.117,210.611 738.617,210.944 739,211.5C 739.831,253.335 739.665,295.002 738.5,336.5C 738.832,294.997 738.499,253.663 737.5,212.5C 737.5,212.167 737.5,211.833 737.5,211.5C 737.5,211.167 737.5,210.833 737.5,210.5 Z"/></g>
<g><path style="opacity:1" fill="#1b1f22" d="M 697.5,284.5 C 693.01,283.465 689.176,284.798 686,288.5C 675.015,302.752 671.682,318.752 676,336.5C 677.603,339.612 679.437,342.612 681.5,345.5C 683.791,346.59 686.124,347.09 688.5,347C 686.963,345.89 686.297,344.39 686.5,342.5C 688.119,344.119 689.785,345.785 691.5,347.5C 690.359,348.425 690.359,349.259 691.5,350C 689.802,349.503 688.135,349.67 686.5,350.5C 684.513,348.673 682.179,347.673 679.5,347.5C 678.741,344.968 676.908,342.634 674,340.5C 672.333,337.5 670.667,334.5 669,331.5C 665.524,334.186 665.024,333.853 667.5,330.5C 666.282,329.197 666.615,328.197 668.5,327.5C 667.215,325.247 666.215,323.081 665.5,321C 666.416,320.626 667.25,320.126 668,319.5C 668.756,315.312 669.922,311.312 671.5,307.5C 670.167,306.5 668.833,305.5 667.5,304.5C 668.274,303.289 669.107,303.289 670,304.5C 672.028,301.039 673.528,297.373 674.5,293.5C 675.675,294.855 676.675,294.688 677.5,293C 676.044,292.577 675.544,291.744 676,290.5C 676.333,290.833 676.667,291.167 677,291.5C 679.202,290.598 681.368,289.598 683.5,288.5C 679.415,288.65 678.748,286.984 681.5,283.5C 682.711,284.274 682.711,285.107 681.5,286C 682.5,286.667 683.5,286.667 684.5,286C 683.663,284.989 683.33,283.822 683.5,282.5C 683.119,281.069 682.119,280.236 680.5,280C 681.552,278.881 682.719,278.381 684,278.5C 689.208,280.259 694.708,281.093 700.5,281C 701.308,281.308 701.975,281.808 702.5,282.5C 700.978,283.562 699.312,284.229 697.5,284.5 Z"/></g>
<g><path style="opacity:1" fill="#0e0f0f" d="M 697.5,284.5 C 695.167,287.833 692.833,291.167 690.5,294.5C 685.706,300.98 683.039,308.313 682.5,316.5C 682.457,319.91 682.957,323.243 684,326.5C 684.219,325.062 684.719,323.729 685.5,322.5C 686.308,322.808 686.975,323.308 687.5,324C 686.41,329.531 687.743,334.531 691.5,339C 699.811,340.261 705.977,337.094 710,329.5C 716.238,318.087 716.905,306.421 712,294.5C 711.292,293.619 710.458,292.953 709.5,292.5C 708.106,290.292 706.106,288.792 703.5,288C 706.634,287.21 709.634,287.543 712.5,289C 718.517,295.3 720.684,302.8 719,311.5C 718.172,323.991 713.005,334.157 703.5,342C 700.001,344.704 696.334,345.037 692.5,343C 687.834,338.824 685.001,333.658 684,327.5C 682.87,332.92 683.703,337.92 686.5,342.5C 686.297,344.39 686.963,345.89 688.5,347C 686.124,347.09 683.791,346.59 681.5,345.5C 679.437,342.612 677.603,339.612 676,336.5C 671.682,318.752 675.015,302.752 686,288.5C 689.176,284.798 693.01,283.465 697.5,284.5 Z"/></g>
<g><path style="opacity:1" fill="#2b2f33" d="M 709.5,292.5 C 710.458,292.953 711.292,293.619 712,294.5C 716.905,306.421 716.238,318.087 710,329.5C 705.977,337.094 699.811,340.261 691.5,339C 687.743,334.531 686.41,329.531 687.5,324C 686.975,323.308 686.308,322.808 685.5,322.5C 684.719,323.729 684.219,325.062 684,326.5C 682.957,323.243 682.457,319.91 682.5,316.5C 683.712,315.77 684.712,314.77 685.5,313.5C 686.167,315.167 686.833,316.833 687.5,318.5C 689.483,316.19 690.483,313.523 690.5,310.5C 692.07,307.686 693.403,304.686 694.5,301.5C 695.15,301.196 695.817,300.863 696.5,300.5C 697.548,298.187 698.215,296.187 698.5,294.5C 699.117,294.611 699.617,294.944 700,295.5C 702.218,291.652 705.385,290.652 709.5,292.5 Z"/></g>
<g><path style="opacity:1" fill="#232629" d="M 737.5,214.5 C 737.667,225.505 737.5,236.505 737,247.5C 736.692,248.308 736.192,248.975 735.5,249.5C 735.331,248.603 734.998,247.603 734.5,246.5C 733.549,245.674 732.549,245.508 731.5,246C 732.736,248.354 734.403,250.354 736.5,252C 733.167,252.667 729.833,252.667 726.5,252C 728.797,250.84 728.464,249.84 725.5,249C 726.167,248.667 726.833,248.333 727.5,248C 725.642,246.018 723.309,244.852 720.5,244.5C 718.507,248.435 715.674,248.435 712,244.5C 709.176,246.524 709.342,248.691 712.5,251C 711.551,251.617 710.718,251.451 710,250.5C 708.318,252.554 706.651,252.221 705,249.5C 702.679,250.361 701.513,249.361 701.5,246.5C 688.545,259.391 674.878,271.891 660.5,284C 662.749,284.863 664.582,284.363 666,282.5C 668.085,283.647 669.585,282.98 670.5,280.5C 670.478,281.995 670.811,283.662 671.5,285.5C 672.478,285.023 673.311,284.357 674,283.5C 675.533,283.944 677.033,284.277 678.5,284.5C 679.386,283.675 679.719,282.675 679.5,281.5C 680.959,281.433 682.292,281.766 683.5,282.5C 683.33,283.822 683.663,284.989 684.5,286C 683.5,286.667 682.5,286.667 681.5,286C 682.711,285.107 682.711,284.274 681.5,283.5C 678.748,286.984 679.415,288.65 683.5,288.5C 681.368,289.598 679.202,290.598 677,291.5C 676.667,291.167 676.333,290.833 676,290.5C 675.544,291.744 676.044,292.577 677.5,293C 676.675,294.688 675.675,294.855 674.5,293.5C 673.528,297.373 672.028,301.039 670,304.5C 669.107,303.289 668.274,303.289 667.5,304.5C 668.833,305.5 670.167,306.5 671.5,307.5C 669.922,311.312 668.756,315.312 668,319.5C 667.25,320.126 666.416,320.626 665.5,321C 666.215,323.081 667.215,325.247 668.5,327.5C 666.615,328.197 666.282,329.197 667.5,330.5C 665.024,333.853 665.524,334.186 669,331.5C 670.667,334.5 672.333,337.5 674,340.5C 676.908,342.634 678.741,344.968 679.5,347.5C 677.787,348.635 677.12,350.302 677.5,352.5C 675.131,352.149 672.797,351.982 670.5,352C 668.606,353.101 667.939,354.434 668.5,356C 666.77,357.852 665.604,357.686 665,355.5C 663.18,357.132 662.014,359.132 661.5,361.5C 654.376,359.188 647.042,357.354 639.5,356C 638.421,355.044 637.255,354.211 636,353.5C 633.959,354.423 631.792,354.756 629.5,354.5C 629.567,353.041 629.234,351.708 628.5,350.5C 628.5,349.5 628.5,348.5 628.5,347.5C 626.22,347.746 624.22,347.746 622.5,347.5C 623.62,345.404 625.12,345.07 627,346.5C 627.18,344.512 627.014,342.512 626.5,340.5C 624.624,341.898 621.957,343.231 618.5,344.5C 616.993,342.31 614.993,340.976 612.5,340.5C 612.5,341.5 612.5,342.5 612.5,343.5C 609.266,344.127 606.099,344.127 603,343.5C 602.5,343.667 602,343.833 601.5,344C 602.451,344.718 602.617,345.551 602,346.5C 600.622,344.787 598.955,343.453 597,342.5C 594.802,344.846 592.636,347.179 590.5,349.5C 589.675,350.386 588.675,350.719 587.5,350.5C 587.22,353.388 588.553,354.888 591.5,355C 590.167,355.333 588.833,355.667 587.5,356C 588.554,357.388 588.72,358.888 588,360.5C 586.84,358.203 585.84,358.536 585,361.5C 584.085,360.672 583.419,359.672 583,358.5C 581.513,359.253 581.346,360.086 582.5,361C 582,361.5 581.5,362 581,362.5C 578.291,361.294 576.625,362.294 576,365.5C 574.989,364.663 573.822,364.33 572.5,364.5C 572.67,365.822 572.337,366.989 571.5,368C 568.431,369.073 565.597,370.573 563,372.5C 557.253,370.938 556.753,369.105 561.5,367C 560.107,364.317 558.774,364.15 557.5,366.5C 556.833,365.5 556.167,364.5 555.5,363.5C 554.304,363.846 554.304,364.346 555.5,365C 554.572,365.388 553.905,366.055 553.5,367C 555.36,373.883 557.36,380.716 559.5,387.5C 559.043,388.298 558.376,388.631 557.5,388.5C 554.512,383.194 551.512,377.861 548.5,372.5C 549.648,370.851 550.981,369.351 552.5,368C 551.944,367.617 551.611,367.117 551.5,366.5C 552.333,364.248 552.333,362.081 551.5,360C 552.715,357.904 553.549,358.071 554,360.5C 554.667,359.167 555.333,359.167 556,360.5C 559.447,356.614 558.613,355.114 553.5,356C 554.641,355.259 554.641,354.425 553.5,353.5C 554.167,353.167 554.833,352.833 555.5,352.5C 557.16,353.787 558.826,355.12 560.5,356.5C 560.167,357.167 559.833,357.833 559.5,358.5C 560.189,360.444 560.689,362.444 561,364.5C 561.333,363.833 561.667,363.167 562,362.5C 562.718,363.451 563.551,363.617 564.5,363C 561.18,361.739 560.846,360.072 563.5,358C 561.789,356.867 561.289,355.367 562,353.5C 572.329,345.003 582.162,336.003 591.5,326.5C 590.167,326.5 588.833,326.5 587.5,326.5C 587.487,329.695 585.82,331.362 582.5,331.5C 580.143,330.965 577.643,329.965 575,328.5C 574.193,332.449 573.693,332.449 573.5,328.5C 572.448,328.649 571.448,328.483 570.5,328C 584.026,315.805 597.526,303.638 611,291.5C 612.079,288.752 613.246,286.085 614.5,283.5C 613.927,280.915 612.261,279.915 609.5,280.5C 610.057,284.645 609.057,288.311 606.5,291.5C 601.329,295.059 596.663,299.059 592.5,303.5C 591.754,304.736 591.421,306.07 591.5,307.5C 589.801,307.62 588.135,307.954 586.5,308.5C 585.164,307.577 583.83,307.077 582.5,307C 582.057,308.518 582.724,309.685 584.5,310.5C 580.754,313.947 577.421,317.78 574.5,322C 570.535,326.39 566.368,326.556 562,322.5C 561.46,324.135 561.96,325.468 563.5,326.5C 562.726,327.711 561.893,327.711 561,326.5C 560.581,327.672 559.915,328.672 559,329.5C 558.633,325.719 557.3,325.052 555,327.5C 554.667,326.833 554.333,326.167 554,325.5C 551.416,327.988 549.583,330.488 548.5,333C 552.528,336.167 552.028,338.667 547,340.5C 546,339.5 545,338.5 544,337.5C 542.001,339.253 539.835,340.587 537.5,341.5C 537.349,344.718 536.516,345.051 535,342.5C 530.294,348.185 524.794,352.852 518.5,356.5C 518.663,358.857 518.497,361.19 518,363.5C 516.768,360.77 515.935,360.937 515.5,364C 516.797,366.057 517.297,368.224 517,370.5C 513.295,367.743 512.795,368.243 515.5,372C 513.617,375.752 510.95,378.919 507.5,381.5C 508.853,382.524 509.52,383.857 509.5,385.5C 511.766,385.859 513.599,385.192 515,383.5C 515.163,385.676 515.996,387.509 517.5,389C 515.683,390.8 514.516,392.966 514,395.5C 512.844,394.007 512.01,394.174 511.5,396C 511.611,397.722 512.111,397.888 513,396.5C 515.428,397.914 517.261,399.914 518.5,402.5C 516.019,403.492 514.519,402.492 514,399.5C 513.51,400.793 513.343,402.127 513.5,403.5C 512.5,403.5 511.5,403.5 510.5,403.5C 510.36,401.876 511.027,400.71 512.5,400C 510.854,398.599 509.187,398.432 507.5,399.5C 509.261,401.564 509.595,403.731 508.5,406C 511.098,405.578 513.764,405.578 516.5,406C 516.833,406.333 517.167,406.667 517.5,407C 515.576,407.179 513.909,407.346 512.5,407.5C 514.205,409.977 516.205,411.311 518.5,411.5C 516.65,412.648 515.983,413.981 516.5,415.5C 515.833,414.5 515.167,413.5 514.5,412.5C 513.494,412.938 513.494,413.604 514.5,414.5C 512.96,415.532 512.46,416.865 513,418.5C 517.055,415.505 519.221,416.672 519.5,422C 518.747,423.487 517.914,423.654 517,422.5C 516.333,426.5 515.667,426.5 515,422.5C 513.699,424.402 513.032,426.402 513,428.5C 515.283,427.281 517.616,427.281 520,428.5C 522.09,430.443 524.257,432.11 526.5,433.5C 525.833,434.167 525.167,434.833 524.5,435.5C 522.447,435.402 520.78,436.069 519.5,437.5C 517.819,439.008 515.819,440.008 513.5,440.5C 511.447,440.402 509.78,441.069 508.5,442.5C 504.584,445.29 500.251,447.29 495.5,448.5C 495.057,409.084 495.057,370.251 495.5,332C 495,329.5 494.5,327 494,324.5C 492.698,323.915 491.531,323.249 490.5,322.5C 492.199,322.66 493.866,322.494 495.5,322C 567.126,289.149 638.459,256.149 709.5,223C 708.944,222.617 708.611,222.117 708.5,221.5C 711.545,221.658 714.379,220.991 717,219.5C 716.848,217.481 716.348,215.481 715.5,213.5C 718.652,212.959 721.152,213.959 723,216.5C 723.404,220.461 724.57,224.128 726.5,227.5C 728.585,226.459 730.252,224.959 731.5,223C 732.793,222.51 734.127,222.343 735.5,222.5C 734.964,219.302 735.631,216.635 737.5,214.5 Z"/></g>
<g><path style="opacity:1" fill="#1b1d1f" d="M 591.5,326.5 C 591.281,325.325 591.614,324.325 592.5,323.5C 599.859,318.708 605.859,312.708 610.5,305.5C 613.151,303.35 615.651,301.017 618,298.5C 619.049,299.517 620.216,299.684 621.5,299C 625.843,293.815 630.176,288.648 634.5,283.5C 635.325,282.614 636.325,282.281 637.5,282.5C 637.714,280.856 637.38,279.356 636.5,278C 638.701,276.316 639.367,274.316 638.5,272C 639.715,269.904 640.549,270.071 641,272.5C 644.495,268.175 645.662,268.508 644.5,273.5C 652.734,273.586 655.734,269.586 653.5,261.5C 655.59,261.45 656.923,262.45 657.5,264.5C 656.052,266.667 654.885,269 654,271.5C 633.566,290.443 612.733,308.776 591.5,326.5 Z"/></g>
<g><path style="opacity:1" fill="#373a39" d="M 698.5,294.5 C 698.215,296.187 697.548,298.187 696.5,300.5C 695.817,300.863 695.15,301.196 694.5,301.5C 693.923,300.227 693.257,300.227 692.5,301.5C 689.256,305.303 687.756,309.636 688,314.5C 688.934,313.142 689.768,311.808 690.5,310.5C 690.483,313.523 689.483,316.19 687.5,318.5C 686.833,316.833 686.167,315.167 685.5,313.5C 684.712,314.77 683.712,315.77 682.5,316.5C 683.039,308.313 685.706,300.98 690.5,294.5C 691.558,295.6 692.392,296.934 693,298.5C 694.129,295.451 695.962,294.118 698.5,294.5 Z"/></g>
<g><path style="opacity:0.975" fill="#868585" d="M 109.5,275.5 C 109.833,275.5 110.167,275.5 110.5,275.5C 110.5,301.833 110.5,328.167 110.5,354.5C 110.167,354.5 109.833,354.5 109.5,354.5C 108.35,327.921 108.35,301.588 109.5,275.5 Z"/></g>
<g><path style="opacity:1" fill="#757977" d="M 694.5,301.5 C 693.403,304.686 692.07,307.686 690.5,310.5C 689.768,311.808 688.934,313.142 688,314.5C 687.756,309.636 689.256,305.303 692.5,301.5C 693.257,300.227 693.923,300.227 694.5,301.5 Z"/></g>
<g><path style="opacity:1" fill="#828587" d="M 710.5,309.5 C 712.71,310.455 713.043,311.955 711.5,314C 705.834,315.844 700.5,318.344 695.5,321.5C 694.548,319.955 694.215,318.288 694.5,316.5C 699.871,314.146 705.204,311.812 710.5,309.5 Z"/></g>
<g><path style="opacity:0.09" fill="#c0c1c2" d="M 733.5,339.5 C 732.22,340.931 730.553,341.598 728.5,341.5C 729.78,340.069 731.447,339.402 733.5,339.5 Z"/></g>
<g><path style="opacity:0.067" fill="#c4c5c5" d="M 720.5,345.5 C 719.22,346.931 717.553,347.598 715.5,347.5C 716.78,346.069 718.447,345.402 720.5,345.5 Z"/></g>
<g><path style="opacity:1" fill="#1c1d1f" d="M 628.5,350.5 C 629.234,351.708 629.567,353.041 629.5,354.5C 631.792,354.756 633.959,354.423 636,353.5C 637.255,354.211 638.421,355.044 639.5,356C 647.042,357.354 654.376,359.188 661.5,361.5C 667.099,361.806 672.099,363.472 676.5,366.5C 675.969,368.544 674.802,370.211 673,371.5C 672.046,379.907 671.88,388.24 672.5,396.5C 669.604,397.775 666.604,397.775 663.5,396.5C 663.5,396.167 663.5,395.833 663.5,395.5C 664.5,395.5 665.5,395.5 666.5,395.5C 666.5,387.318 666.833,379.651 667.5,372.5C 665.149,370.808 662.815,369.142 660.5,367.5C 657.525,364.339 653.858,362.172 649.5,361C 636.905,358.007 624.238,357.674 611.5,360C 610,360.833 608.833,362 608,363.5C 605.152,362.743 602.819,363.743 601,366.5C 600.577,365.044 599.744,364.544 598.5,365C 596.935,366.506 596.601,368.006 597.5,369.5C 597.703,371.044 598.37,372.378 599.5,373.5C 603.372,375.602 607.372,377.436 611.5,379C 605.486,377.998 599.486,376.665 593.5,375C 589.848,374.501 586.182,374.335 582.5,374.5C 582.657,375.873 582.49,377.207 582,378.5C 580.807,377.022 580.307,375.688 580.5,374.5C 579.77,376.341 579.103,378.175 578.5,380C 579.634,381.016 579.301,381.683 577.5,382C 580.655,382.981 580.988,384.315 578.5,386C 582.449,386.807 582.449,387.307 578.5,387.5C 578.351,388.552 578.517,389.552 579,390.5C 581.047,390.632 583.213,390.465 585.5,390C 584.531,391.758 583.364,392.258 582,391.5C 581.581,392.672 580.915,393.672 580,394.5C 579.107,393.289 578.274,393.289 577.5,394.5C 580.53,395.677 583.197,397.343 585.5,399.5C 588.894,400.078 592.228,400.744 595.5,401.5C 595.5,401.833 595.5,402.167 595.5,402.5C 592.485,404.674 589.151,406.341 585.5,407.5C 584.5,407.5 583.5,407.5 582.5,407.5C 582.656,406.502 582.156,405.502 581,404.5C 578.925,407.028 578.092,406.861 578.5,404C 577.101,403.405 575.768,403.572 574.5,404.5C 573.304,404.154 573.304,403.654 574.5,403C 571.947,401.588 569.614,400.588 567.5,400C 566.917,397.085 566.917,394.085 567.5,391C 567.252,389.284 566.585,387.784 565.5,386.5C 566.311,385.784 566.978,384.95 567.5,384C 566.813,382.838 566.647,381.672 567,380.5C 570.771,376.066 574.938,372.233 579.5,369C 581.5,368.667 583.5,368.333 585.5,368C 589.192,366.009 592.692,363.842 596,361.5C 597.814,362.76 599.647,362.76 601.5,361.5C 609.973,357.19 618.473,352.856 627,348.5C 627.278,349.416 627.778,350.082 628.5,350.5 Z"/></g>
<g><path style="opacity:0.541" fill="#a3a3a3" d="M 109.5,354.5 C 109.833,354.5 110.167,354.5 110.5,354.5C 112.786,354.595 114.786,355.262 116.5,356.5C 113.848,356.59 111.515,355.924 109.5,354.5 Z"/></g>
<g><path style="opacity:0.114" fill="#c0c1c1" d="M 696.5,356.5 C 695.22,357.931 693.553,358.598 691.5,358.5C 692.78,357.069 694.447,356.402 696.5,356.5 Z"/></g>
<g><path style="opacity:0.114" fill="#babbbd" d="M 685.5,361.5 C 684.22,362.931 682.553,363.598 680.5,363.5C 681.78,362.069 683.447,361.402 685.5,361.5 Z"/></g>
<g><path style="opacity:1" fill="#191818" d="M 110.5,229.5 C 237.072,260.81 363.738,291.81 490.5,322.5C 491.531,323.249 492.698,323.915 494,324.5C 494.5,327 495,329.5 495.5,332C 495.057,370.251 495.057,409.084 495.5,448.5C 493.833,449.833 492.167,449.833 490.5,448.5C 488.162,446.96 485.495,446.294 482.5,446.5C 473.946,444.944 465.613,442.944 457.5,440.5C 455.562,438.837 453.228,438.171 450.5,438.5C 442.456,435.74 434.123,433.74 425.5,432.5C 421.837,430.584 417.837,429.584 413.5,429.5C 409.239,429.102 405.239,428.102 401.5,426.5C 399.095,425.232 396.428,424.565 393.5,424.5C 390.219,424.58 387.219,423.913 384.5,422.5C 376.836,419.584 368.836,417.584 360.5,416.5C 357.572,416.435 354.905,415.768 352.5,414.5C 350.162,412.96 347.495,412.294 344.5,412.5C 337.573,411.435 330.906,409.768 324.5,407.5C 313.791,404.073 302.791,401.407 291.5,399.5C 289.162,397.96 286.495,397.294 283.5,397.5C 281.162,395.96 278.495,395.294 275.5,395.5C 266.946,393.944 258.613,391.944 250.5,389.5C 242.836,386.584 234.836,384.584 226.5,383.5C 224.708,383.634 223.042,383.301 221.5,382.5C 218.237,380.432 214.57,379.432 210.5,379.5C 200.613,377.611 190.946,375.277 181.5,372.5C 173.836,369.584 165.836,367.584 157.5,366.5C 154.572,366.435 151.905,365.768 149.5,364.5C 147.162,362.96 144.495,362.294 141.5,362.5C 132.946,360.944 124.613,358.944 116.5,356.5C 114.786,355.262 112.786,354.595 110.5,354.5C 110.5,328.167 110.5,301.833 110.5,275.5C 110.5,260.167 110.5,244.833 110.5,229.5 Z"/></g>
<g><path style="opacity:1" fill="#2f2838" d="M 118.5,235.5 C 121.508,235.701 124.508,236.034 127.5,236.5C 245.794,265.979 364.294,295.312 483,324.5C 483.945,324.905 484.612,325.572 485,326.5C 485.833,362.505 485.667,398.505 484.5,434.5C 483.532,435.489 482.365,436.156 481,436.5C 361.914,406.728 241.747,377.228 120.5,348C 119.299,347.097 118.465,345.931 118,344.5C 117.174,308.095 117.34,271.762 118.5,235.5 Z"/></g>
<g><path style="opacity:0.78" fill="#959595" d="M 141.5,362.5 C 144.495,362.294 147.162,362.96 149.5,364.5C 146.572,364.435 143.905,363.768 141.5,362.5 Z"/></g>
<g><path style="opacity:0.412" fill="#a7a8aa" d="M 678.5,364.5 C 678.167,365.167 677.833,365.833 677.5,366.5C 677.167,366.5 676.833,366.5 676.5,366.5C 676.5,365.167 677.167,364.5 678.5,364.5 Z"/></g>
<g><path style="opacity:0.961" fill="#a0a0a1" d="M 157.5,366.5 C 165.836,367.584 173.836,369.584 181.5,372.5C 173.24,371.102 165.24,369.102 157.5,366.5 Z"/></g>
<g><path style="opacity:1" fill="#222325" d="M 660.5,367.5 C 660.823,373.69 660.49,379.69 659.5,385.5C 659.666,381.154 659.499,376.821 659,372.5C 655.023,374.905 650.856,376.905 646.5,378.5C 645.282,379.803 645.615,380.803 647.5,381.5C 646.092,382.243 644.759,383.077 643.5,384C 644.403,386.471 643.737,388.638 641.5,390.5C 643.979,393.299 643.979,396.132 641.5,399C 642.022,399.95 642.689,400.784 643.5,401.5C 642.289,402.72 642.289,403.887 643.5,405C 641.487,406.791 641.487,408.125 643.5,409C 642.207,409.49 640.873,409.657 639.5,409.5C 639.563,404.184 638.896,398.518 637.5,392.5C 638.309,390.929 638.643,389.262 638.5,387.5C 636.641,387.539 635.308,386.706 634.5,385C 632.623,384.424 630.789,384.591 629,385.5C 624.4,383.28 619.567,381.447 614.5,380C 622.143,380.429 629.809,380.429 637.5,380C 625.777,380.04 614.443,378.04 603.5,374C 601.19,372.363 599.69,370.196 599,367.5C 598.722,368.416 598.222,369.082 597.5,369.5C 596.601,368.006 596.935,366.506 598.5,365C 599.744,364.544 600.577,365.044 601,366.5C 602.819,363.743 605.152,362.743 608,363.5C 608.833,362 610,360.833 611.5,360C 624.238,357.674 636.905,358.007 649.5,361C 653.858,362.172 657.525,364.339 660.5,367.5 Z"/></g>
<g><path style="opacity:1" fill="#404447" d="M 621.5,361.5 C 631.588,360.492 641.254,361.992 650.5,366C 653.341,369.159 652.674,371.492 648.5,373C 638.028,376.738 627.362,377.404 616.5,375C 611.366,374.214 608.866,371.381 609,366.5C 612.858,363.813 617.025,362.146 621.5,361.5 Z"/></g>
<g><path style="opacity:1" fill="#161819" d="M 634.5,366.5 C 635.5,366.5 636.5,366.5 637.5,366.5C 637.5,368.167 637.5,369.833 637.5,371.5C 633.774,371.823 630.107,371.489 626.5,370.5C 629.295,369.266 631.962,367.933 634.5,366.5 Z"/></g>
<g><path style="opacity:0.984" fill="#959595" d="M 210.5,379.5 C 214.57,379.432 218.237,380.432 221.5,382.5C 217.603,381.945 213.937,380.945 210.5,379.5 Z"/></g>
<g><path style="opacity:0.961" fill="#a1a1a0" d="M 226.5,383.5 C 234.836,384.584 242.836,386.584 250.5,389.5C 242.24,388.102 234.24,386.102 226.5,383.5 Z"/></g>
<g><path style="opacity:1" fill="#121211" d="M 639.5,409.5 C 638.554,411.132 637.554,412.799 636.5,414.5C 637.167,415.167 637.833,415.833 638.5,416.5C 631.866,417.497 625.2,417.83 618.5,417.5C 615.873,416.908 613.206,416.575 610.5,416.5C 609.365,414.787 607.698,414.12 605.5,414.5C 604.508,414.672 603.842,414.338 603.5,413.5C 602.878,412.373 602.045,411.373 601,410.5C 600.817,407.635 600.317,404.969 599.5,402.5C 598.432,401.566 597.099,401.232 595.5,401.5C 592.228,400.744 588.894,400.078 585.5,399.5C 583.197,397.343 580.53,395.677 577.5,394.5C 578.274,393.289 579.107,393.289 580,394.5C 580.915,393.672 581.581,392.672 582,391.5C 583.364,392.258 584.531,391.758 585.5,390C 583.213,390.465 581.047,390.632 579,390.5C 578.517,389.552 578.351,388.552 578.5,387.5C 582.449,387.307 582.449,386.807 578.5,386C 580.988,384.315 580.655,382.981 577.5,382C 579.301,381.683 579.634,381.016 578.5,380C 579.103,378.175 579.77,376.341 580.5,374.5C 580.307,375.688 580.807,377.022 582,378.5C 582.49,377.207 582.657,375.873 582.5,374.5C 586.182,374.335 589.848,374.501 593.5,375C 599.486,376.665 605.486,377.998 611.5,379C 607.372,377.436 603.372,375.602 599.5,373.5C 598.37,372.378 597.703,371.044 597.5,369.5C 598.222,369.082 598.722,368.416 599,367.5C 599.69,370.196 601.19,372.363 603.5,374C 614.443,378.04 625.777,380.04 637.5,380C 629.809,380.429 622.143,380.429 614.5,380C 619.567,381.447 624.4,383.28 629,385.5C 630.789,384.591 632.623,384.424 634.5,385C 635.308,386.706 636.641,387.539 638.5,387.5C 638.643,389.262 638.309,390.929 637.5,392.5C 638.896,398.518 639.563,404.184 639.5,409.5 Z"/></g>
<g><path style="opacity:1" fill="#0d0e0f" d="M 660.5,367.5 C 662.815,369.142 665.149,370.808 667.5,372.5C 666.833,379.651 666.5,387.318 666.5,395.5C 665.5,395.5 664.5,395.5 663.5,395.5C 662.5,395.5 661.5,395.5 660.5,395.5C 659.662,395.842 659.328,396.508 659.5,397.5C 658.167,398.167 656.833,398.833 655.5,399.5C 654.167,399.5 652.833,399.5 651.5,399.5C 651.183,396.428 651.516,393.428 652.5,390.5C 655.43,389.547 657.763,387.88 659.5,385.5C 660.49,379.69 660.823,373.69 660.5,367.5 Z"/></g>
<g><path style="opacity:1" fill="#3c3f42" d="M 676.5,366.5 C 676.833,366.5 677.167,366.5 677.5,366.5C 678.117,366.611 678.617,366.944 679,367.5C 679.667,375.833 679.667,384.167 679,392.5C 677.399,394.719 675.233,396.052 672.5,396.5C 671.88,388.24 672.046,379.907 673,371.5C 674.802,370.211 675.969,368.544 676.5,366.5 Z"/></g>
<g><path style="opacity:1" fill="#1f2325" d="M 591.5,326.5 C 582.162,336.003 572.329,345.003 562,353.5C 561.289,355.367 561.789,356.867 563.5,358C 560.846,360.072 561.18,361.739 564.5,363C 563.551,363.617 562.718,363.451 562,362.5C 561.667,363.167 561.333,363.833 561,364.5C 560.689,362.444 560.189,360.444 559.5,358.5C 559.833,357.833 560.167,357.167 560.5,356.5C 558.826,355.12 557.16,353.787 555.5,352.5C 554.833,352.833 554.167,353.167 553.5,353.5C 554.641,354.425 554.641,355.259 553.5,356C 558.613,355.114 559.447,356.614 556,360.5C 555.333,359.167 554.667,359.167 554,360.5C 553.549,358.071 552.715,357.904 551.5,360C 552.333,362.081 552.333,364.248 551.5,366.5C 550.844,365.722 550.011,365.056 549,364.5C 545.661,367.34 542.494,370.34 539.5,373.5C 540.782,375.179 541.782,377.013 542.5,379C 540.134,382.36 537.467,385.36 534.5,388C 537.885,394.613 541.885,400.779 546.5,406.5C 548.167,405.667 549.833,404.833 551.5,404C 549.826,401.492 548.826,398.658 548.5,395.5C 552.026,393.475 554.193,390.475 555,386.5C 556.507,390.698 557.507,395.032 558,399.5C 559.213,397.87 560.046,396.036 560.5,394C 559.368,392.235 558.368,390.402 557.5,388.5C 558.376,388.631 559.043,388.298 559.5,387.5C 557.36,380.716 555.36,373.883 553.5,367C 553.905,366.055 554.572,365.388 555.5,365C 554.304,364.346 554.304,363.846 555.5,363.5C 556.167,364.5 556.833,365.5 557.5,366.5C 558.774,364.15 560.107,364.317 561.5,367C 556.753,369.105 557.253,370.938 563,372.5C 565.597,370.573 568.431,369.073 571.5,368C 572.337,366.989 572.67,365.822 572.5,364.5C 573.822,364.33 574.989,364.663 576,365.5C 576.625,362.294 578.291,361.294 581,362.5C 581.5,362 582,361.5 582.5,361C 581.346,360.086 581.513,359.253 583,358.5C 583.419,359.672 584.085,360.672 585,361.5C 585.84,358.536 586.84,358.203 588,360.5C 588.72,358.888 588.554,357.388 587.5,356C 588.833,355.667 590.167,355.333 591.5,355C 588.553,354.888 587.22,353.388 587.5,350.5C 588.675,350.719 589.675,350.386 590.5,349.5C 592.636,347.179 594.802,344.846 597,342.5C 598.955,343.453 600.622,344.787 602,346.5C 602.617,345.551 602.451,344.718 601.5,344C 602,343.833 602.5,343.667 603,343.5C 606.099,344.127 609.266,344.127 612.5,343.5C 612.5,342.5 612.5,341.5 612.5,340.5C 614.993,340.976 616.993,342.31 618.5,344.5C 621.957,343.231 624.624,341.898 626.5,340.5C 627.014,342.512 627.18,344.512 627,346.5C 625.12,345.07 623.62,345.404 622.5,347.5C 624.22,347.746 626.22,347.746 628.5,347.5C 628.5,348.5 628.5,349.5 628.5,350.5C 627.778,350.082 627.278,349.416 627,348.5C 618.473,352.856 609.973,357.19 601.5,361.5C 599.647,362.76 597.814,362.76 596,361.5C 592.692,363.842 589.192,366.009 585.5,368C 583.5,368.333 581.5,368.667 579.5,369C 574.938,372.233 570.771,376.066 567,380.5C 566.647,381.672 566.813,382.838 567.5,384C 566.978,384.95 566.311,385.784 565.5,386.5C 566.585,387.784 567.252,389.284 567.5,391C 566.917,394.085 566.917,397.085 567.5,400C 569.614,400.588 571.947,401.588 574.5,403C 573.304,403.654 573.304,404.154 574.5,404.5C 575.768,403.572 577.101,403.405 578.5,404C 578.092,406.861 578.925,407.028 581,404.5C 582.156,405.502 582.656,406.502 582.5,407.5C 581.833,408.167 581.167,408.833 580.5,409.5C 578.151,411.341 575.485,412.674 572.5,413.5C 570.784,413.629 569.117,413.962 567.5,414.5C 565.027,414.264 563.36,412.931 562.5,410.5C 561.914,410.709 561.414,411.043 561,411.5C 560.667,416.174 560.833,420.84 561.5,425.5C 560.448,425.351 559.448,425.517 558.5,426C 559.728,427.49 559.728,428.99 558.5,430.5C 558.5,431.167 558.167,431.5 557.5,431.5C 555.079,431.878 552.746,432.545 550.5,433.5C 549.833,433.5 549.167,433.5 548.5,433.5C 549.968,431.389 549.635,429.556 547.5,428C 548.167,427.333 548.833,426.667 549.5,426C 548.342,424.991 547.675,423.658 547.5,422C 547,418.5 546.5,415 546,411.5C 545.088,408.802 543.421,406.135 541,403.5C 537.009,399.543 533.009,395.543 529,391.5C 529.24,389.533 530.073,387.7 531.5,386C 530.66,384.829 529.827,383.662 529,382.5C 526.022,384.311 523.522,386.644 521.5,389.5C 522.727,390.59 523.56,391.924 524,393.5C 526.574,406.866 529.074,420.2 531.5,433.5C 529.833,433.5 528.167,433.5 526.5,433.5C 524.257,432.11 522.09,430.443 520,428.5C 517.616,427.281 515.283,427.281 513,428.5C 513.032,426.402 513.699,424.402 515,422.5C 515.667,426.5 516.333,426.5 517,422.5C 517.914,423.654 518.747,423.487 519.5,422C 519.221,416.672 517.055,415.505 513,418.5C 512.46,416.865 512.96,415.532 514.5,414.5C 513.494,413.604 513.494,412.938 514.5,412.5C 515.167,413.5 515.833,414.5 516.5,415.5C 515.983,413.981 516.65,412.648 518.5,411.5C 516.205,411.311 514.205,409.977 512.5,407.5C 513.909,407.346 515.576,407.179 517.5,407C 517.167,406.667 516.833,406.333 516.5,406C 513.764,405.578 511.098,405.578 508.5,406C 509.595,403.731 509.261,401.564 507.5,399.5C 509.187,398.432 510.854,398.599 512.5,400C 511.027,400.71 510.36,401.876 510.5,403.5C 511.5,403.5 512.5,403.5 513.5,403.5C 513.343,402.127 513.51,400.793 514,399.5C 514.519,402.492 516.019,403.492 518.5,402.5C 517.261,399.914 515.428,397.914 513,396.5C 512.111,397.888 511.611,397.722 511.5,396C 512.01,394.174 512.844,394.007 514,395.5C 514.516,392.966 515.683,390.8 517.5,389C 515.996,387.509 515.163,385.676 515,383.5C 513.599,385.192 511.766,385.859 509.5,385.5C 509.52,383.857 508.853,382.524 507.5,381.5C 510.95,378.919 513.617,375.752 515.5,372C 512.795,368.243 513.295,367.743 517,370.5C 517.297,368.224 516.797,366.057 515.5,364C 515.935,360.937 516.768,360.77 518,363.5C 518.497,361.19 518.663,358.857 518.5,356.5C 524.794,352.852 530.294,348.185 535,342.5C 536.516,345.051 537.349,344.718 537.5,341.5C 539.835,340.587 542.001,339.253 544,337.5C 545,338.5 546,339.5 547,340.5C 552.028,338.667 552.528,336.167 548.5,333C 549.583,330.488 551.416,327.988 554,325.5C 554.333,326.167 554.667,326.833 555,327.5C 557.3,325.052 558.633,325.719 559,329.5C 559.915,328.672 560.581,327.672 561,326.5C 561.893,327.711 562.726,327.711 563.5,326.5C 561.96,325.468 561.46,324.135 562,322.5C 566.368,326.556 570.535,326.39 574.5,322C 577.421,317.78 580.754,313.947 584.5,310.5C 582.724,309.685 582.057,308.518 582.5,307C 583.83,307.077 585.164,307.577 586.5,308.5C 588.135,307.954 589.801,307.62 591.5,307.5C 591.421,306.07 591.754,304.736 592.5,303.5C 596.663,299.059 601.329,295.059 606.5,291.5C 609.057,288.311 610.057,284.645 609.5,280.5C 612.261,279.915 613.927,280.915 614.5,283.5C 613.246,286.085 612.079,288.752 611,291.5C 597.526,303.638 584.026,315.805 570.5,328C 571.448,328.483 572.448,328.649 573.5,328.5C 573.693,332.449 574.193,332.449 575,328.5C 577.643,329.965 580.143,330.965 582.5,331.5C 585.82,331.362 587.487,329.695 587.5,326.5C 588.833,326.5 590.167,326.5 591.5,326.5 Z"/></g>
<g><path style="opacity:1" fill="#121314" d="M 551.5,366.5 C 551.611,367.117 551.944,367.617 552.5,368C 550.981,369.351 549.648,370.851 548.5,372.5C 551.512,377.861 554.512,383.194 557.5,388.5C 558.368,390.402 559.368,392.235 560.5,394C 560.046,396.036 559.213,397.87 558,399.5C 557.507,395.032 556.507,390.698 555,386.5C 554.193,390.475 552.026,393.475 548.5,395.5C 548.826,398.658 549.826,401.492 551.5,404C 549.833,404.833 548.167,405.667 546.5,406.5C 541.885,400.779 537.885,394.613 534.5,388C 537.467,385.36 540.134,382.36 542.5,379C 541.782,377.013 540.782,375.179 539.5,373.5C 542.494,370.34 545.661,367.34 549,364.5C 550.011,365.056 550.844,365.722 551.5,366.5 Z"/></g>
<g><path style="opacity:1" fill="#151312" d="M 548.5,433.5 C 542.833,433.5 537.167,433.5 531.5,433.5C 529.074,420.2 526.574,406.866 524,393.5C 523.56,391.924 522.727,390.59 521.5,389.5C 523.522,386.644 526.022,384.311 529,382.5C 529.827,383.662 530.66,384.829 531.5,386C 530.073,387.7 529.24,389.533 529,391.5C 533.009,395.543 537.009,399.543 541,403.5C 543.421,406.135 545.088,408.802 546,411.5C 546.5,415 547,418.5 547.5,422C 547.675,423.658 548.342,424.991 549.5,426C 548.833,426.667 548.167,427.333 547.5,428C 549.635,429.556 549.968,431.389 548.5,433.5 Z"/></g>
<g><path style="opacity:1" fill="#2d3033" d="M 659.5,385.5 C 657.763,387.88 655.43,389.547 652.5,390.5C 651.516,393.428 651.183,396.428 651.5,399.5C 652.833,399.5 654.167,399.5 655.5,399.5C 655.587,404.537 655.254,409.537 654.5,414.5C 651.017,414.327 648.017,415.327 645.5,417.5C 636.691,419.61 627.691,419.943 618.5,418.5C 618.5,418.167 618.5,417.833 618.5,417.5C 625.2,417.83 631.866,417.497 638.5,416.5C 637.833,415.833 637.167,415.167 636.5,414.5C 637.554,412.799 638.554,411.132 639.5,409.5C 640.873,409.657 642.207,409.49 643.5,409C 641.487,408.125 641.487,406.791 643.5,405C 642.289,403.887 642.289,402.72 643.5,401.5C 642.689,400.784 642.022,399.95 641.5,399C 643.979,396.132 643.979,393.299 641.5,390.5C 643.737,388.638 644.403,386.471 643.5,384C 644.759,383.077 646.092,382.243 647.5,381.5C 645.615,380.803 645.282,379.803 646.5,378.5C 650.856,376.905 655.023,374.905 659,372.5C 659.499,376.821 659.666,381.154 659.5,385.5 Z"/></g>
<g><path style="opacity:0.788" fill="#949494" d="M 275.5,395.5 C 278.495,395.294 281.162,395.96 283.5,397.5C 280.572,397.435 277.905,396.768 275.5,395.5 Z"/></g>
<g><path style="opacity:0.773" fill="#959595" d="M 283.5,397.5 C 286.495,397.294 289.162,397.96 291.5,399.5C 288.572,399.435 285.905,398.768 283.5,397.5 Z"/></g>
<g><path style="opacity:0.961" fill="#a2a2a2" d="M 291.5,399.5 C 302.791,401.407 313.791,404.073 324.5,407.5C 313.209,405.593 302.209,402.927 291.5,399.5 Z"/></g>
<g><path style="opacity:0.903" fill="#707071" d="M 660.5,395.5 C 660.5,400.167 660.5,404.833 660.5,409.5C 660.262,411.404 659.262,412.738 657.5,413.5C 657.343,412.127 657.51,410.793 658,409.5C 658.333,409.833 658.667,410.167 659,410.5C 659.499,406.179 659.666,401.846 659.5,397.5C 659.328,396.508 659.662,395.842 660.5,395.5 Z"/></g>
<g><path style="opacity:0.004" fill="#ebebeb" d="M 660.5,395.5 C 661.5,395.5 662.5,395.5 663.5,395.5C 663.5,395.833 663.5,396.167 663.5,396.5C 661.865,400.573 660.865,404.906 660.5,409.5C 660.5,404.833 660.5,400.167 660.5,395.5 Z"/></g>
<g><path style="opacity:0.004" fill="#d6d6d6" d="M 595.5,402.5 C 595.5,402.167 595.5,401.833 595.5,401.5C 597.099,401.232 598.432,401.566 599.5,402.5C 599.5,404.833 599.5,407.167 599.5,409.5C 598.532,407.393 598.198,405.059 598.5,402.5C 597.5,402.5 596.5,402.5 595.5,402.5 Z"/></g>
<g><path style="opacity:0.98" fill="#4b4f53" d="M 659.5,397.5 C 659.666,401.846 659.499,406.179 659,410.5C 658.667,410.167 658.333,409.833 658,409.5C 657.51,410.793 657.343,412.127 657.5,413.5C 653.879,415.818 649.879,417.152 645.5,417.5C 648.017,415.327 651.017,414.327 654.5,414.5C 655.254,409.537 655.587,404.537 655.5,399.5C 656.833,398.833 658.167,398.167 659.5,397.5 Z"/></g>
<g><path style="opacity:0.956" fill="#767373" d="M 599.5,402.5 C 600.317,404.969 600.817,407.635 601,410.5C 602.045,411.373 602.878,412.373 603.5,413.5C 601.167,413.167 599.833,411.833 599.5,409.5C 599.5,407.167 599.5,404.833 599.5,402.5 Z"/></g>
<g><path style="opacity:0.114" fill="#bfbfc0" d="M 582.5,407.5 C 583.5,407.5 584.5,407.5 585.5,407.5C 584.22,408.931 582.553,409.598 580.5,409.5C 581.167,408.833 581.833,408.167 582.5,407.5 Z"/></g>
<g><path style="opacity:0.998" fill="#454749" d="M 567.5,414.5 C 567.5,414.833 567.5,415.167 567.5,415.5C 565.928,418.938 564.761,422.605 564,426.5C 562.549,428.464 560.716,429.797 558.5,430.5C 559.728,428.99 559.728,427.49 558.5,426C 559.448,425.517 560.448,425.351 561.5,425.5C 560.833,420.84 560.667,416.174 561,411.5C 561.414,411.043 561.914,410.709 562.5,410.5C 563.36,412.931 565.027,414.264 567.5,414.5 Z"/></g>
<g><path style="opacity:0.78" fill="#959595" d="M 344.5,412.5 C 347.495,412.294 350.162,412.96 352.5,414.5C 349.572,414.435 346.905,413.768 344.5,412.5 Z"/></g>
<g><path style="opacity:0.075" fill="#c3c3c4" d="M 572.5,413.5 C 571.22,414.931 569.553,415.598 567.5,415.5C 567.5,415.167 567.5,414.833 567.5,414.5C 569.117,413.962 570.784,413.629 572.5,413.5 Z"/></g>
<g><path style="opacity:1" fill="#797979" d="M 605.5,414.5 C 607.698,414.12 609.365,414.787 610.5,416.5C 608.447,416.598 606.78,415.931 605.5,414.5 Z"/></g>
<g><path style="opacity:0.953" fill="#a1a1a1" d="M 360.5,416.5 C 368.836,417.584 376.836,419.584 384.5,422.5C 376.24,421.102 368.24,419.102 360.5,416.5 Z"/></g>
<g><path style="opacity:0.098" fill="#bfbfbe" d="M 610.5,416.5 C 613.206,416.575 615.873,416.908 618.5,417.5C 618.5,417.833 618.5,418.167 618.5,418.5C 615.572,418.435 612.905,417.768 610.5,416.5 Z"/></g>
<g><path style="opacity:0.882" fill="#a0a0a0" d="M 393.5,424.5 C 396.428,424.565 399.095,425.232 401.5,426.5C 398.505,426.706 395.838,426.04 393.5,424.5 Z"/></g>
<g><path style="opacity:0.98" fill="#929293" d="M 413.5,429.5 C 417.837,429.584 421.837,430.584 425.5,432.5C 421.239,432.102 417.239,431.102 413.5,429.5 Z"/></g>
<g><path style="opacity:0.11" fill="#c1c2c2" d="M 557.5,431.5 C 555.574,433.293 553.241,434.293 550.5,434.5C 550.5,434.167 550.5,433.833 550.5,433.5C 552.746,432.545 555.079,431.878 557.5,431.5 Z"/></g>
<g><path style="opacity:0.957" fill="#9e9e9e" d="M 425.5,432.5 C 434.123,433.74 442.456,435.74 450.5,438.5C 441.877,437.26 433.544,435.26 425.5,432.5 Z"/></g>
<g><path style="opacity:0.929" fill="#8a8a89" d="M 526.5,433.5 C 528.167,433.5 529.833,433.5 531.5,433.5C 537.167,433.5 542.833,433.5 548.5,433.5C 549.167,433.5 549.833,433.5 550.5,433.5C 550.5,433.833 550.5,434.167 550.5,434.5C 541.943,434.474 533.276,434.807 524.5,435.5C 525.167,434.833 525.833,434.167 526.5,433.5 Z"/></g>
<g><path style="opacity:0.094" fill="#bcbdbe" d="M 524.5,435.5 C 523.22,436.931 521.553,437.598 519.5,437.5C 520.78,436.069 522.447,435.402 524.5,435.5 Z"/></g>
<g><path style="opacity:0.447" fill="#9c9d9d" d="M 450.5,438.5 C 453.228,438.171 455.562,438.837 457.5,440.5C 454.848,440.59 452.515,439.924 450.5,438.5 Z"/></g>
<g><path style="opacity:0.161" fill="#b6b7b8" d="M 513.5,440.5 C 512.22,441.931 510.553,442.598 508.5,442.5C 509.78,441.069 511.447,440.402 513.5,440.5 Z"/></g>
<g><path style="opacity:0.78" fill="#959595" d="M 482.5,446.5 C 485.495,446.294 488.162,446.96 490.5,448.5C 487.572,448.435 484.905,447.768 482.5,446.5 Z"/></g>
</svg>
