<?xml version="1.0" encoding="UTF-8"?>
<!DOCTYPE svg PUBLIC "-//W3C//DTD SVG 1.1//EN" "http://www.w3.org/Graphics/SVG/1.1/DTD/svg11.dtd">
<svg xmlns="http://www.w3.org/2000/svg" version="1.1" width="400px" height="267px" style="shape-rendering:geometricPrecision; text-rendering:geometricPrecision; image-rendering:optimizeQuality; fill-rule:evenodd; clip-rule:evenodd" xmlns:xlink="http://www.w3.org/1999/xlink">
<g><path style="opacity:0.686" fill="#757473" d="M 172.5,55.5 C 168.556,55.1134 164.889,55.78 161.5,57.5C 164.535,53.0384 168.201,52.3717 172.5,55.5 Z"/></g>
<g><path style="opacity:1" fill="#3c3b37" d="M 172.5,55.5 C 177.532,56.3414 182.532,57.3414 187.5,58.5C 189.242,59.9573 191.242,61.124 193.5,62C 196.146,62.4974 198.813,62.6641 201.5,62.5C 205.678,62.8779 209.678,63.8779 213.5,65.5C 215.838,67.0395 218.505,67.7062 221.5,67.5C 222.167,67.5 222.833,67.5 223.5,67.5C 224.99,69.2798 226.99,69.9465 229.5,69.5C 237.2,71.0083 244.867,72.675 252.5,74.5C 254.242,75.9573 256.242,77.124 258.5,78C 261.146,78.4974 263.813,78.6641 266.5,78.5C 271.809,79.0756 276.809,80.409 281.5,82.5C 285.393,84.8757 289.727,85.8757 294.5,85.5C 303.241,87.1853 311.908,89.1853 320.5,91.5C 322.438,93.1628 324.772,93.8294 327.5,93.5C 327.833,93.5 328.167,93.5 328.5,93.5C 328.611,94.1174 328.944,94.6174 329.5,95C 331.473,95.4955 333.473,95.6621 335.5,95.5C 339.994,95.9947 344.16,97.3281 348,99.5C 348.829,119.338 348.662,139.004 347.5,158.5C 347.167,158.5 346.833,158.5 346.5,158.5C 346.5,138.833 346.5,119.167 346.5,99.5C 341.489,99.3341 336.489,99.5007 331.5,100C 330.027,100.71 329.36,101.876 329.5,103.5C 331.429,103.231 333.095,103.731 334.5,105C 299.693,120.238 265.026,135.738 230.5,151.5C 170.696,137.299 111.029,122.632 51.5,107.5C 51.5,127.167 51.5,146.833 51.5,166.5C 53.8984,166.259 55.8984,166.926 57.5,168.5C 55.139,168.326 52.8056,167.993 50.5,167.5C 50.167,147.156 50.5004,126.822 51.5,106.5C 85.1667,91 118.833,75.5 152.5,60C 155.699,59.5992 158.699,58.7659 161.5,57.5C 164.889,55.78 168.556,55.1134 172.5,55.5 Z"/></g>
<g><path style="opacity:0.482" fill="#706f6e" d="M 187.5,58.5 C 192.356,59.5437 197.022,60.877 201.5,62.5C 198.813,62.6641 196.146,62.4974 193.5,62C 191.242,61.124 189.242,59.9573 187.5,58.5 Z"/></g>
<g><path style="opacity:0.357" fill="#848482" d="M 213.5,65.5 C 216.428,65.5651 219.095,66.2318 221.5,67.5C 218.505,67.7062 215.838,67.0395 213.5,65.5 Z"/></g>
<g><path style="opacity:0.494" fill="#7f7e7c" d="M 223.5,67.5 C 225.786,67.595 227.786,68.2616 229.5,69.5C 226.99,69.9465 224.99,69.2798 223.5,67.5 Z"/></g>
<g><path style="opacity:0.467" fill="#747371" d="M 252.5,74.5 C 257.356,75.5437 262.022,76.877 266.5,78.5C 263.813,78.6641 261.146,78.4974 258.5,78C 256.242,77.124 254.242,75.9573 252.5,74.5 Z"/></g>
<g><path style="opacity:0.841" fill="#686764" d="M 281.5,82.5 C 286.12,82.7402 290.453,83.7402 294.5,85.5C 289.727,85.8757 285.393,84.8757 281.5,82.5 Z"/></g>
<g><path style="opacity:0.278" fill="#878785" d="M 320.5,91.5 C 323.067,91.7215 325.401,92.3882 327.5,93.5C 324.772,93.8294 322.438,93.1628 320.5,91.5 Z"/></g>
<g><path style="opacity:0.125" fill="#858582" d="M 328.5,93.5 C 331.067,93.7215 333.401,94.3882 335.5,95.5C 333.473,95.6621 331.473,95.4955 329.5,95C 328.944,94.6174 328.611,94.1174 328.5,93.5 Z"/></g>
<g><path style="opacity:1" fill="#222629" d="M 346.5,158.5 C 342.43,159.524 339.096,161.524 336.5,164.5C 336.167,164.5 335.833,164.5 335.5,164.5C 334.07,164.579 332.736,164.246 331.5,163.5C 328.16,166.841 324.16,169.174 319.5,170.5C 319.131,175.9 318.131,180.9 316.5,185.5C 316.353,180.786 316.686,176.119 317.5,171.5C 310.161,169.831 302.827,168.164 295.5,166.5C 295.5,165.5 295.5,164.5 295.5,163.5C 292.455,163.296 289.621,163.296 287,163.5C 285.164,162.331 283.998,160.664 283.5,158.5C 298.482,145.352 313.316,132.018 328,118.5C 328.402,117.128 328.902,115.795 329.5,114.5C 314.47,129.157 298.47,143.491 281.5,157.5C 280.575,156.359 279.741,156.359 279,157.5C 277.77,156.725 277.437,155.725 278,154.5C 288,145.5 298,136.5 308,127.5C 310.052,125.48 309.885,123.813 307.5,122.5C 307.072,125.522 305.739,128.022 303.5,130C 290.021,142.235 276.354,154.235 262.5,166C 263.908,166.315 265.241,165.982 266.5,165C 268.017,163.315 269.684,161.815 271.5,160.5C 272.931,160.977 274.264,161.643 275.5,162.5C 272.5,166.167 269.167,169.5 265.5,172.5C 262.866,175.869 262.033,179.536 263,183.5C 261.667,181.5 260.333,179.5 259,177.5C 258.86,175.479 258.693,173.645 258.5,172C 256.567,171.749 254.734,171.249 253,170.5C 252.121,174.031 250.288,174.864 247.5,173C 253.067,168.435 252.401,167.435 245.5,170C 244.833,170.667 244.167,171.333 243.5,172C 244.711,173.113 244.711,174.28 243.5,175.5C 241.518,176.216 239.851,177.383 238.5,179C 240.841,178.443 243.174,178.61 245.5,179.5C 244.361,182.389 243.694,185.389 243.5,188.5C 244.904,193.395 245.57,198.395 245.5,203.5C 250.897,203.785 256.23,203.451 261.5,202.5C 261.653,198.257 261.82,193.924 262,189.5C 262.308,188.692 262.808,188.025 263.5,187.5C 264.328,191.332 266.661,193.332 270.5,193.5C 270.5,193.833 270.5,194.167 270.5,194.5C 267.325,195.182 265.825,197.182 266,200.5C 261.614,205.02 256.447,206.353 250.5,204.5C 248.473,204.338 246.473,204.505 244.5,205C 239.36,208.547 233.693,210.38 227.5,210.5C 224.572,210.435 221.905,209.768 219.5,208.5C 223.857,208.586 228.19,208.92 232.5,209.5C 233.135,189.932 232.468,170.599 230.5,151.5C 265.026,135.738 299.693,120.238 334.5,105C 333.095,103.731 331.429,103.231 329.5,103.5C 329.36,101.876 330.027,100.71 331.5,100C 336.489,99.5007 341.489,99.3341 346.5,99.5C 346.5,119.167 346.5,138.833 346.5,158.5 Z"/></g>
<g><path style="opacity:1" fill="#1a1919" d="M 230.5,151.5 C 232.468,170.599 233.135,189.932 232.5,209.5C 228.19,208.92 223.857,208.586 219.5,208.5C 216.647,207.123 213.647,205.956 210.5,205C 207.854,204.503 205.187,204.336 202.5,204.5C 194.045,202.902 185.712,200.902 177.5,198.5C 175.562,196.837 173.228,196.171 170.5,196.5C 164.906,195.768 159.573,194.435 154.5,192.5C 150.521,190.551 146.187,189.551 141.5,189.5C 133.322,188.122 125.322,186.122 117.5,183.5C 113.837,181.584 109.837,180.584 105.5,180.5C 105.167,180.5 104.833,180.5 104.5,180.5C 102.562,178.837 100.228,178.171 97.5,178.5C 86.268,176.325 75.268,173.658 64.5,170.5C 62.5615,168.837 60.2282,168.171 57.5,168.5C 55.8984,166.926 53.8984,166.259 51.5,166.5C 51.5,146.833 51.5,127.167 51.5,107.5C 111.029,122.632 170.696,137.299 230.5,151.5 Z"/></g>
<g><path style="opacity:1" fill="#2e2737" d="M 55.5,110.5 C 112.575,124.205 169.575,138.205 226.5,152.5C 227.5,169.821 227.833,187.154 227.5,204.5C 209.761,200.878 192.094,197.045 174.5,193C 134.959,182.724 95.2928,172.891 55.5,163.5C 55.5,145.833 55.5,128.167 55.5,110.5 Z"/></g>
<g><path style="opacity:1" fill="#8d9395" d="M 166.5,110.5 C 173.249,112.017 179.915,113.85 186.5,116C 184.527,116.495 182.527,116.662 180.5,116.5C 180.439,119.73 178.772,121.563 175.5,122C 166.112,123.422 157.112,122.255 148.5,118.5C 152.035,118.031 155.035,116.531 157.5,114C 160.482,113.502 163.482,113.335 166.5,113.5C 166.5,112.5 166.5,111.5 166.5,110.5 Z"/></g>
<g><path style="opacity:1" fill="#42413f" d="M 157.5,115.5 C 162.241,115.823 162.575,117.49 158.5,120.5C 155.075,119.249 154.742,117.582 157.5,115.5 Z"/></g>
<g><path style="opacity:1" fill="#434341" d="M 163.5,115.5 C 167.302,115.76 170.969,116.594 174.5,118C 173.167,118.333 171.833,118.667 170.5,119C 178.117,119.803 177.784,120.636 169.5,121.5C 164.226,121.313 164.226,120.813 169.5,120C 167.101,119.289 164.768,119.456 162.5,120.5C 162.167,120.167 161.833,119.833 161.5,119.5C 162.63,118.378 163.297,117.044 163.5,115.5 Z"/></g>
<g><path style="opacity:1" fill="#17191a" d="M 324.5,138.5 C 322.891,141.141 321.557,143.974 320.5,147C 322.585,150.586 324.085,154.419 325,158.5C 328.206,160.124 330.872,159.458 333,156.5C 336.104,151.56 337.104,146.226 336,140.5C 335.623,139.058 334.79,138.058 333.5,137.5C 330.7,135.524 331.033,134.691 334.5,135C 338.858,139.494 339.691,144.661 337,150.5C 335.414,158.292 330.914,161.959 323.5,161.5C 324.246,162.736 324.579,164.07 324.5,165.5C 321.626,163.984 318.959,161.984 316.5,159.5C 314.598,157.937 313.598,155.937 313.5,153.5C 314.157,151.528 314.157,149.695 313.5,148C 315.146,146.445 315.479,144.779 314.5,143C 315.81,140.384 317.476,138.051 319.5,136C 319.167,135.667 318.833,135.333 318.5,135C 321.726,131.384 325.392,130.717 329.5,133C 327.627,134.704 325.96,136.537 324.5,138.5 Z"/></g>
<g><path style="opacity:1" fill="#2d3034" d="M 333.5,137.5 C 334.79,138.058 335.623,139.058 336,140.5C 337.104,146.226 336.104,151.56 333,156.5C 330.872,159.458 328.206,160.124 325,158.5C 324.085,154.419 322.585,150.586 320.5,147C 321.557,143.974 322.891,141.141 324.5,138.5C 325.222,138.918 325.722,139.584 326,140.5C 327.935,138.241 330.435,137.241 333.5,137.5 Z"/></g>
<g><path style="opacity:1" fill="#777a7d" d="M 332.5,145.5 C 333.675,145.281 334.675,145.614 335.5,146.5C 332.764,148.969 329.764,149.969 326.5,149.5C 328.397,147.983 330.397,146.65 332.5,145.5 Z"/></g>
<g><path style="opacity:1" fill="#1d1f20" d="M 316.5,185.5 C 309.993,184.838 306.827,187.838 307,194.5C 306.439,195.022 305.772,195.355 305,195.5C 303.667,194.833 302.333,194.167 301,193.5C 299.831,194.009 298.998,194.842 298.5,196C 293.816,196.461 289.149,196.295 284.5,195.5C 282.919,193.858 282.253,191.858 282.5,189.5C 285.064,189.979 287.564,190.645 290,191.5C 291.268,191.384 292.602,191.051 294,190.5C 295.401,192.192 297.234,192.859 299.5,192.5C 299.495,188.466 299.162,184.466 298.5,180.5C 291.333,179.833 284.333,178.333 277.5,176C 274.833,175.333 272.167,175.333 269.5,176C 271.004,177.337 272.004,179.004 272.5,181C 270.604,182.808 270.104,184.975 271,187.5C 273.719,188.444 276.552,188.777 279.5,188.5C 276.629,190.435 273.629,192.101 270.5,193.5C 266.661,193.332 264.328,191.332 263.5,187.5C 262.808,188.025 262.308,188.692 262,189.5C 261.82,193.924 261.653,198.257 261.5,202.5C 256.23,203.451 250.897,203.785 245.5,203.5C 245.57,198.395 244.904,193.395 243.5,188.5C 243.694,185.389 244.361,182.389 245.5,179.5C 243.174,178.61 240.841,178.443 238.5,179C 239.851,177.383 241.518,176.216 243.5,175.5C 244.711,174.28 244.711,173.113 243.5,172C 244.167,171.333 244.833,170.667 245.5,170C 252.401,167.435 253.067,168.435 247.5,173C 250.288,174.864 252.121,174.031 253,170.5C 254.734,171.249 256.567,171.749 258.5,172C 258.693,173.645 258.86,175.479 259,177.5C 260.333,179.5 261.667,181.5 263,183.5C 262.033,179.536 262.866,175.869 265.5,172.5C 269.167,169.5 272.5,166.167 275.5,162.5C 274.264,161.643 272.931,160.977 271.5,160.5C 269.684,161.815 268.017,163.315 266.5,165C 265.241,165.982 263.908,166.315 262.5,166C 276.354,154.235 290.021,142.235 303.5,130C 305.739,128.022 307.072,125.522 307.5,122.5C 309.885,123.813 310.052,125.48 308,127.5C 298,136.5 288,145.5 278,154.5C 277.437,155.725 277.77,156.725 279,157.5C 279.741,156.359 280.575,156.359 281.5,157.5C 298.47,143.491 314.47,129.157 329.5,114.5C 328.902,115.795 328.402,117.128 328,118.5C 313.316,132.018 298.482,145.352 283.5,158.5C 283.998,160.664 285.164,162.331 287,163.5C 289.621,163.296 292.455,163.296 295.5,163.5C 295.5,164.5 295.5,165.5 295.5,166.5C 302.827,168.164 310.161,169.831 317.5,171.5C 316.686,176.119 316.353,180.786 316.5,185.5 Z"/></g>
<g><path style="opacity:0.275" fill="#626365" d="M 346.5,158.5 C 346.833,158.5 347.167,158.5 347.5,158.5C 344.028,160.738 340.362,162.738 336.5,164.5C 339.096,161.524 342.43,159.524 346.5,158.5 Z"/></g>
<g><path style="opacity:0.229" fill="#606060" d="M 57.5,168.5 C 60.2282,168.171 62.5615,168.837 64.5,170.5C 61.8478,170.59 59.5145,169.924 57.5,168.5 Z"/></g>
<g><path style="opacity:1" fill="#3e4245" d="M 287.5,170.5 C 292.844,170.334 298.177,170.501 303.5,171C 307.5,172.667 307.5,174.333 303.5,176C 298.5,176.667 293.5,176.667 288.5,176C 286.19,174.541 285.857,172.708 287.5,170.5 Z"/></g>
<g><path style="opacity:0.608" fill="#585858" d="M 97.5,178.5 C 100.228,178.171 102.562,178.837 104.5,180.5C 101.933,180.279 99.5994,179.612 97.5,178.5 Z"/></g>
<g><path style="opacity:0.486" fill="#666766" d="M 105.5,180.5 C 109.837,180.584 113.837,181.584 117.5,183.5C 113.239,183.102 109.239,182.102 105.5,180.5 Z"/></g>
<g><path style="opacity:1" fill="#100f0e" d="M 282.5,189.5 C 281.791,188.596 280.791,188.263 279.5,188.5C 276.552,188.777 273.719,188.444 271,187.5C 270.104,184.975 270.604,182.808 272.5,181C 272.004,179.004 271.004,177.337 269.5,176C 272.167,175.333 274.833,175.333 277.5,176C 284.333,178.333 291.333,179.833 298.5,180.5C 299.162,184.466 299.495,188.466 299.5,192.5C 297.234,192.859 295.401,192.192 294,190.5C 292.602,191.051 291.268,191.384 290,191.5C 287.564,190.645 285.064,189.979 282.5,189.5 Z"/></g>
<g><path style="opacity:0.843" fill="#545454" d="M 141.5,189.5 C 146.187,189.551 150.521,190.551 154.5,192.5C 149.908,192.118 145.575,191.118 141.5,189.5 Z"/></g>
<g><path style="opacity:0.62" fill="#605f5f" d="M 279.5,188.5 C 280.791,188.263 281.791,188.596 282.5,189.5C 282.253,191.858 282.919,193.858 284.5,195.5C 283.504,195.586 282.671,195.252 282,194.5C 281.667,192.833 281.333,191.167 281,189.5C 277.676,191.579 274.176,193.246 270.5,194.5C 270.5,194.167 270.5,193.833 270.5,193.5C 273.629,192.101 276.629,190.435 279.5,188.5 Z"/></g>
<g><path style="opacity:1" fill="#505151" d="M 335.5,164.5 C 330.459,167.351 325.125,169.684 319.5,171.5C 319.827,176.544 319.494,181.544 318.5,186.5C 316.253,187.374 313.92,187.708 311.5,187.5C 312.457,193.048 310.123,196.215 304.5,197C 298.833,197.667 293.167,197.667 287.5,197C 286.263,196.768 285.263,196.268 284.5,195.5C 289.149,196.295 293.816,196.461 298.5,196C 298.998,194.842 299.831,194.009 301,193.5C 302.333,194.167 303.667,194.833 305,195.5C 305.772,195.355 306.439,195.022 307,194.5C 306.827,187.838 309.993,184.838 316.5,185.5C 318.131,180.9 319.131,175.9 319.5,170.5C 324.16,169.174 328.16,166.841 331.5,163.5C 332.736,164.246 334.07,164.579 335.5,164.5 Z"/></g>
<g><path style="opacity:0.227" fill="#757575" d="M 170.5,196.5 C 173.228,196.171 175.562,196.837 177.5,198.5C 174.848,198.59 172.515,197.924 170.5,196.5 Z"/></g>
<g><path style="opacity:0.984" fill="#4d4d4d" d="M 202.5,204.5 C 205.187,204.336 207.854,204.503 210.5,205C 213.647,205.956 216.647,207.123 219.5,208.5C 213.544,207.913 207.878,206.579 202.5,204.5 Z"/></g>
<g><path style="opacity:0.42" fill="#6a6b6c" d="M 250.5,204.5 C 245.381,206.051 240.381,208.218 235.5,211C 232.633,211.801 229.966,211.634 227.5,210.5C 233.693,210.38 239.36,208.547 244.5,205C 246.473,204.505 248.473,204.338 250.5,204.5 Z"/></g>
</svg>
