<?xml version="1.0" encoding="UTF-8"?>
<!DOCTYPE svg PUBLIC "-//W3C//DTD SVG 1.1//EN" "http://www.w3.org/Graphics/SVG/1.1/DTD/svg11.dtd">
<svg xmlns="http://www.w3.org/2000/svg" version="1.1" width="200px" height="200px" style="shape-rendering:geometricPrecision; text-rendering:geometricPrecision; image-rendering:optimizeQuality; fill-rule:evenodd; clip-rule:evenodd" xmlns:xlink="http://www.w3.org/1999/xlink">
<g><path style="opacity:1" fill="#9fa9b3" d="M 178.5,69.5 C 178.334,77.1739 178.5,84.8406 179,92.5C 182.966,97.4675 187.299,102.134 192,106.5C 195.333,112.833 195.333,119.167 192,125.5C 187.298,130.37 182.465,135.037 177.5,139.5C 177.5,127.167 177.5,114.833 177.5,102.5C 173.818,102.665 170.152,102.499 166.5,102C 166,101.5 165.5,101 165,100.5C 164.5,82.1697 164.333,63.8364 164.5,45.5C 162.533,45.2606 160.699,45.5939 159,46.5C 157.513,63.8082 157.179,81.1415 158,98.5C 159.188,99.5634 159.688,100.897 159.5,102.5C 157.61,102.703 156.11,102.037 155,100.5C 154.5,82.1697 154.333,63.8364 154.5,45.5C 152.833,45.5 151.167,45.5 149.5,45.5C 149.5,64.5 149.5,83.5 149.5,102.5C 148.178,102.67 147.011,102.337 146,101.5C 145.667,83.1667 145.333,64.8333 145,46.5C 143.301,45.5939 141.467,45.2606 139.5,45.5C 138.428,64.0656 138.428,82.5656 139.5,101C 138.101,101.595 136.768,101.428 135.5,100.5C 134.686,98.2338 134.186,95.9005 134,93.5C 133.667,94.8333 133.333,96.1667 133,97.5C 132.833,80.1571 132.333,62.8237 131.5,45.5C 130.5,64.4883 130.167,83.4883 130.5,102.5C 128.516,102.617 126.85,101.95 125.5,100.5C 123.187,82.2556 121.854,63.9223 121.5,45.5C 120.482,46.1925 119.482,46.8592 118.5,47.5C 118.5,39.1667 118.5,30.8333 118.5,22.5C 137.512,22.1671 156.512,22.5004 175.5,23.5C 175.808,24.3081 176.308,24.9747 177,25.5C 177.169,40.3391 177.669,55.0057 178.5,69.5 Z M 184.5,112.5 C 189.197,113.874 189.531,115.874 185.5,118.5C 182.025,116.916 181.692,114.916 184.5,112.5 Z"/></g>
<g><path style="opacity:0.949" fill="#5d646b" d="M 37.5,19.5 C 33.5,20.1667 29.5,20.8333 25.5,21.5C 24.2502,21.5774 23.4169,22.244 23,23.5C 22.5,49.8312 22.3334,76.1646 22.5,102.5C 22.5,114.167 22.5,125.833 22.5,137.5C 21.6618,137.842 21.3284,138.508 21.5,139.5C 20.8333,139.5 20.5,139.167 20.5,138.5C 20.5,123.167 20.5,107.833 20.5,92.5C 20.5,84.8333 20.5,77.1667 20.5,69.5C 20.5,55.1667 20.5,40.8333 20.5,26.5C 20.8333,25.1667 21.1667,23.8333 21.5,22.5C 22.0577,21.2101 23.0577,20.3768 24.5,20C 28.8206,19.501 33.1539,19.3343 37.5,19.5 Z"/></g>
<g><path style="opacity:0.942" fill="#a8b3bf" d="M 174.5,21.5 C 181.023,25.5105 186.857,30.5105 192,36.5C 194.923,42.3252 195.256,48.3252 193,54.5C 187.936,59.3953 183.103,64.3953 178.5,69.5C 177.669,55.0057 177.169,40.3391 177,25.5C 176.308,24.9747 175.808,24.3081 175.5,23.5C 156.512,22.5004 137.512,22.1671 118.5,22.5C 118.5,30.8333 118.5,39.1667 118.5,47.5C 117.338,63.9949 117.172,80.6616 118,97.5C 119.883,98.6526 120.716,100.319 120.5,102.5C 118.61,102.703 117.11,102.037 116,100.5C 115.5,74.1688 115.333,47.8354 115.5,21.5C 135.167,21.5 154.833,21.5 174.5,21.5 Z M 184.5,43.5 C 189.197,44.8743 189.531,46.8743 185.5,49.5C 182.025,47.9158 181.692,45.9158 184.5,43.5 Z"/></g>
<g><path style="opacity:1" fill="#1f2424" d="M 137.5,32.5 C 140.5,32.1667 141.833,33.5 141.5,36.5C 140.167,36.5 138.833,36.5 137.5,36.5C 137.5,35.1667 137.5,33.8333 137.5,32.5 Z"/></g>
<g><path style="opacity:1" fill="#1f2423" d="M 129.5,32.5 C 130.833,32.5 132.167,32.5 133.5,32.5C 133.5,33.8333 133.5,35.1667 133.5,36.5C 129.56,37.234 128.227,35.9007 129.5,32.5 Z"/></g>
<g><path style="opacity:1" fill="#1d2221" d="M 145.5,32.5 C 146.833,32.5 148.167,32.5 149.5,32.5C 149.5,33.8333 149.5,35.1667 149.5,36.5C 148.167,36.5 146.833,36.5 145.5,36.5C 145.5,35.1667 145.5,33.8333 145.5,32.5 Z"/></g>
<g><path style="opacity:1" fill="#1d2220" d="M 153.5,32.5 C 154.833,32.5 156.167,32.5 157.5,32.5C 157.5,33.8333 157.5,35.1667 157.5,36.5C 156.167,36.5 154.833,36.5 153.5,36.5C 153.5,35.1667 153.5,33.8333 153.5,32.5 Z"/></g>
<g><path style="opacity:0.894" fill="#9099a2" d="M 21.5,22.5 C 21.1667,23.8333 20.8333,25.1667 20.5,26.5C 15.7256,31.0622 13.3922,36.7289 13.5,43.5C 9.44477,46.0853 9.77811,48.0853 14.5,49.5C 13.2271,53.8015 13.2271,58.1348 14.5,62.5C 4.29105,56.1073 1.79105,47.4406 7,36.5C 11.7021,31.6301 16.5354,26.9634 21.5,22.5 Z"/></g>
<g><path style="opacity:0.956" fill="#7b848b" d="M 20.5,26.5 C 20.5,40.8333 20.5,55.1667 20.5,69.5C 18.5293,67.1918 16.5293,64.8585 14.5,62.5C 13.2271,58.1348 13.2271,53.8015 14.5,49.5C 17.2844,47.0484 16.951,45.0484 13.5,43.5C 13.3922,36.7289 15.7256,31.0622 20.5,26.5 Z"/></g>
<g><path style="opacity:1" fill="#808991" d="M 37.5,19.5 C 37.8333,19.5 38.1667,19.5 38.5,19.5C 37.8166,21.1765 36.4832,21.8432 34.5,21.5C 34.8331,47.8418 34.4998,74.1751 33.5,100.5C 32.1726,74.2675 32.1726,48.1008 33.5,22C 30.854,21.5026 28.1873,21.3359 25.5,21.5C 29.5,20.8333 33.5,20.1667 37.5,19.5 Z"/></g>
<g><path style="opacity:1" fill="#949ea8" d="M 63.5,19.5 C 64.8333,19.5 66.1667,19.5 67.5,19.5C 67.1788,21.0481 66.1788,21.7148 64.5,21.5C 64.3334,38.17 64.5001,54.8367 65,71.5C 65.3333,70.8333 65.6667,70.1667 66,69.5C 66.1677,79.8494 66.6677,90.1827 67.5,100.5C 68.7362,101.246 70.0695,101.579 71.5,101.5C 71.1924,74.1347 71.5257,46.8014 72.5,19.5C 106.835,19.3333 141.168,19.5 175.5,20C 174.944,20.3826 174.611,20.8826 174.5,21.5C 154.833,21.5 135.167,21.5 115.5,21.5C 115.333,47.8354 115.5,74.1688 116,100.5C 117.11,102.037 118.61,102.703 120.5,102.5C 120.716,100.319 119.883,98.6526 118,97.5C 117.172,80.6616 117.338,63.9949 118.5,47.5C 119.482,46.8592 120.482,46.1925 121.5,45.5C 121.854,63.9223 123.187,82.2556 125.5,100.5C 126.85,101.95 128.516,102.617 130.5,102.5C 130.167,83.4883 130.5,64.4883 131.5,45.5C 132.333,62.8237 132.833,80.1571 133,97.5C 133.333,96.1667 133.667,94.8333 134,93.5C 134.186,95.9005 134.686,98.2338 135.5,100.5C 136.768,101.428 138.101,101.595 139.5,101C 138.428,82.5656 138.428,64.0656 139.5,45.5C 141.467,45.2606 143.301,45.5939 145,46.5C 145.333,64.8333 145.667,83.1667 146,101.5C 147.011,102.337 148.178,102.67 149.5,102.5C 149.5,83.5 149.5,64.5 149.5,45.5C 151.167,45.5 152.833,45.5 154.5,45.5C 154.333,63.8364 154.5,82.1697 155,100.5C 156.11,102.037 157.61,102.703 159.5,102.5C 159.688,100.897 159.188,99.5634 158,98.5C 157.179,81.1415 157.513,63.8082 159,46.5C 160.699,45.5939 162.533,45.2606 164.5,45.5C 164.333,63.8364 164.5,82.1697 165,100.5C 165.5,101 166,101.5 166.5,102C 170.152,102.499 173.818,102.665 177.5,102.5C 177.5,114.833 177.5,127.167 177.5,139.5C 126.195,140.653 74.862,140.82 23.5,140C 22.7476,139.329 22.4142,138.496 22.5,137.5C 22.5,125.833 22.5,114.167 22.5,102.5C 23.3213,105.641 23.8213,108.975 24,112.5C 25.1475,111.542 26.1475,111.875 27,113.5C 28.2036,112.529 28.7036,111.529 28.5,110.5C 29.5,111 30.5,111.5 31.5,112C 26.184,114.464 26.184,116.631 31.5,118.5C 31.2465,116.599 31.5798,115.933 32.5,116.5C 33.9243,128.211 39.9243,131.544 50.5,126.5C 51.2216,126.918 51.7216,127.584 52,128.5C 53.5874,127.273 54.9207,127.606 56,129.5C 57.452,128.093 57.2853,126.593 55.5,125C 56.3333,124.167 57.1667,123.333 58,122.5C 59.272,127.124 60.4386,131.791 61.5,136.5C 71.7252,137.642 81.8919,137.309 92,135.5C 95.9962,135.915 99.6629,136.248 103,136.5C 114.424,135.678 125.924,135.178 137.5,135C 136.953,134.075 136.287,133.242 135.5,132.5C 135.167,133.167 134.833,133.833 134.5,134.5C 133.614,133.675 133.281,132.675 133.5,131.5C 132.07,131.579 130.736,131.246 129.5,130.5C 128.749,131.376 128.249,132.376 128,133.5C 126.922,130.657 125.589,128.657 124,127.5C 122.716,128.572 122.383,129.905 123,131.5C 122.333,130.167 121.667,130.167 121,131.5C 119.148,129.77 119.314,128.604 121.5,128C 119.639,126.138 118.306,126.638 117.5,129.5C 116.667,128.5 115.833,127.5 115,126.5C 113.665,130.361 112.499,130.361 111.5,126.5C 112.025,125.808 112.692,125.308 113.5,125C 110.595,123.963 107.761,122.796 105,121.5C 104.085,122.328 103.419,123.328 103,124.5C 101.148,122.77 101.314,121.604 103.5,121C 102.167,120.333 100.833,120.333 99.5,121C 100.696,121.654 100.696,122.154 99.5,122.5C 98.1691,121.408 97.3357,120.074 97,118.5C 96.6667,119.833 96.3333,121.167 96,122.5C 94.3333,120.833 92.6667,119.167 91,117.5C 90,118.167 89,118.833 88,119.5C 88.3333,118.167 88.6667,116.833 89,115.5C 86.5974,116.497 84.2641,116.164 82,114.5C 81.228,114.645 80.5613,114.978 80,115.5C 77.9307,114.736 75.764,114.236 73.5,114C 103.833,113.333 134.167,113.333 164.5,114C 165.81,120.444 165.81,126.944 164.5,133.5C 163.365,134.103 162.365,134.436 161.5,134.5C 162.776,135.645 164.109,135.645 165.5,134.5C 166.664,127.524 166.831,120.524 166,113.5C 165.25,112.874 164.416,112.374 163.5,112C 130.833,111.667 98.1667,111.333 65.5,111C 65.8333,110.667 66.1667,110.333 66.5,110C 65.3774,108.956 64.0441,108.29 62.5,108C 62.9574,107.586 63.2907,107.086 63.5,106.5C 61.9716,105.139 60.3049,103.972 58.5,103C 59.7932,102.51 61.1266,102.343 62.5,102.5C 61.219,88.6153 60.5523,74.6153 60.5,60.5C 60.8333,47.5 61.1667,34.5 61.5,21.5C 62.5223,21.1445 63.189,20.4778 63.5,19.5 Z"/></g>
<g><path style="opacity:1" fill="#9da7b2" d="M 67.5,19.5 C 69.1667,19.5 70.8333,19.5 72.5,19.5C 71.5257,46.8014 71.1924,74.1347 71.5,101.5C 70.0695,101.579 68.7362,101.246 67.5,100.5C 66.6677,90.1827 66.1677,79.8494 66,69.5C 65.6667,70.1667 65.3333,70.8333 65,71.5C 64.5001,54.8367 64.3334,38.17 64.5,21.5C 66.1788,21.7148 67.1788,21.0481 67.5,19.5 Z"/></g>
<g><path style="opacity:1" fill="#96a0aa" d="M 38.5,19.5 C 40.1667,19.5 41.8333,19.5 43.5,19.5C 42.1847,46.1306 42.1847,72.7972 43.5,99.5C 44.4998,73.5085 44.8331,47.5085 44.5,21.5C 46.1788,21.7148 47.1788,21.0481 47.5,19.5C 52.8333,19.5 58.1667,19.5 63.5,19.5C 63.189,20.4778 62.5223,21.1445 61.5,21.5C 61.1667,34.5 60.8333,47.5 60.5,60.5C 60.5523,74.6153 61.219,88.6153 62.5,102.5C 61.1266,102.343 59.7932,102.51 58.5,103C 60.3049,103.972 61.9716,105.139 63.5,106.5C 63.2907,107.086 62.9574,107.586 62.5,108C 64.0441,108.29 65.3774,108.956 66.5,110C 66.1667,110.333 65.8333,110.667 65.5,111C 98.1667,111.333 130.833,111.667 163.5,112C 164.416,112.374 165.25,112.874 166,113.5C 166.831,120.524 166.664,127.524 165.5,134.5C 164.109,135.645 162.776,135.645 161.5,134.5C 162.365,134.436 163.365,134.103 164.5,133.5C 165.81,126.944 165.81,120.444 164.5,114C 134.167,113.333 103.833,113.333 73.5,114C 75.764,114.236 77.9307,114.736 80,115.5C 80.5613,114.978 81.228,114.645 82,114.5C 84.2641,116.164 86.5974,116.497 89,115.5C 88.6667,116.833 88.3333,118.167 88,119.5C 89,118.833 90,118.167 91,117.5C 92.6667,119.167 94.3333,120.833 96,122.5C 96.3333,121.167 96.6667,119.833 97,118.5C 97.3357,120.074 98.1691,121.408 99.5,122.5C 100.696,122.154 100.696,121.654 99.5,121C 100.833,120.333 102.167,120.333 103.5,121C 101.314,121.604 101.148,122.77 103,124.5C 103.419,123.328 104.085,122.328 105,121.5C 107.761,122.796 110.595,123.963 113.5,125C 112.692,125.308 112.025,125.808 111.5,126.5C 112.499,130.361 113.665,130.361 115,126.5C 115.833,127.5 116.667,128.5 117.5,129.5C 118.306,126.638 119.639,126.138 121.5,128C 119.314,128.604 119.148,129.77 121,131.5C 121.667,130.167 122.333,130.167 123,131.5C 122.383,129.905 122.716,128.572 124,127.5C 125.589,128.657 126.922,130.657 128,133.5C 128.249,132.376 128.749,131.376 129.5,130.5C 130.736,131.246 132.07,131.579 133.5,131.5C 133.281,132.675 133.614,133.675 134.5,134.5C 134.833,133.833 135.167,133.167 135.5,132.5C 136.287,133.242 136.953,134.075 137.5,135C 125.924,135.178 114.424,135.678 103,136.5C 99.6629,136.248 95.9962,135.915 92,135.5C 81.8919,137.309 71.7252,137.642 61.5,136.5C 60.4386,131.791 59.272,127.124 58,122.5C 57.1667,123.333 56.3333,124.167 55.5,125C 57.2853,126.593 57.452,128.093 56,129.5C 54.9207,127.606 53.5874,127.273 52,128.5C 51.7216,127.584 51.2216,126.918 50.5,126.5C 55.4101,118.814 53.7434,112.98 45.5,109C 39.3385,108.412 35.0052,110.912 32.5,116.5C 31.5798,115.933 31.2465,116.599 31.5,118.5C 26.184,116.631 26.184,114.464 31.5,112C 30.5,111.5 29.5,111 28.5,110.5C 28.7036,111.529 28.2036,112.529 27,113.5C 26.1475,111.875 25.1475,111.542 24,112.5C 23.8213,108.975 23.3213,105.641 22.5,102.5C 22.3334,76.1646 22.5,49.8312 23,23.5C 23.4169,22.244 24.2502,21.5774 25.5,21.5C 28.1873,21.3359 30.854,21.5026 33.5,22C 32.1726,48.1008 32.1726,74.2675 33.5,100.5C 34.4998,74.1751 34.8331,47.8418 34.5,21.5C 36.4832,21.8432 37.8166,21.1765 38.5,19.5 Z"/></g>
<g><path style="opacity:1" fill="#808991" d="M 43.5,19.5 C 44.8333,19.5 46.1667,19.5 47.5,19.5C 47.1788,21.0481 46.1788,21.7148 44.5,21.5C 44.8331,47.5085 44.4998,73.5085 43.5,99.5C 42.1847,72.7972 42.1847,46.1306 43.5,19.5 Z"/></g>
<g><path style="opacity:1" fill="#ced2d7" d="M 50.5,126.5 C 39.9243,131.544 33.9243,128.211 32.5,116.5C 35.0052,110.912 39.3385,108.412 45.5,109C 53.7434,112.98 55.4101,118.814 50.5,126.5 Z"/></g>
<g><path style="opacity:0.984" fill="#7a838a" d="M 20.5,92.5 C 20.5,107.833 20.5,123.167 20.5,138.5C 15.8688,134.37 11.3688,130.037 7,125.5C 3.66667,119.167 3.66667,112.833 7,106.5C 11.7309,101.938 16.2309,97.2713 20.5,92.5 Z M 12.5,112.5 C 17.1972,113.874 17.5305,115.874 13.5,118.5C 10.025,116.916 9.6917,114.916 12.5,112.5 Z"/></g>
<g><path style="opacity:1" fill="#9ba4ae" d="M 39.5,110.5 C 46.6027,109.202 50.6027,112.035 51.5,119C 51.5924,123.573 49.4257,126.406 45,127.5C 43.3943,125.016 41.8943,125.016 40.5,127.5C 35.1715,125.173 33.3381,121.173 35,115.5C 36.025,113.313 37.525,111.646 39.5,110.5 Z"/></g>
<g><path style="opacity:1" fill="#b4bac1" d="M 31.5,131.5 C 32.7498,131.577 33.5831,132.244 34,133.5C 35,130.833 36,130.833 37,133.5C 41.5184,131.593 46.3517,130.926 51.5,131.5C 51.5,132.833 51.5,134.167 51.5,135.5C 44.2868,135.48 37.2868,135.147 30.5,134.5C 31.1272,133.583 31.4606,132.583 31.5,131.5 Z"/></g>
<g><path style="opacity:1" fill="#4d5259" d="M 22.5,137.5 C 22.4142,138.496 22.7476,139.329 23.5,140C 74.862,140.82 126.195,140.653 177.5,139.5C 177.027,140.906 176.027,141.573 174.5,141.5C 134.833,141.5 95.1667,141.5 55.5,141.5C 50.6367,141.181 45.97,141.514 41.5,142.5C 35.8236,142.666 30.1569,142.499 24.5,142C 23.0577,141.623 22.0577,140.79 21.5,139.5C 21.3284,138.508 21.6618,137.842 22.5,137.5 Z"/></g>
<g><path style="opacity:0.993" fill="#17181a" d="M 55.5,142.5 C 55.5,142.167 55.5,141.833 55.5,141.5C 95.1667,141.5 134.833,141.5 174.5,141.5C 169.025,142.489 163.358,142.822 157.5,142.5C 157.19,148.758 157.524,154.924 158.5,161C 153.511,161.499 148.511,161.666 143.5,161.5C 143.5,155.167 143.5,148.833 143.5,142.5C 137.974,142.179 132.64,142.512 127.5,143.5C 126.5,143.5 125.5,143.5 124.5,143.5C 124.133,149.172 123.633,154.839 123,160.5C 121.837,155.627 121.003,150.627 120.5,145.5C 108.18,144.334 95.8468,144.167 83.5,145C 82.8219,155.166 82.1552,165.333 81.5,175.5C 77.774,175.823 74.1073,175.489 70.5,174.5C 71.8333,166.167 71.8333,157.833 70.5,149.5C 70.8457,148.304 71.3457,148.304 72,149.5C 72.8632,147.251 72.3632,145.418 70.5,144C 70.8333,143.667 71.1667,143.333 71.5,143C 66.1771,142.501 60.8437,142.334 55.5,142.5 Z"/></g>
<g><path style="opacity:0.996" fill="#124c77" d="M 55.5,141.5 C 55.5,141.833 55.5,142.167 55.5,142.5C 54.8354,144.369 54.1687,146.369 53.5,148.5C 51.6675,147.752 50.0009,146.752 48.5,145.5C 48.1667,146.333 47.8333,147.167 47.5,148C 48.6182,150.059 49.2849,152.226 49.5,154.5C 47.5,154.5 45.5,154.5 43.5,154.5C 43.6741,156.861 44.0074,159.194 44.5,161.5C 43.1266,161.657 41.7932,161.49 40.5,161C 41.4764,154.924 41.8097,148.758 41.5,142.5C 45.97,141.514 50.6367,141.181 55.5,141.5 Z"/></g>
<g><path style="opacity:0.991" fill="#1f2023" d="M 127.5,143.5 C 127.938,143.435 128.272,143.601 128.5,144C 126.637,145.418 126.137,147.251 127,149.5C 127.654,148.304 128.154,148.304 128.5,149.5C 127.167,157.833 127.167,166.167 128.5,174.5C 123.167,175.167 117.833,175.833 112.5,176.5C 111.399,178.642 110.399,180.808 109.5,183C 102.842,183.5 96.175,183.666 89.5,183.5C 88.7019,181.114 87.7019,178.78 86.5,176.5C 84.9547,175.548 83.288,175.215 81.5,175.5C 82.1552,165.333 82.8219,155.166 83.5,145C 95.8468,144.167 108.18,144.334 120.5,145.5C 121.003,150.627 121.837,155.627 123,160.5C 123.633,154.839 124.133,149.172 124.5,143.5C 125.5,143.5 126.5,143.5 127.5,143.5 Z M 92.5,175.5 C 93.5,175.5 94.5,175.5 95.5,175.5C 95.5,176.5 95.5,177.5 95.5,178.5C 94.5,178.5 93.5,178.5 92.5,178.5C 92.5,177.5 92.5,176.5 92.5,175.5 Z M 103.5,175.5 C 104.5,175.5 105.5,175.5 106.5,175.5C 106.5,176.5 106.5,177.5 106.5,178.5C 105.5,178.5 104.5,178.5 103.5,178.5C 103.5,177.5 103.5,176.5 103.5,175.5 Z"/></g>
<g><path style="opacity:1" fill="#1d6ba6" d="M 55.5,142.5 C 55.5,148.833 55.5,155.167 55.5,161.5C 51.8333,161.5 48.1667,161.5 44.5,161.5C 44.0074,159.194 43.6741,156.861 43.5,154.5C 45.5,154.5 47.5,154.5 49.5,154.5C 49.2849,152.226 48.6182,150.059 47.5,148C 47.8333,147.167 48.1667,146.333 48.5,145.5C 50.0009,146.752 51.6675,147.752 53.5,148.5C 54.1687,146.369 54.8354,144.369 55.5,142.5 Z"/></g>
<g><path style="opacity:0.004" fill="#fefffe" d="M 89.5,183.5 C 88.8333,184.167 88.8333,184.167 89.5,183.5 Z"/></g>
</svg>
